<svg width="102" height="102" viewBox="0 0 102 102" fill="none" xmlns="http://www.w3.org/2000/svg">
<path d="M90.6347 51.7039L90.7481 50.8678L97.4369 51.7752L97.2378 53.2427L90.5534 58.5801L96.406 59.3741L96.2926 60.2101L89.6038 59.3027L89.7551 58.1879L96.6267 52.5168L90.6347 51.7039Z" fill="white"/>
<path d="M93.4489 69.1738C93.2498 69.6495 93.0527 70.037 92.8575 70.3364C92.6639 70.6397 92.4635 70.8718 92.2563 71.0328C92.0519 71.195 91.8367 71.2955 91.6109 71.3343C91.385 71.3732 91.1411 71.3679 90.879 71.3186C90.6159 71.272 90.3313 71.1894 90.0252 71.0708C89.718 70.9549 89.3806 70.82 89.0131 70.6662C88.6456 70.5124 88.3127 70.3667 88.0145 70.2292C87.7153 70.0944 87.4567 69.9496 87.2388 69.7949C87.0197 69.6429 86.8448 69.4728 86.7139 69.2846C86.5831 69.0965 86.5023 68.8721 86.4716 68.6115C86.4437 68.3521 86.4697 68.047 86.5499 67.6962C86.6261 67.3471 86.7638 66.9346 86.9629 66.459L87.9437 64.1159C88.1427 63.6403 88.3404 63.2514 88.5368 62.9493C88.7293 62.6488 88.9277 62.4174 89.1322 62.2553C89.3393 62.0942 89.5564 61.9929 89.7834 61.9514C90.0093 61.9125 90.2538 61.9164 90.5169 61.9631C90.7789 62.0124 91.063 62.0963 91.3691 62.2149C91.6751 62.3335 92.0119 62.4697 92.3795 62.6236C92.747 62.7774 93.0804 62.9217 93.3797 63.0565C93.679 63.1913 93.9382 63.3347 94.1572 63.4868C94.3751 63.6415 94.5495 63.8129 94.6803 64.0011C94.81 64.192 94.8889 64.4171 94.9169 64.6765C94.9476 64.9371 94.9234 65.2414 94.8444 65.5895C94.767 65.9414 94.6287 66.3551 94.4297 66.8308L93.4489 69.1738ZM87.6115 66.7305C87.4679 67.0737 87.3563 67.3668 87.2768 67.6099C87.1989 67.8567 87.1587 68.0702 87.1564 68.2503C87.1541 68.4303 87.1935 68.5866 87.2747 68.719C87.3558 68.8514 87.4844 68.9767 87.6604 69.0948C87.8365 69.213 88.0625 69.333 88.3386 69.4549C88.6163 69.5807 88.9497 69.725 89.3389 69.8879C89.728 70.0508 90.0635 70.1864 90.3452 70.2948C90.6286 70.4071 90.8741 70.4844 91.0818 70.5269C91.2895 70.5694 91.469 70.573 91.6203 70.5379C91.7715 70.5028 91.9105 70.4212 92.0371 70.2932C92.1626 70.1678 92.2846 69.9902 92.4031 69.7603C92.5231 69.5343 92.6555 69.2483 92.8003 68.9023L93.7811 66.5593C93.9258 66.2134 94.0372 65.917 94.1151 65.6701C94.1946 65.4271 94.2355 65.2155 94.2378 65.0355C94.2402 64.8554 94.2008 64.6992 94.1196 64.5667C94.0385 64.4343 93.9099 64.309 93.7338 64.1909C93.5578 64.0727 93.3304 63.9521 93.0516 63.8291C92.7755 63.7072 92.4429 63.5648 92.0537 63.4019C91.6645 63.239 91.3283 63.1014 91.045 62.9892C90.7632 62.8808 90.5185 62.8053 90.3108 62.7629C90.1031 62.7204 89.9241 62.7154 89.774 62.7478C89.6227 62.7829 89.4838 62.8645 89.3571 62.9925C89.2305 63.1206 89.1072 63.2976 88.9871 63.5237C88.8687 63.7536 88.737 64.0415 88.5923 64.3874L87.6115 66.7305Z" fill="white"/>
<path d="M86.8644 79.727L86.2289 80.4787L79.8407 78.6691L82.7337 84.6134L82.0982 85.3651L78.9406 78.6447L79.6669 77.7856L85.9023 79.5581L83.1167 73.7046L83.843 72.8455L91.1768 74.6258L90.5413 75.3775L84.0168 73.729L86.8644 79.727Z" fill="white"/>
<path d="M62.4095 88.6545L63.2389 88.4996L64.4782 95.1348L63.0224 95.4067L55.8557 90.7369L56.9401 96.5428L56.1107 96.6977L54.8714 90.0624L55.9772 89.8559L63.5197 94.5986L62.4095 88.6545Z" fill="white"/>
<path d="M46.4972 96.7994C45.9831 96.7596 45.5533 96.6941 45.2078 96.6027C44.8591 96.5141 44.5758 96.3967 44.3579 96.2505C44.1397 96.1073 43.9768 95.9346 43.869 95.7323C43.7612 95.53 43.6896 95.2968 43.6542 95.0325C43.6159 94.768 43.605 94.4719 43.6215 94.1441C43.6352 93.816 43.6573 93.4533 43.688 93.0561C43.7187 92.6588 43.7526 92.2971 43.7895 91.9708C43.8236 91.6444 43.8799 91.3534 43.9584 91.098C44.034 90.8423 44.1406 90.6228 44.2782 90.4395C44.4157 90.2562 44.6034 90.1091 44.8412 89.9982C45.0787 89.8902 45.3766 89.8192 45.7348 89.7852C46.0903 89.748 46.525 89.7493 47.0391 89.789L49.5716 89.9848C50.0857 90.0245 50.517 90.0902 50.8655 90.1818C51.2112 90.2702 51.4932 90.386 51.7113 90.5292C51.9292 90.6754 52.0935 90.8497 52.2042 91.0522C52.312 91.2544 52.385 91.4878 52.4234 91.7523C52.4588 92.0166 52.4682 92.3126 52.4517 92.6404C52.4352 92.9683 52.4115 93.3308 52.3808 93.728C52.3501 94.1253 52.3177 94.4872 52.2837 94.8136C52.2496 95.1401 52.1948 95.4312 52.1192 95.6869C52.0407 95.9423 51.9327 96.1617 51.7951 96.345C51.6546 96.5281 51.4656 96.6736 51.228 96.7816C50.9902 96.8925 50.6937 96.9651 50.3385 96.9993C49.9801 97.0363 49.5438 97.0349 49.0297 96.9951L46.4972 96.7994ZM46.9849 90.4901C46.614 90.4614 46.3006 90.4474 46.0449 90.4482C45.7861 90.4517 45.5708 90.4806 45.3991 90.535C45.2274 90.5893 45.0915 90.6757 44.9912 90.7943C44.8909 90.9129 44.8124 91.0744 44.7554 91.2786C44.6985 91.4828 44.6555 91.7351 44.6264 92.0355C44.5941 92.3386 44.5618 92.7005 44.5293 93.1211C44.4967 93.5417 44.4732 93.9028 44.4587 94.2044C44.4411 94.5086 44.4447 94.766 44.4696 94.9765C44.4944 95.1871 44.5473 95.3587 44.6281 95.4913C44.709 95.6239 44.83 95.7302 44.9913 95.8102C45.1497 95.8901 45.3567 95.9501 45.6121 95.9905C45.8644 96.0335 46.1775 96.0694 46.5514 96.0983L49.0839 96.2941C49.4578 96.323 49.7742 96.3357 50.033 96.3322C50.2887 96.3314 50.5024 96.3038 50.6741 96.2495C50.8458 96.1952 50.9818 96.1087 51.082 95.9901C51.1823 95.8715 51.2609 95.7101 51.3178 95.5059C51.3747 95.3017 51.4179 95.0479 51.4472 94.7446C51.4763 94.4442 51.5071 94.0836 51.5396 93.663C51.5721 93.2424 51.5972 92.88 51.6148 92.5757C51.6293 92.2742 51.6241 92.0182 51.5993 91.8076C51.5744 91.5971 51.523 91.4256 51.4451 91.2932C51.3643 91.1606 51.2432 91.0543 51.0819 90.9742C50.9206 90.8942 50.7138 90.8327 50.4615 90.7896C50.206 90.7493 49.8913 90.7147 49.5174 90.6858L46.9849 90.4901Z" fill="white"/>
<path d="M34.4141 93.8387L33.5018 93.4688L33.2326 86.8347L28.4845 91.4345L27.5722 91.0647L32.9755 85.9717L34.0181 86.3944L34.275 92.8718L38.9703 88.4023L40.0129 88.825L40.6043 96.3485L39.6921 95.9786L39.2274 89.2652L34.4141 93.8387Z" fill="white"/>
<path d="M18.3704 73.4055L18.7779 74.1443L12.8675 77.4046L12.1522 76.1079L14.3351 67.8372L9.16354 70.69L8.75599 69.9512L14.6664 66.6909L15.2098 67.6759L13.0756 76.3262L18.3704 73.4055Z" fill="white"/>
<path d="M5.70262 61.0612C5.57913 60.5606 5.50657 60.1319 5.48495 59.7751C5.45978 59.4162 5.48241 59.1104 5.55284 58.8576C5.62042 58.6056 5.73334 58.3967 5.8916 58.2309C6.04987 58.0651 6.24891 57.924 6.48873 57.8075C6.72785 57.6882 7.00565 57.585 7.32212 57.4978C7.63789 57.4079 7.98919 57.3152 8.37603 57.2198C8.76287 57.1243 9.11699 57.043 9.43837 56.9758C9.75905 56.9057 10.053 56.8679 10.3202 56.8624C10.5867 56.854 10.8285 56.8864 11.0457 56.9595C11.2629 57.0327 11.4614 57.1647 11.6413 57.3557C11.8184 57.5474 11.9792 57.808 12.1238 58.1374C12.2706 58.4633 12.4057 58.8766 12.5292 59.3772L13.1376 61.8433C13.2611 62.3439 13.334 62.7741 13.3563 63.1337C13.3808 63.4897 13.3592 63.7938 13.2916 64.0458C13.2212 64.2986 13.1072 64.5092 12.9496 64.6779C12.7914 64.8436 12.5927 64.9862 12.3536 65.1055C12.1138 65.222 11.8356 65.3238 11.5191 65.4109C11.2027 65.4981 10.851 65.5893 10.4642 65.6848C10.0773 65.7802 9.72357 65.8629 9.40289 65.933C9.0822 66.003 8.78862 66.0423 8.52214 66.0507C8.25495 66.0562 8.01276 66.0224 7.79555 65.9493C7.57765 65.8733 7.38018 65.7394 7.20314 65.5477C7.02326 65.3567 6.86135 65.0979 6.71742 64.7713C6.56994 64.4426 6.43445 64.0279 6.31096 63.5273L5.70262 61.0612ZM11.8466 59.5456C11.7575 59.1844 11.6724 58.8825 11.5915 58.6399C11.507 58.3952 11.412 58.1999 11.3066 58.0539C11.2012 57.9079 11.0764 57.8059 10.9324 57.7479C10.7883 57.6899 10.6104 57.6659 10.3986 57.6759C10.1868 57.6859 9.93377 57.7241 9.63939 57.7907C9.34147 57.8552 8.98771 57.9379 8.57811 58.0389C8.16851 58.14 7.81828 58.2309 7.52741 58.3117C7.23299 58.3904 6.98972 58.4745 6.79759 58.5642C6.60546 58.6538 6.45911 58.7578 6.35855 58.8761C6.25799 58.9945 6.195 59.1428 6.16957 59.3211C6.14344 59.4965 6.1513 59.7118 6.19313 59.967C6.23142 60.2201 6.29547 60.5287 6.38528 60.8928L6.99362 63.3589C7.08344 63.723 7.17059 64.0274 7.25509 64.2721C7.33605 64.5146 7.42923 64.7089 7.53465 64.8549C7.64007 65.0009 7.76481 65.1029 7.90887 65.1609C8.05293 65.2189 8.23085 65.2429 8.44263 65.2329C8.6544 65.2229 8.9089 65.1843 9.20613 65.117C9.50051 65.0504 9.85249 64.9666 10.2621 64.8656C10.6717 64.7645 11.0237 64.6747 11.3181 64.596C11.609 64.5152 11.8505 64.43 12.0426 64.3403C12.2347 64.2507 12.3814 64.1481 12.4827 64.0326C12.5833 63.9143 12.6463 63.766 12.6717 63.5877C12.6971 63.4094 12.6907 63.1938 12.6524 62.9407C12.6106 62.6855 12.5447 62.3758 12.4549 62.0117L11.8466 59.5456Z" fill="white"/>
<path d="M4.69805 48.5832L4.76257 47.601L10.9762 45.261L5.1174 42.1986L5.18192 41.2163L11.7146 44.7458L11.6409 45.8684L5.57225 48.1474L11.2907 51.2006L11.217 52.3232L4.26027 55.2486L4.32479 54.2663L10.5522 51.7158L4.69805 48.5832Z" fill="white"/>
<path d="M18.9791 26.9494L18.4046 27.5673L13.4614 22.9709L14.4698 21.8864L23.0085 21.377L18.6832 17.3551L19.2578 16.7372L24.201 21.3336L23.4349 22.1575L14.5508 22.8318L18.9791 26.9494Z" fill="white"/>
<path d="M26.8868 10.9147C27.3239 10.6411 27.7085 10.4383 28.0407 10.3064C28.3738 10.1705 28.6714 10.0965 28.9335 10.0845C29.194 10.07 29.4278 10.1121 29.6347 10.2107C29.8416 10.3093 30.0378 10.4544 30.2233 10.6458C30.4113 10.8357 30.5961 11.0674 30.7777 11.3409C30.9617 11.6128 31.1594 11.9176 31.3708 12.2553C31.5823 12.5931 31.7701 12.9041 31.9342 13.1884C32.1009 13.4712 32.2286 13.7387 32.3172 13.9908C32.4084 14.2413 32.4531 14.4812 32.4514 14.7104C32.4498 14.9395 32.3863 15.1694 32.261 15.3999C32.1341 15.6279 31.9368 15.8621 31.6689 16.1023C31.4052 16.3435 31.0547 16.6009 30.6177 16.8745L28.4647 18.2223C28.0276 18.4958 27.6418 18.6994 27.3071 18.8328C26.9765 18.9672 26.6809 19.0417 26.4204 19.0561C26.1583 19.0681 25.9225 19.0256 25.7131 18.9286C25.5063 18.8299 25.3088 18.6857 25.1208 18.4958C24.9352 18.3043 24.7517 18.0718 24.5701 17.7984C24.3886 17.5249 24.1921 17.2193 23.9807 16.8816C23.7693 16.5439 23.5802 16.2336 23.4136 15.9508C23.2469 15.668 23.118 15.4014 23.0268 15.1508C22.9382 14.8987 22.8947 14.6581 22.8964 14.4289C22.9005 14.1982 22.9661 13.9688 23.0929 13.7407C23.2182 13.5102 23.4135 13.2756 23.6789 13.0369C23.9451 12.7942 24.2968 12.536 24.7339 12.2624L26.8868 10.9147ZM30.2446 16.2785C30.56 16.0811 30.8202 15.9061 31.0254 15.7534C31.2315 15.5968 31.3874 15.4456 31.4932 15.2998C31.599 15.1541 31.657 15.0038 31.6671 14.8488C31.6772 14.6938 31.6445 14.5173 31.5689 14.3192C31.4933 14.1212 31.3779 13.8927 31.2228 13.6338C31.0686 13.3709 30.8795 13.0606 30.6557 12.703C30.4318 12.3455 30.2361 12.0411 30.0685 11.79C29.9019 11.5348 29.746 11.33 29.6009 11.1754C29.4557 11.0209 29.3113 10.9143 29.1674 10.8557C29.0236 10.7972 28.8631 10.7836 28.6858 10.8151C28.5109 10.845 28.3088 10.9197 28.0794 11.0391C27.8509 11.1545 27.5778 11.3117 27.2599 11.5107L25.1069 12.8584C24.7891 13.0574 24.5271 13.2352 24.321 13.3919C24.1159 13.5445 23.9604 13.6937 23.8546 13.8394C23.7488 13.9851 23.6908 14.1355 23.6807 14.2905C23.6706 14.4454 23.7033 14.6219 23.7789 14.82C23.8545 15.0181 23.9707 15.2478 24.1274 15.5092C24.2825 15.7681 24.472 16.0763 24.6959 16.4339C24.9197 16.7915 25.115 17.0978 25.2816 17.353C25.4492 17.6041 25.6055 17.8069 25.7506 17.9615C25.8958 18.116 26.039 18.2234 26.1804 18.2835C26.3242 18.3421 26.4848 18.3557 26.6621 18.3242C26.8394 18.2927 27.0422 18.2192 27.2707 18.1039C27.5001 17.9844 27.7738 17.8252 28.0916 17.6263L30.2446 16.2785Z" fill="white"/>
<path d="M38.1514 6.12866L39.1044 5.88202L43.2742 11.049L44.3458 4.52551L45.2987 4.27887L43.9949 11.5887L42.9058 11.8706L38.8393 6.82218L37.7325 13.2095L36.6434 13.4914L31.6848 7.80227L32.6378 7.55563L37.0117 12.6697L38.1514 6.12866Z" fill="white"/>
<path d="M63.5075 12.8993L62.7418 12.5447L65.5783 6.4196L66.9222 7.04193L70.0549 15.0015L72.5368 9.64205L73.3025 9.99662L70.466 16.1217L69.4451 15.649L66.0485 7.41219L63.5075 12.8993Z" fill="white"/>
<path d="M81.0583 15.3394C81.4544 15.6694 81.767 15.9717 81.9959 16.2462C82.2289 16.5203 82.3919 16.7801 82.485 17.0254C82.5799 17.2684 82.6128 17.5036 82.5836 17.7309C82.5544 17.9582 82.4777 18.1899 82.3536 18.4259C82.2318 18.6637 82.0692 18.9115 81.866 19.1692C81.665 19.4289 81.437 19.7117 81.182 20.0179C80.927 20.324 80.69 20.5994 80.471 20.844C80.2542 21.0905 80.0399 21.2952 79.828 21.458C79.6183 21.6228 79.4043 21.74 79.1861 21.8099C78.9678 21.8797 78.7296 21.891 78.4715 21.8438C78.2153 21.7943 77.9313 21.6798 77.6195 21.5002C77.3082 21.3247 76.9544 21.072 76.5582 20.7419L74.6065 19.1163C74.2103 18.7863 73.8967 18.4831 73.6655 18.2067C73.4348 17.9344 73.2719 17.6767 73.177 17.4337C73.0839 17.1884 73.0508 16.9511 73.0778 16.722C73.107 16.4946 73.1825 16.262 73.3044 16.0242C73.4285 15.7882 73.5922 15.5414 73.7954 15.2836C73.9987 15.0259 74.2278 14.7439 74.4828 14.4378C74.7378 14.1316 74.9737 13.8553 75.1904 13.6088C75.4072 13.3623 75.6204 13.1567 75.83 12.992C76.0419 12.8292 76.257 12.7128 76.4753 12.643C76.6959 12.5751 76.9343 12.5658 77.1905 12.6153C77.4486 12.6625 77.7323 12.775 78.0418 12.9527C78.3555 13.13 78.7104 13.3837 79.1066 13.7137L81.0583 15.3394ZM77.0082 20.2017C77.2941 20.4398 77.5415 20.6326 77.7505 20.7799C77.9636 20.9269 78.1558 21.028 78.3273 21.0831C78.4987 21.1382 78.6596 21.1464 78.81 21.1077C78.9604 21.0691 79.118 20.9829 79.2826 20.8494C79.4473 20.7158 79.6284 20.5349 79.826 20.3068C80.0278 20.0784 80.2637 19.802 80.5337 19.4779C80.8037 19.1537 81.0319 18.8729 81.2182 18.6354C81.4087 18.3976 81.5548 18.1856 81.6564 17.9995C81.758 17.8134 81.8142 17.6429 81.8251 17.488C81.8359 17.3331 81.7988 17.1763 81.7136 17.0177C81.6306 16.8609 81.4967 16.6921 81.3117 16.5113C81.1309 16.3302 80.8964 16.1196 80.6082 15.8796L78.6566 14.254C78.3684 14.014 78.1178 13.8205 77.9047 13.6735C77.6958 13.5261 77.5056 13.4249 77.3341 13.3698C77.1627 13.3147 77.0018 13.3065 76.8513 13.3451C76.7009 13.3838 76.5434 13.4699 76.3788 13.6035C76.2141 13.7371 76.0321 13.919 75.8325 14.1494C75.6349 14.3775 75.4011 14.6536 75.1311 14.9778C74.8611 15.302 74.6308 15.583 74.4403 15.8208C74.254 16.0583 74.11 16.2701 74.0084 16.4562C73.9067 16.6422 73.8494 16.8118 73.8363 16.9648C73.8254 17.1198 73.8626 17.2766 73.9478 17.4352C74.033 17.5939 74.166 17.7638 74.3468 17.9449C74.5318 18.1257 74.7684 18.336 75.0565 18.576L77.0082 20.2017Z" fill="white"/>
<path d="M89.2889 24.7607L89.8203 25.5893L86.2111 31.1622L92.7434 30.1464L93.2749 30.975L85.9229 32.0153L85.3155 31.0684L88.8444 25.6306L82.4304 26.5704L81.823 25.6235L85.6824 19.1383L86.2139 19.9669L82.7185 25.7173L89.2889 24.7607Z" fill="white"/>
</svg>
