<svg width="109" height="211" viewBox="0 0 109 211" fill="none" xmlns="http://www.w3.org/2000/svg">
<rect x="106.954" y="210.11" width="16" height="7" rx="3.5" transform="rotate(-165 106.954 210.11)" fill="#FFF4C9"/>
<rect x="106.954" y="173.479" width="16" height="7" rx="3.5" transform="rotate(-165 106.954 173.479)" fill="#FFF4C9"/>
<rect x="106.954" y="136.847" width="16" height="7" rx="3.5" transform="rotate(-165 106.954 136.847)" fill="#FFF4C9"/>
<rect x="106.954" y="100.215" width="16" height="7" rx="3.5" transform="rotate(-165 106.954 100.215)" fill="#FFCA00"/>
<rect x="106.954" y="63.583" width="16" height="7" rx="3.5" transform="rotate(-165 106.954 63.583)" fill="#FFF4C9"/>
<rect x="59.3101" y="191.69" width="16" height="7" rx="3.5" transform="rotate(-150 59.3101 191.69)" fill="#FFF4C9"/>
<rect x="59.3101" y="155.058" width="16" height="7" rx="3.5" transform="rotate(-150 59.3101 155.058)" fill="#FFF4C9"/>
<rect x="59.3101" y="118.426" width="16" height="7" rx="3.5" transform="rotate(-150 59.3101 118.426)" fill="#FFF4C9"/>
<rect x="59.3101" y="81.7944" width="16" height="7" rx="3.5" transform="rotate(-150 59.3101 81.7944)" fill="#FFF4C9"/>
<rect x="59.3101" y="45.1626" width="16" height="7" rx="3.5" transform="rotate(-150 59.3101 45.1626)" fill="#FFF4C9"/>
<rect x="11.314" y="162.791" width="16" height="7" rx="3.5" transform="rotate(-135 11.314 162.791)" fill="#FFF4C9"/>
<rect x="11.314" y="126.159" width="16" height="7" rx="3.5" transform="rotate(-135 11.314 126.159)" fill="#FFCA00"/>
<rect x="11.314" y="89.5273" width="16" height="7" rx="3.5" transform="rotate(-135 11.314 89.5273)" fill="#FFF4C9"/>
<rect x="11.314" y="52.8955" width="16" height="7" rx="3.5" transform="rotate(-135 11.314 52.8955)" fill="#FFF4C9"/>
<rect x="11.314" y="16.2637" width="16" height="7" rx="3.5" transform="rotate(-135 11.314 16.2637)" fill="#FFF4C9"/>
</svg>
