<svg width="155" height="219" viewBox="0 0 155 219" fill="none" xmlns="http://www.w3.org/2000/svg">
<rect width="16" height="7" rx="3.5" fill="#FFCA00"/>
<rect y="36.6318" width="16" height="7" rx="3.5" fill="#FFF4C9"/>
<rect y="73.2637" width="16" height="7" rx="3.5" fill="#FFF4C9"/>
<rect y="109.896" width="16" height="7" rx="3.5" fill="#FFF4C9"/>
<rect y="146.527" width="16" height="7" rx="3.5" fill="#FFF4C9"/>
<rect x="47.1787" y="8.04883" width="16" height="7" rx="3.5" transform="rotate(15 47.1787 8.04883)" fill="#FFF4C9"/>
<rect x="47.1787" y="44.6807" width="16" height="7" rx="3.5" transform="rotate(15 47.1787 44.6807)" fill="#FFF4C9"/>
<rect x="47.1787" y="81.3125" width="16" height="7" rx="3.5" transform="rotate(15 47.1787 81.3125)" fill="#FFF4C9"/>
<rect x="47.1787" y="117.944" width="16" height="7" rx="3.5" transform="rotate(15 47.1787 117.944)" fill="#FFCA00"/>
<rect x="47.1787" y="154.576" width="16" height="7" rx="3.5" transform="rotate(15 47.1787 154.576)" fill="#FFF4C9"/>
<rect x="94.8218" y="26.469" width="16" height="7" rx="3.5" transform="rotate(30 94.8218 26.469)" fill="#FFF4C9"/>
<rect x="94.8218" y="63.1008" width="16" height="7" rx="3.5" transform="rotate(30 94.8218 63.1008)" fill="#FFF4C9"/>
<rect x="94.8218" y="99.7327" width="16" height="7" rx="3.5" transform="rotate(30 94.8218 99.7327)" fill="#FFF4C9"/>
<rect x="94.8218" y="136.365" width="16" height="7" rx="3.5" transform="rotate(30 94.8218 136.365)" fill="#FFF4C9"/>
<rect x="94.8218" y="172.996" width="16" height="7" rx="3.5" transform="rotate(30 94.8218 172.996)" fill="#FFF4C9"/>
<rect x="142.818" y="55.3682" width="16" height="7" rx="3.5" transform="rotate(45 142.818 55.3682)" fill="#FFF4C9"/>
<rect x="142.818" y="92" width="16" height="7" rx="3.5" transform="rotate(45 142.818 92)" fill="#FFCA00"/>
<rect x="142.818" y="128.632" width="16" height="7" rx="3.5" transform="rotate(45 142.818 128.632)" fill="#FFF4C9"/>
<rect x="142.818" y="165.264" width="16" height="7" rx="3.5" transform="rotate(45 142.818 165.264)" fill="#FFF4C9"/>
<rect x="142.818" y="201.896" width="16" height="7" rx="3.5" transform="rotate(45 142.818 201.896)" fill="#FFF4C9"/>
</svg>
