<svg width="109" height="211" viewBox="0 0 109 211" fill="none" xmlns="http://www.w3.org/2000/svg">
<rect x="106.958" y="210.11" width="16" height="7" rx="3.5" transform="rotate(-165 106.958 210.11)" fill="#FFF4C9"/>
<rect x="106.958" y="173.478" width="16" height="7" rx="3.5" transform="rotate(-165 106.958 173.478)" fill="#FFF4C9"/>
<rect x="106.958" y="136.846" width="16" height="7" rx="3.5" transform="rotate(-165 106.958 136.846)" fill="#FFF4C9"/>
<rect x="106.958" y="100.215" width="16" height="7" rx="3.5" transform="rotate(-165 106.958 100.215)" fill="#FFCA00"/>
<rect x="106.958" y="63.5828" width="16" height="7" rx="3.5" transform="rotate(-165 106.958 63.5828)" fill="#FFF4C9"/>
<rect x="59.314" y="191.69" width="16" height="7" rx="3.5" transform="rotate(-150 59.314 191.69)" fill="#FFF4C9"/>
<rect x="59.314" y="155.058" width="16" height="7" rx="3.5" transform="rotate(-150 59.314 155.058)" fill="#FFF4C9"/>
<rect x="59.314" y="118.426" width="16" height="7" rx="3.5" transform="rotate(-150 59.314 118.426)" fill="#FFF4C9"/>
<rect x="59.314" y="81.7944" width="16" height="7" rx="3.5" transform="rotate(-150 59.314 81.7944)" fill="#FFF4C9"/>
<rect x="59.314" y="45.1626" width="16" height="7" rx="3.5" transform="rotate(-150 59.314 45.1626)" fill="#FFF4C9"/>
<rect x="11.3179" y="162.791" width="16" height="7" rx="3.5" transform="rotate(-135 11.3179 162.791)" fill="#FFF4C9"/>
<rect x="11.3179" y="126.159" width="16" height="7" rx="3.5" transform="rotate(-135 11.3179 126.159)" fill="#FFCA00"/>
<rect x="11.3179" y="89.5271" width="16" height="7" rx="3.5" transform="rotate(-135 11.3179 89.5271)" fill="#FFF4C9"/>
<rect x="11.3179" y="52.8953" width="16" height="7" rx="3.5" transform="rotate(-135 11.3179 52.8953)" fill="#FFF4C9"/>
<rect x="11.3179" y="16.2634" width="16" height="7" rx="3.5" transform="rotate(-135 11.3179 16.2634)" fill="#FFF4C9"/>
</svg>
