<svg width="1200" height="600" viewBox="0 0 1200 600" fill="none" xmlns="http://www.w3.org/2000/svg">
<mask id="mask0" mask-type="alpha" maskUnits="userSpaceOnUse" x="0" y="0" width="1200" height="600">
<rect width="1200" height="600" fill="url(#paint0_linear)"/>
</mask>
<g mask="url(#mask0)">
<mask id="mask1" mask-type="alpha" maskUnits="userSpaceOnUse" x="-791" y="-1774" width="2646" height="2641">
<path fill-rule="evenodd" clip-rule="evenodd" d="M101.346 -199.462C515.065 -71.9405 953.828 -303.949 1081.35 -717.669C1159.45 -971.046 1102.7 -1233.82 951.937 -1428.73C1442.78 -1218.09 1705.68 -666.633 1544.8 -144.697C1372.61 413.944 780.15 727.224 221.509 555.032C-337.132 382.841 -650.411 -209.616 -478.22 -768.257C-468.86 -798.624 -458.258 -828.266 -446.487 -857.144C-411.246 -558.363 -204.652 -293.781 101.346 -199.462Z" fill="black"/>
</mask>
<g mask="url(#mask1)">
<g opacity="0.2">
<rect width="8" height="8" rx="3" transform="matrix(0.866025 0.5 -0.866025 0.5 675.884 40.8284)" fill="#777777"/>
<rect width="8" height="8" rx="3" transform="matrix(0.866025 0.5 -0.866025 0.5 700.133 54.8284)" fill="#777777"/>
<rect x="724.381" y="68.8284" width="9.79796" height="5.65685" rx="3" transform="rotate(90 724.381 68.8284)" fill="#131313"/>
<rect width="8" height="8" rx="3" transform="matrix(0.866025 0.5 -0.866025 0.5 748.63 82.8284)" fill="#777777"/>
<rect x="772.879" y="96.8284" width="9.79796" height="5.65685" rx="3" transform="rotate(90 772.879 96.8284)" fill="#131313"/>
<rect x="797.127" y="110.828" width="9.79796" height="5.65685" rx="3" transform="rotate(90 797.127 110.828)" fill="#131313"/>
<rect x="821.376" y="124.828" width="9.79796" height="5.65685" rx="3" transform="rotate(90 821.376 124.828)" fill="#131313"/>
<rect width="8" height="8" rx="3" transform="matrix(0.866025 0.5 -0.866025 0.5 845.625 138.828)" fill="#777777"/>
<rect x="869.874" y="152.828" width="9.79796" height="5.65685" rx="3" transform="rotate(90 869.874 152.828)" fill="#131313"/>
<rect width="8" height="8" rx="3" transform="matrix(0.866025 0.5 -0.866025 0.5 894.122 166.828)" fill="#777777"/>
<rect width="8" height="8" rx="3" transform="matrix(0.866025 0.5 -0.866025 0.5 918.371 180.828)" fill="#777777"/>
<rect x="942.62" y="194.828" width="9.79796" height="5.65685" rx="3" transform="rotate(90 942.62 194.828)" fill="#131313"/>
<rect x="966.868" y="208.828" width="9.79796" height="5.65685" rx="3" transform="rotate(90 966.868 208.828)" fill="#131313"/>
<rect width="8" height="8" rx="3" transform="matrix(0.866025 0.5 -0.866025 0.5 991.117 222.828)" fill="#777777"/>
<rect width="8" height="8" rx="3" transform="matrix(0.866025 0.5 -0.866025 0.5 1015.37 236.828)" fill="#777777"/>
<rect x="1039.61" y="250.828" width="9.79796" height="5.65685" rx="3" transform="rotate(90 1039.61 250.828)" fill="#131313"/>
<rect x="1063.86" y="264.828" width="9.79796" height="5.65685" rx="3" transform="rotate(90 1063.86 264.828)" fill="#131313"/>
<rect width="8" height="8" rx="3" transform="matrix(0.866025 0.5 -0.866025 0.5 1088.11 278.828)" fill="#777777"/>
<rect x="1112.36" y="292.828" width="9.79796" height="5.65685" rx="3" transform="rotate(90 1112.36 292.828)" fill="#131313"/>
<rect width="8" height="8" rx="3" transform="matrix(0.866025 0.5 -0.866025 0.5 1136.61 306.828)" fill="#777777"/>
<rect x="1160.86" y="320.828" width="9.79796" height="5.65685" rx="3" transform="rotate(90 1160.86 320.828)" fill="#131313"/>
<rect width="8" height="8" rx="3" transform="matrix(0.866025 0.5 -0.866025 0.5 1185.11 334.828)" fill="#777777"/>
<rect x="651.635" y="54.8284" width="9.79796" height="5.65685" rx="3" transform="rotate(90 651.635 54.8284)" fill="#131313"/>
<rect width="8" height="8" rx="3" transform="matrix(0.866025 0.5 -0.866025 0.5 675.884 68.8284)" fill="#777777"/>
<rect x="700.133" y="82.8284" width="9.79796" height="5.65685" rx="3" transform="rotate(90 700.133 82.8284)" fill="#131313"/>
<rect x="724.381" y="96.8284" width="9.79796" height="5.65685" rx="3" transform="rotate(90 724.381 96.8284)" fill="#131313"/>
<rect width="8" height="8" rx="3" transform="matrix(0.866025 0.5 -0.866025 0.5 748.63 110.828)" fill="#777777"/>
<rect width="8" height="8" rx="3" transform="matrix(0.866025 0.5 -0.866025 0.5 772.879 124.828)" fill="#777777"/>
<rect width="8" height="8" rx="3" transform="matrix(0.866025 0.5 -0.866025 0.5 797.127 138.828)" fill="#777777"/>
<rect width="8" height="8" rx="3" transform="matrix(0.866025 0.5 -0.866025 0.5 821.376 152.828)" fill="#777777"/>
<rect x="845.625" y="166.828" width="9.79796" height="5.65685" rx="3" transform="rotate(90 845.625 166.828)" fill="#131313"/>
<rect x="869.874" y="180.828" width="9.79796" height="5.65685" rx="3" transform="rotate(90 869.874 180.828)" fill="#131313"/>
<rect width="8" height="8" rx="3" transform="matrix(0.866025 0.5 -0.866025 0.5 894.122 194.828)" fill="#777777"/>
<rect width="8" height="8" rx="3" transform="matrix(0.866025 0.5 -0.866025 0.5 918.371 208.828)" fill="#777777"/>
<rect width="8" height="8" rx="3" transform="matrix(0.866025 0.5 -0.866025 0.5 942.62 222.828)" fill="#777777"/>
<rect width="8" height="8" rx="3" transform="matrix(0.866025 0.5 -0.866025 0.5 966.868 236.828)" fill="#777777"/>
<rect width="8" height="8" rx="3" transform="matrix(0.866025 0.5 -0.866025 0.5 991.117 250.828)" fill="#777777"/>
<rect x="1015.37" y="264.828" width="9.79796" height="5.65685" rx="3" transform="rotate(90 1015.37 264.828)" fill="#131313"/>
<rect x="1039.61" y="278.828" width="9.79796" height="5.65685" rx="3" transform="rotate(90 1039.61 278.828)" fill="#131313"/>
<rect width="8" height="8" rx="3" transform="matrix(0.866025 0.5 -0.866025 0.5 1063.86 292.828)" fill="#777777"/>
<rect x="1088.11" y="306.828" width="9.79796" height="5.65685" rx="3" transform="rotate(90 1088.11 306.828)" fill="#131313"/>
<rect width="8" height="8" rx="3" transform="matrix(0.866025 0.5 -0.866025 0.5 1112.36 320.828)" fill="#777777"/>
<rect x="1136.61" y="334.828" width="9.79796" height="5.65685" rx="3" transform="rotate(90 1136.61 334.828)" fill="#131313"/>
<rect width="8" height="8" rx="3" transform="matrix(0.866025 0.5 -0.866025 0.5 1160.86 348.828)" fill="#777777"/>
<rect width="8" height="8" rx="3" transform="matrix(0.866025 0.5 -0.866025 0.5 1185.11 362.828)" fill="#777777"/>
<rect width="8" height="8" rx="3" transform="matrix(0.866025 0.5 -0.866025 0.5 627.386 68.8285)" fill="#777777"/>
<rect x="651.635" y="82.8284" width="9.79796" height="5.65685" rx="3" transform="rotate(90 651.635 82.8284)" fill="#131313"/>
<rect x="675.884" y="96.8284" width="9.79796" height="5.65685" rx="3" transform="rotate(90 675.884 96.8284)" fill="#131313"/>
<rect width="8" height="8" rx="3" transform="matrix(0.866025 0.5 -0.866025 0.5 700.133 110.828)" fill="#777777"/>
<rect x="724.381" y="124.828" width="9.79796" height="5.65685" rx="3" transform="rotate(90 724.381 124.828)" fill="#131313"/>
<rect width="8" height="8" rx="3" transform="matrix(0.866025 0.5 -0.866025 0.5 748.63 138.828)" fill="#777777"/>
<rect x="772.879" y="152.828" width="9.79796" height="5.65685" rx="3" transform="rotate(90 772.879 152.828)" fill="#131313"/>
<rect x="797.127" y="166.828" width="9.79796" height="5.65685" rx="3" transform="rotate(90 797.127 166.828)" fill="#131313"/>
<rect width="8" height="8" rx="3" transform="matrix(0.866025 0.5 -0.866025 0.5 821.376 180.828)" fill="#777777"/>
<rect x="845.625" y="194.828" width="9.79796" height="5.65685" rx="3" transform="rotate(90 845.625 194.828)" fill="#131313"/>
<rect x="869.874" y="208.828" width="9.79796" height="5.65685" rx="3" transform="rotate(90 869.874 208.828)" fill="#131313"/>
<rect width="8" height="8" rx="3" transform="matrix(0.866025 0.5 -0.866025 0.5 894.122 222.828)" fill="#777777"/>
<rect width="8" height="8" rx="3" transform="matrix(0.866025 0.5 -0.866025 0.5 918.371 236.828)" fill="#777777"/>
<rect width="8" height="8" rx="3" transform="matrix(0.866025 0.5 -0.866025 0.5 942.62 250.828)" fill="#777777"/>
<rect x="966.868" y="264.828" width="9.79796" height="5.65685" rx="3" transform="rotate(90 966.868 264.828)" fill="#131313"/>
<rect x="991.117" y="278.828" width="9.79796" height="5.65685" rx="3" transform="rotate(90 991.117 278.828)" fill="#131313"/>
<rect width="8" height="8" rx="3" transform="matrix(0.866025 0.5 -0.866025 0.5 1015.37 292.828)" fill="#777777"/>
<rect x="1039.61" y="306.828" width="9.79796" height="5.65685" rx="3" transform="rotate(90 1039.61 306.828)" fill="#131313"/>
<rect x="1063.86" y="320.828" width="9.79796" height="5.65685" rx="3" transform="rotate(90 1063.86 320.828)" fill="#131313"/>
<rect width="8" height="8" rx="3" transform="matrix(0.866025 0.5 -0.866025 0.5 1088.11 334.828)" fill="#777777"/>
<rect x="1112.36" y="348.828" width="9.79796" height="5.65685" rx="3" transform="rotate(90 1112.36 348.828)" fill="#131313"/>
<rect width="8" height="8" rx="3" transform="matrix(0.866025 0.5 -0.866025 0.5 1136.61 362.828)" fill="#777777"/>
<rect x="1160.86" y="376.828" width="9.79796" height="5.65685" rx="3" transform="rotate(90 1160.86 376.828)" fill="#131313"/>
<rect width="8" height="8" rx="3" transform="matrix(0.866025 0.5 -0.866025 0.5 1185.11 390.828)" fill="#777777"/>
<rect width="8" height="8" rx="3" transform="matrix(0.866025 0.5 -0.866025 0.5 603.138 82.8285)" fill="#777777"/>
<rect width="8" height="8" rx="3" transform="matrix(0.866025 0.5 -0.866025 0.5 627.386 96.8285)" fill="#777777"/>
<rect width="8" height="8" rx="3" transform="matrix(0.866025 0.5 -0.866025 0.5 651.635 110.828)" fill="#777777"/>
<rect x="675.884" y="124.828" width="9.79796" height="5.65685" rx="3" transform="rotate(90 675.884 124.828)" fill="#131313"/>
<rect width="8" height="8" rx="3" transform="matrix(0.866025 0.5 -0.866025 0.5 700.133 138.828)" fill="#777777"/>
<rect width="8" height="8" rx="3" transform="matrix(0.866025 0.5 -0.866025 0.5 724.381 152.828)" fill="#777777"/>
<rect width="8" height="8" rx="3" transform="matrix(0.866025 0.5 -0.866025 0.5 748.63 166.828)" fill="#777777"/>
<rect x="772.879" y="180.828" width="9.79796" height="5.65685" rx="3" transform="rotate(90 772.879 180.828)" fill="#131313"/>
<rect x="797.127" y="194.828" width="9.79796" height="5.65685" rx="3" transform="rotate(90 797.127 194.828)" fill="#131313"/>
<rect x="821.376" y="208.828" width="9.79796" height="5.65685" rx="3" transform="rotate(90 821.376 208.828)" fill="#131313"/>
<rect x="845.625" y="222.828" width="9.79796" height="5.65685" rx="3" transform="rotate(90 845.625 222.828)" fill="#131313"/>
<rect width="8" height="8" rx="3" transform="matrix(0.866025 0.5 -0.866025 0.5 869.874 236.828)" fill="#777777"/>
<rect width="8" height="8" rx="3" transform="matrix(0.866025 0.5 -0.866025 0.5 894.122 250.828)" fill="#777777"/>
<rect x="918.371" y="264.828" width="9.79796" height="5.65685" rx="3" transform="rotate(90 918.371 264.828)" fill="#131313"/>
<rect x="942.62" y="278.828" width="9.79796" height="5.65685" rx="3" transform="rotate(90 942.62 278.828)" fill="#131313"/>
<rect width="8" height="8" rx="3" transform="matrix(0.866025 0.5 -0.866025 0.5 966.868 292.828)" fill="#777777"/>
<rect width="8" height="8" rx="3" transform="matrix(0.866025 0.5 -0.866025 0.5 991.117 306.828)" fill="#777777"/>
<rect width="8" height="8" rx="3" transform="matrix(0.866025 0.5 -0.866025 0.5 1015.37 320.828)" fill="#777777"/>
<rect x="1039.61" y="334.828" width="9.79796" height="5.65685" rx="3" transform="rotate(90 1039.61 334.828)" fill="#131313"/>
<rect width="8" height="8" rx="3" transform="matrix(0.866025 0.5 -0.866025 0.5 1063.86 348.828)" fill="#777777"/>
<rect width="8" height="8" rx="3" transform="matrix(0.866025 0.5 -0.866025 0.5 1088.11 362.828)" fill="#777777"/>
<rect x="1112.36" y="376.828" width="9.79796" height="5.65685" rx="3" transform="rotate(90 1112.36 376.828)" fill="#131313"/>
<rect width="8" height="8" rx="3" transform="matrix(0.866025 0.5 -0.866025 0.5 1136.61 390.828)" fill="#777777"/>
<rect x="1160.86" y="404.828" width="9.79796" height="5.65685" rx="3" transform="rotate(90 1160.86 404.828)" fill="#131313"/>
<rect width="8" height="8" rx="3" transform="matrix(0.866025 0.5 -0.866025 0.5 1185.11 418.828)" fill="#777777"/>
<rect width="8" height="8" rx="3" transform="matrix(0.866025 0.5 -0.866025 0.5 578.889 96.8285)" fill="#777777"/>
<rect x="603.138" y="110.828" width="9.79796" height="5.65685" rx="3" transform="rotate(90 603.138 110.828)" fill="#131313"/>
<rect width="8" height="8" rx="3" transform="matrix(0.866025 0.5 -0.866025 0.5 627.386 124.828)" fill="#777777"/>
<rect x="651.635" y="138.828" width="9.79796" height="5.65685" rx="3" transform="rotate(90 651.635 138.828)" fill="#131313"/>
<rect width="8" height="8" rx="3" transform="matrix(0.866025 0.5 -0.866025 0.5 675.884 152.828)" fill="#777777"/>
<rect width="8" height="8" rx="3" transform="matrix(0.866025 0.5 -0.866025 0.5 700.133 166.828)" fill="#777777"/>
<rect x="724.381" y="180.828" width="9.79796" height="5.65685" rx="3" transform="rotate(90 724.381 180.828)" fill="#131313"/>
<rect width="8" height="8" rx="3" transform="matrix(0.866025 0.5 -0.866025 0.5 748.63 194.828)" fill="#777777"/>
<rect x="772.879" y="208.828" width="9.79796" height="5.65685" rx="3" transform="rotate(90 772.879 208.828)" fill="#131313"/>
<rect x="797.127" y="222.828" width="9.79796" height="5.65685" rx="3" transform="rotate(90 797.127 222.828)" fill="#131313"/>
<rect width="8" height="8" rx="3" transform="matrix(0.866025 0.5 -0.866025 0.5 821.376 236.828)" fill="#777777"/>
<rect width="8" height="8" rx="3" transform="matrix(0.866025 0.5 -0.866025 0.5 845.625 250.828)" fill="#777777"/>
<rect x="869.874" y="264.828" width="9.79796" height="5.65685" rx="3" transform="rotate(90 869.874 264.828)" fill="#131313"/>
<rect x="894.122" y="278.828" width="9.79796" height="5.65685" rx="3" transform="rotate(90 894.122 278.828)" fill="#131313"/>
<rect width="8" height="8" rx="3" transform="matrix(0.866025 0.5 -0.866025 0.5 918.371 292.828)" fill="#777777"/>
<rect width="8" height="8" rx="3" transform="matrix(0.866025 0.5 -0.866025 0.5 942.62 306.828)" fill="#777777"/>
<rect x="966.868" y="320.828" width="9.79796" height="5.65685" rx="3" transform="rotate(90 966.868 320.828)" fill="#131313"/>
<rect x="991.117" y="334.828" width="9.79796" height="5.65685" rx="3" transform="rotate(90 991.117 334.828)" fill="#131313"/>
<rect width="8" height="8" rx="3" transform="matrix(0.866025 0.5 -0.866025 0.5 1015.37 348.828)" fill="#777777"/>
<rect width="8" height="8" rx="3" transform="matrix(0.866025 0.5 -0.866025 0.5 1039.61 362.828)" fill="#777777"/>
<rect x="1063.86" y="376.828" width="9.79796" height="5.65685" rx="3" transform="rotate(90 1063.86 376.828)" fill="#131313"/>
<rect x="1088.11" y="390.828" width="9.79796" height="5.65685" rx="3" transform="rotate(90 1088.11 390.828)" fill="#131313"/>
<rect width="8" height="8" rx="3" transform="matrix(0.866025 0.5 -0.866025 0.5 1112.36 404.828)" fill="#777777"/>
<rect x="1136.61" y="418.828" width="9.79796" height="5.65685" rx="3" transform="rotate(90 1136.61 418.828)" fill="#131313"/>
<rect width="8" height="8" rx="3" transform="matrix(0.866025 0.5 -0.866025 0.5 1160.86 432.828)" fill="#777777"/>
<rect x="1185.11" y="446.828" width="9.79796" height="5.65685" rx="3" transform="rotate(90 1185.11 446.828)" fill="#131313"/>
<rect width="8" height="8" rx="3" transform="matrix(0.866025 0.5 -0.866025 0.5 554.64 110.828)" fill="#777777"/>
<rect x="578.889" y="124.828" width="9.79796" height="5.65685" rx="3" transform="rotate(90 578.889 124.828)" fill="#131313"/>
<rect width="8" height="8" rx="3" transform="matrix(0.866025 0.5 -0.866025 0.5 603.138 138.828)" fill="#777777"/>
<rect width="8" height="8" rx="3" transform="matrix(0.866025 0.5 -0.866025 0.5 627.386 152.828)" fill="#777777"/>
<rect x="651.635" y="166.828" width="9.79796" height="5.65685" rx="3" transform="rotate(90 651.635 166.828)" fill="#131313"/>
<rect width="8" height="8" rx="3" transform="matrix(0.866025 0.5 -0.866025 0.5 675.884 180.828)" fill="#777777"/>
<rect x="700.133" y="194.828" width="9.79796" height="5.65685" rx="3" transform="rotate(90 700.133 194.828)" fill="#131313"/>
<rect x="724.381" y="208.828" width="9.79796" height="5.65685" rx="3" transform="rotate(90 724.381 208.828)" fill="#131313"/>
<rect x="748.63" y="222.828" width="9.79796" height="5.65685" rx="3" transform="rotate(90 748.63 222.828)" fill="#131313"/>
<rect width="8" height="8" rx="3" transform="matrix(0.866025 0.5 -0.866025 0.5 772.879 236.828)" fill="#777777"/>
<rect x="797.127" y="250.828" width="9.79796" height="5.65685" rx="3" transform="rotate(90 797.127 250.828)" fill="#131313"/>
<rect width="8" height="8" rx="3" transform="matrix(0.866025 0.5 -0.866025 0.5 821.376 264.828)" fill="#777777"/>
<rect x="845.625" y="278.828" width="9.79796" height="5.65685" rx="3" transform="rotate(90 845.625 278.828)" fill="#131313"/>
<rect x="869.874" y="292.828" width="9.79796" height="5.65685" rx="3" transform="rotate(90 869.874 292.828)" fill="#131313"/>
<rect x="894.122" y="306.828" width="9.79796" height="5.65685" rx="3" transform="rotate(90 894.122 306.828)" fill="#131313"/>
<rect x="918.371" y="320.828" width="9.79796" height="5.65685" rx="3" transform="rotate(90 918.371 320.828)" fill="#131313"/>
<rect x="942.62" y="334.828" width="9.79796" height="5.65685" rx="3" transform="rotate(90 942.62 334.828)" fill="#131313"/>
<rect x="966.868" y="348.828" width="9.79796" height="5.65685" rx="3" transform="rotate(90 966.868 348.828)" fill="#131313"/>
<rect x="991.117" y="362.828" width="9.79796" height="5.65685" rx="3" transform="rotate(90 991.117 362.828)" fill="#131313"/>
<rect width="8" height="8" rx="3" transform="matrix(0.866025 0.5 -0.866025 0.5 1015.37 376.828)" fill="#777777"/>
<rect x="1039.61" y="390.828" width="9.79796" height="5.65685" rx="3" transform="rotate(90 1039.61 390.828)" fill="#131313"/>
<rect width="8" height="8" rx="3" transform="matrix(0.866025 0.5 -0.866025 0.5 1063.86 404.828)" fill="#777777"/>
<rect width="8" height="8" rx="3" transform="matrix(0.866025 0.5 -0.866025 0.5 1088.11 418.828)" fill="#777777"/>
<rect width="8" height="8" rx="3" transform="matrix(0.866025 0.5 -0.866025 0.5 1112.36 432.828)" fill="#777777"/>
<rect width="8" height="8" rx="3" transform="matrix(0.866025 0.5 -0.866025 0.5 1136.61 446.828)" fill="#777777"/>
<rect width="8" height="8" rx="3" transform="matrix(0.866025 0.5 -0.866025 0.5 1160.86 460.828)" fill="#777777"/>
<rect x="1185.11" y="474.828" width="9.79796" height="5.65685" rx="3" transform="rotate(90 1185.11 474.828)" fill="#131313"/>
<rect x="1209.36" y="488.828" width="9.79796" height="5.65685" rx="3" transform="rotate(90 1209.36 488.828)" fill="#131313"/>
<rect x="530.392" y="124.828" width="9.79796" height="5.65685" rx="3" transform="rotate(90 530.392 124.828)" fill="#131313"/>
<rect width="8" height="8" rx="3" transform="matrix(0.866025 0.5 -0.866025 0.5 554.64 138.828)" fill="#777777"/>
<rect x="578.889" y="152.828" width="9.79796" height="5.65685" rx="3" transform="rotate(90 578.889 152.828)" fill="#131313"/>
<rect width="8" height="8" rx="3" transform="matrix(0.866025 0.5 -0.866025 0.5 603.138 166.828)" fill="#777777"/>
<rect x="627.386" y="180.828" width="9.79796" height="5.65685" rx="3" transform="rotate(90 627.386 180.828)" fill="#131313"/>
<rect x="651.635" y="194.828" width="9.79796" height="5.65685" rx="3" transform="rotate(90 651.635 194.828)" fill="#131313"/>
<rect width="8" height="8" rx="3" transform="matrix(0.866025 0.5 -0.866025 0.5 675.884 208.828)" fill="#777777"/>
<rect x="700.133" y="222.828" width="9.79796" height="5.65685" rx="3" transform="rotate(90 700.133 222.828)" fill="#131313"/>
<rect x="724.381" y="236.828" width="9.79796" height="5.65685" rx="3" transform="rotate(90 724.381 236.828)" fill="#131313"/>
<rect width="8" height="8" rx="3" transform="matrix(0.866025 0.5 -0.866025 0.5 748.63 250.828)" fill="#777777"/>
<rect x="772.879" y="264.828" width="9.79796" height="5.65685" rx="3" transform="rotate(90 772.879 264.828)" fill="#131313"/>
<rect x="797.127" y="278.828" width="9.79796" height="5.65685" rx="3" transform="rotate(90 797.127 278.828)" fill="#131313"/>
<rect x="821.376" y="292.828" width="9.79796" height="5.65685" rx="3" transform="rotate(90 821.376 292.828)" fill="#131313"/>
<rect width="8" height="8" rx="3" transform="matrix(0.866025 0.5 -0.866025 0.5 845.625 306.828)" fill="#777777"/>
<rect width="8" height="8" rx="3" transform="matrix(0.866025 0.5 -0.866025 0.5 869.874 320.828)" fill="#777777"/>
<rect x="894.122" y="334.828" width="9.79796" height="5.65685" rx="3" transform="rotate(90 894.122 334.828)" fill="#131313"/>
<rect width="8" height="8" rx="3" transform="matrix(0.866025 0.5 -0.866025 0.5 918.371 348.828)" fill="#777777"/>
<rect width="8" height="8" rx="3" transform="matrix(0.866025 0.5 -0.866025 0.5 942.62 362.828)" fill="#777777"/>
<rect x="966.868" y="376.828" width="9.79796" height="5.65685" rx="3" transform="rotate(90 966.868 376.828)" fill="#131313"/>
<rect x="991.117" y="390.828" width="9.79796" height="5.65685" rx="3" transform="rotate(90 991.117 390.828)" fill="#131313"/>
<rect x="1015.37" y="404.828" width="9.79796" height="5.65685" rx="3" transform="rotate(90 1015.37 404.828)" fill="#131313"/>
<rect width="8" height="8" rx="3" transform="matrix(0.866025 0.5 -0.866025 0.5 1039.61 418.828)" fill="#777777"/>
<rect x="1063.86" y="432.828" width="9.79796" height="5.65685" rx="3" transform="rotate(90 1063.86 432.828)" fill="#131313"/>
<rect width="8" height="8" rx="3" transform="matrix(0.866025 0.5 -0.866025 0.5 1088.11 446.828)" fill="#777777"/>
<rect x="1112.36" y="460.828" width="9.79796" height="5.65685" rx="3" transform="rotate(90 1112.36 460.828)" fill="#131313"/>
<rect x="1136.61" y="474.828" width="9.79796" height="5.65685" rx="3" transform="rotate(90 1136.61 474.828)" fill="#131313"/>
<rect width="8" height="8" rx="3" transform="matrix(0.866025 0.5 -0.866025 0.5 1160.86 488.828)" fill="#777777"/>
<rect x="1185.11" y="502.828" width="9.79796" height="5.65685" rx="3" transform="rotate(90 1185.11 502.828)" fill="#131313"/>
<rect x="506.143" y="138.828" width="9.79796" height="5.65685" rx="3" transform="rotate(90 506.143 138.828)" fill="#131313"/>
<rect x="530.392" y="152.828" width="9.79796" height="5.65685" rx="3" transform="rotate(90 530.392 152.828)" fill="#131313"/>
<rect x="554.64" y="166.828" width="9.79796" height="5.65685" rx="3" transform="rotate(90 554.64 166.828)" fill="#131313"/>
<rect width="8" height="8" rx="3" transform="matrix(0.866025 0.5 -0.866025 0.5 578.889 180.828)" fill="#777777"/>
<rect x="603.138" y="194.828" width="9.79796" height="5.65685" rx="3" transform="rotate(90 603.138 194.828)" fill="#131313"/>
<rect width="8" height="8" rx="3" transform="matrix(0.866025 0.5 -0.866025 0.5 627.386 208.828)" fill="#777777"/>
<rect x="651.635" y="222.828" width="9.79796" height="5.65685" rx="3" transform="rotate(90 651.635 222.828)" fill="#131313"/>
<rect x="675.884" y="236.828" width="9.79796" height="5.65685" rx="3" transform="rotate(90 675.884 236.828)" fill="#131313"/>
<rect x="700.133" y="250.828" width="9.79796" height="5.65685" rx="3" transform="rotate(90 700.133 250.828)" fill="#131313"/>
<rect width="8" height="8" rx="3" transform="matrix(0.866025 0.5 -0.866025 0.5 724.381 264.828)" fill="#777777"/>
<rect x="748.63" y="278.828" width="9.79796" height="5.65685" rx="3" transform="rotate(90 748.63 278.828)" fill="#131313"/>
<rect x="772.879" y="292.828" width="9.79796" height="5.65685" rx="3" transform="rotate(90 772.879 292.828)" fill="#131313"/>
<rect x="797.127" y="306.828" width="9.79796" height="5.65685" rx="3" transform="rotate(90 797.127 306.828)" fill="#131313"/>
<rect x="821.376" y="320.828" width="9.79796" height="5.65685" rx="3" transform="rotate(90 821.376 320.828)" fill="#131313"/>
<rect width="8" height="8" rx="3" transform="matrix(0.866025 0.5 -0.866025 0.5 845.625 334.828)" fill="#777777"/>
<rect width="8" height="8" rx="3" transform="matrix(0.866025 0.5 -0.866025 0.5 869.874 348.828)" fill="#777777"/>
<rect x="894.122" y="362.828" width="9.79796" height="5.65685" rx="3" transform="rotate(90 894.122 362.828)" fill="#131313"/>
<rect width="8" height="8" rx="3" transform="matrix(0.866025 0.5 -0.866025 0.5 918.371 376.828)" fill="#777777"/>
<rect width="8" height="8" rx="3" transform="matrix(0.866025 0.5 -0.866025 0.5 942.62 390.828)" fill="#777777"/>
<rect x="966.868" y="404.828" width="9.79796" height="5.65685" rx="3" transform="rotate(90 966.868 404.828)" fill="#131313"/>
<rect x="991.117" y="418.828" width="9.79796" height="5.65685" rx="3" transform="rotate(90 991.117 418.828)" fill="#131313"/>
<rect x="1015.37" y="432.828" width="9.79796" height="5.65685" rx="3" transform="rotate(90 1015.37 432.828)" fill="#131313"/>
<rect x="1039.61" y="446.828" width="9.79796" height="5.65685" rx="3" transform="rotate(90 1039.61 446.828)" fill="#131313"/>
<rect x="1063.86" y="460.828" width="9.79796" height="5.65685" rx="3" transform="rotate(90 1063.86 460.828)" fill="#131313"/>
<rect width="8" height="8" rx="3" transform="matrix(0.866025 0.5 -0.866025 0.5 1088.11 474.828)" fill="#777777"/>
<rect x="1112.36" y="488.828" width="9.79796" height="5.65685" rx="3" transform="rotate(90 1112.36 488.828)" fill="#131313"/>
<rect x="1136.61" y="502.828" width="9.79796" height="5.65685" rx="3" transform="rotate(90 1136.61 502.828)" fill="#131313"/>
<rect x="1160.86" y="516.828" width="9.79796" height="5.65685" rx="3" transform="rotate(90 1160.86 516.828)" fill="#131313"/>
<rect x="1185.11" y="530.828" width="9.79796" height="5.65685" rx="3" transform="rotate(90 1185.11 530.828)" fill="#131313"/>
<rect x="1209.36" y="544.828" width="9.79796" height="5.65685" rx="3" transform="rotate(90 1209.36 544.828)" fill="#131313"/>
<rect width="8" height="8" rx="3" transform="matrix(0.866025 0.5 -0.866025 0.5 481.894 152.828)" fill="#777777"/>
<rect x="506.143" y="166.828" width="9.79796" height="5.65685" rx="3" transform="rotate(90 506.143 166.828)" fill="#131313"/>
<rect x="530.392" y="180.828" width="9.79796" height="5.65685" rx="3" transform="rotate(90 530.392 180.828)" fill="#131313"/>
<rect x="554.64" y="194.828" width="9.79796" height="5.65685" rx="3" transform="rotate(90 554.64 194.828)" fill="#131313"/>
<rect width="8" height="8" rx="3" transform="matrix(0.866025 0.5 -0.866025 0.5 578.889 208.828)" fill="#777777"/>
<rect x="603.138" y="222.828" width="9.79796" height="5.65685" rx="3" transform="rotate(90 603.138 222.828)" fill="#131313"/>
<rect width="8" height="8" rx="3" transform="matrix(0.866025 0.5 -0.866025 0.5 627.386 236.828)" fill="#777777"/>
<rect x="651.635" y="250.828" width="9.79796" height="5.65685" rx="3" transform="rotate(90 651.635 250.828)" fill="#131313"/>
<rect x="675.884" y="264.828" width="9.79796" height="5.65685" rx="3" transform="rotate(90 675.884 264.828)" fill="#131313"/>
<rect width="8" height="8" rx="3" transform="matrix(0.866025 0.5 -0.866025 0.5 700.133 278.828)" fill="#777777"/>
<rect width="8" height="8" rx="3" transform="matrix(0.866025 0.5 -0.866025 0.5 724.381 292.828)" fill="#777777"/>
<rect x="748.63" y="306.828" width="9.79796" height="5.65685" rx="3" transform="rotate(90 748.63 306.828)" fill="#131313"/>
<rect x="772.879" y="320.828" width="9.79796" height="5.65685" rx="3" transform="rotate(90 772.879 320.828)" fill="#131313"/>
<rect width="8" height="8" rx="3" transform="matrix(0.866025 0.5 -0.866025 0.5 797.127 334.828)" fill="#777777"/>
<rect width="8" height="8" rx="3" transform="matrix(0.866025 0.5 -0.866025 0.5 821.376 348.828)" fill="#777777"/>
<rect x="845.625" y="362.828" width="9.79796" height="5.65685" rx="3" transform="rotate(90 845.625 362.828)" fill="#131313"/>
<rect width="8" height="8" rx="3" transform="matrix(0.866025 0.5 -0.866025 0.5 869.874 376.828)" fill="#777777"/>
<rect width="8" height="8" rx="3" transform="matrix(0.866025 0.5 -0.866025 0.5 894.122 390.828)" fill="#777777"/>
<rect width="8" height="8" rx="3" transform="matrix(0.866025 0.5 -0.866025 0.5 918.371 404.828)" fill="#777777"/>
<rect x="942.62" y="418.828" width="9.79796" height="5.65685" rx="3" transform="rotate(90 942.62 418.828)" fill="#131313"/>
<rect x="966.868" y="432.828" width="9.79796" height="5.65685" rx="3" transform="rotate(90 966.868 432.828)" fill="#131313"/>
<rect width="8" height="8" rx="3" transform="matrix(0.866025 0.5 -0.866025 0.5 991.117 446.828)" fill="#777777"/>
<rect x="1015.37" y="460.828" width="9.79796" height="5.65685" rx="3" transform="rotate(90 1015.37 460.828)" fill="#131313"/>
<rect x="1039.61" y="474.828" width="9.79796" height="5.65685" rx="3" transform="rotate(90 1039.61 474.828)" fill="#131313"/>
<rect width="8" height="8" rx="3" transform="matrix(0.866025 0.5 -0.866025 0.5 1063.86 488.828)" fill="#777777"/>
<rect width="8" height="8" rx="3" transform="matrix(0.866025 0.5 -0.866025 0.5 1088.11 502.828)" fill="#777777"/>
<rect x="1112.36" y="516.828" width="9.79796" height="5.65685" rx="3" transform="rotate(90 1112.36 516.828)" fill="#131313"/>
<rect x="1136.61" y="530.828" width="9.79796" height="5.65685" rx="3" transform="rotate(90 1136.61 530.828)" fill="#131313"/>
<rect width="8" height="8" rx="3" transform="matrix(0.866025 0.5 -0.866025 0.5 1160.86 544.828)" fill="#777777"/>
<rect width="8" height="8" rx="3" transform="matrix(0.866025 0.5 -0.866025 0.5 1185.11 558.828)" fill="#777777"/>
<rect width="8" height="8" rx="3" transform="matrix(0.866025 0.5 -0.866025 0.5 457.646 166.828)" fill="#777777"/>
<rect width="8" height="8" rx="3" transform="matrix(0.866025 0.5 -0.866025 0.5 481.894 180.828)" fill="#777777"/>
<rect x="506.143" y="194.828" width="9.79796" height="5.65685" rx="3" transform="rotate(90 506.143 194.828)" fill="#131313"/>
<rect width="8" height="8" rx="3" transform="matrix(0.866025 0.5 -0.866025 0.5 530.392 208.828)" fill="#777777"/>
<rect width="8" height="8" rx="3" transform="matrix(0.866025 0.5 -0.866025 0.5 554.64 222.828)" fill="#777777"/>
<rect x="578.889" y="236.828" width="9.79796" height="5.65685" rx="3" transform="rotate(90 578.889 236.828)" fill="#131313"/>
<rect width="8" height="8" rx="3" transform="matrix(0.866025 0.5 -0.866025 0.5 603.138 250.828)" fill="#777777"/>
<rect x="627.386" y="264.828" width="9.79796" height="5.65685" rx="3" transform="rotate(90 627.386 264.828)" fill="#131313"/>
<rect width="8" height="8" rx="3" transform="matrix(0.866025 0.5 -0.866025 0.5 651.635 278.828)" fill="#777777"/>
<rect x="675.884" y="292.828" width="9.79796" height="5.65685" rx="3" transform="rotate(90 675.884 292.828)" fill="#131313"/>
<rect width="8" height="8" rx="3" transform="matrix(0.866025 0.5 -0.866025 0.5 700.133 306.828)" fill="#777777"/>
<rect x="724.381" y="320.828" width="9.79796" height="5.65685" rx="3" transform="rotate(90 724.381 320.828)" fill="#131313"/>
<rect width="8" height="8" rx="3" transform="matrix(0.866025 0.5 -0.866025 0.5 748.63 334.828)" fill="#777777"/>
<rect x="772.879" y="348.828" width="9.79796" height="5.65685" rx="3" transform="rotate(90 772.879 348.828)" fill="#131313"/>
<rect width="8" height="8" rx="3" transform="matrix(0.866025 0.5 -0.866025 0.5 797.127 362.828)" fill="#777777"/>
<rect width="8" height="8" rx="3" transform="matrix(0.866025 0.5 -0.866025 0.5 821.376 376.828)" fill="#777777"/>
<rect width="8" height="8" rx="3" transform="matrix(0.866025 0.5 -0.866025 0.5 845.625 390.828)" fill="#777777"/>
<rect width="8" height="8" rx="3" transform="matrix(0.866025 0.5 -0.866025 0.5 869.874 404.828)" fill="#777777"/>
<rect x="894.122" y="418.828" width="9.79796" height="5.65685" rx="3" transform="rotate(90 894.122 418.828)" fill="#131313"/>
<rect width="8" height="8" rx="3" transform="matrix(0.866025 0.5 -0.866025 0.5 918.371 432.828)" fill="#777777"/>
<rect width="8" height="8" rx="3" transform="matrix(0.866025 0.5 -0.866025 0.5 942.62 446.828)" fill="#777777"/>
<rect width="8" height="8" rx="3" transform="matrix(0.866025 0.5 -0.866025 0.5 966.868 460.828)" fill="#777777"/>
<rect x="991.117" y="474.828" width="9.79796" height="5.65685" rx="3" transform="rotate(90 991.117 474.828)" fill="#131313"/>
<rect width="8" height="8" rx="3" transform="matrix(0.866025 0.5 -0.866025 0.5 1015.37 488.828)" fill="#777777"/>
<rect width="8" height="8" rx="3" transform="matrix(0.866025 0.5 -0.866025 0.5 1039.61 502.828)" fill="#777777"/>
<rect width="8" height="8" rx="3" transform="matrix(0.866025 0.5 -0.866025 0.5 1063.86 516.828)" fill="#777777"/>
<rect width="8" height="8" rx="3" transform="matrix(0.866025 0.5 -0.866025 0.5 1088.11 530.828)" fill="#777777"/>
<rect width="8" height="8" rx="3" transform="matrix(0.866025 0.5 -0.866025 0.5 1112.36 544.828)" fill="#777777"/>
<rect x="1136.61" y="558.828" width="9.79796" height="5.65685" rx="3" transform="rotate(90 1136.61 558.828)" fill="#131313"/>
<rect x="1160.86" y="572.828" width="9.79796" height="5.65685" rx="3" transform="rotate(90 1160.86 572.828)" fill="#131313"/>
<rect x="1185.11" y="586.828" width="9.79796" height="5.65685" rx="3" transform="rotate(90 1185.11 586.828)" fill="#131313"/>
<rect x="433.397" y="180.828" width="9.79796" height="5.65685" rx="3" transform="rotate(90 433.397 180.828)" fill="#131313"/>
<rect width="8" height="8" rx="3" transform="matrix(0.866025 0.5 -0.866025 0.5 457.646 194.828)" fill="#777777"/>
<rect x="481.894" y="208.828" width="9.79796" height="5.65685" rx="3" transform="rotate(90 481.894 208.828)" fill="#131313"/>
<rect x="506.143" y="222.828" width="9.79796" height="5.65685" rx="3" transform="rotate(90 506.143 222.828)" fill="#131313"/>
<rect width="8" height="8" rx="3" transform="matrix(0.866025 0.5 -0.866025 0.5 530.392 236.828)" fill="#777777"/>
<rect width="8" height="8" rx="3" transform="matrix(0.866025 0.5 -0.866025 0.5 554.64 250.828)" fill="#777777"/>
<rect width="8" height="8" rx="3" transform="matrix(0.866025 0.5 -0.866025 0.5 578.889 264.828)" fill="#777777"/>
<rect width="8" height="8" rx="3" transform="matrix(0.866025 0.5 -0.866025 0.5 603.138 278.828)" fill="#777777"/>
<rect x="627.386" y="292.828" width="9.79796" height="5.65685" rx="3" transform="rotate(90 627.386 292.828)" fill="#131313"/>
<rect width="8" height="8" rx="3" transform="matrix(0.866025 0.5 -0.866025 0.5 651.635 306.828)" fill="#777777"/>
<rect width="8" height="8" rx="3" transform="matrix(0.866025 0.5 -0.866025 0.5 675.884 320.828)" fill="#777777"/>
<rect x="700.133" y="334.828" width="9.79796" height="5.65685" rx="3" transform="rotate(90 700.133 334.828)" fill="#131313"/>
<rect x="724.381" y="348.828" width="9.79796" height="5.65685" rx="3" transform="rotate(90 724.381 348.828)" fill="#131313"/>
<rect width="8" height="8" rx="3" transform="matrix(0.866025 0.5 -0.866025 0.5 748.63 362.828)" fill="#777777"/>
<rect x="772.879" y="376.828" width="9.79796" height="5.65685" rx="3" transform="rotate(90 772.879 376.828)" fill="#131313"/>
<rect x="797.127" y="390.828" width="9.79796" height="5.65685" rx="3" transform="rotate(90 797.127 390.828)" fill="#131313"/>
<rect x="821.376" y="404.828" width="9.79796" height="5.65685" rx="3" transform="rotate(90 821.376 404.828)" fill="#131313"/>
<rect width="8" height="8" rx="3" transform="matrix(0.866025 0.5 -0.866025 0.5 845.625 418.828)" fill="#777777"/>
<rect x="869.874" y="432.828" width="9.79796" height="5.65685" rx="3" transform="rotate(90 869.874 432.828)" fill="#131313"/>
<rect x="894.122" y="446.828" width="9.79796" height="5.65685" rx="3" transform="rotate(90 894.122 446.828)" fill="#131313"/>
<rect x="918.371" y="460.828" width="9.79796" height="5.65685" rx="3" transform="rotate(90 918.371 460.828)" fill="#131313"/>
<rect width="8" height="8" rx="3" transform="matrix(0.866025 0.5 -0.866025 0.5 942.62 474.828)" fill="#777777"/>
<rect x="966.868" y="488.828" width="9.79796" height="5.65685" rx="3" transform="rotate(90 966.868 488.828)" fill="#131313"/>
<rect x="991.117" y="502.828" width="9.79796" height="5.65685" rx="3" transform="rotate(90 991.117 502.828)" fill="#131313"/>
<rect width="8" height="8" rx="3" transform="matrix(0.866025 0.5 -0.866025 0.5 1015.37 516.828)" fill="#777777"/>
<rect width="8" height="8" rx="3" transform="matrix(0.866025 0.5 -0.866025 0.5 1039.61 530.828)" fill="#777777"/>
<rect x="1063.86" y="544.828" width="9.79796" height="5.65685" rx="3" transform="rotate(90 1063.86 544.828)" fill="#131313"/>
<rect width="8" height="8" rx="3" transform="matrix(0.866025 0.5 -0.866025 0.5 1088.11 558.828)" fill="#777777"/>
<rect x="1112.36" y="572.828" width="9.79796" height="5.65685" rx="3" transform="rotate(90 1112.36 572.828)" fill="#131313"/>
<rect x="1136.61" y="586.828" width="9.79796" height="5.65685" rx="3" transform="rotate(90 1136.61 586.828)" fill="#131313"/>
<rect x="409.148" y="194.828" width="9.79796" height="5.65685" rx="3" transform="rotate(90 409.148 194.828)" fill="#131313"/>
<rect width="8" height="8" rx="3" transform="matrix(0.866025 0.5 -0.866025 0.5 433.397 208.828)" fill="#777777"/>
<rect x="457.646" y="222.828" width="9.79796" height="5.65685" rx="3" transform="rotate(90 457.646 222.828)" fill="#131313"/>
<rect width="8" height="8" rx="3" transform="matrix(0.866025 0.5 -0.866025 0.5 481.894 236.828)" fill="#777777"/>
<rect x="506.143" y="250.828" width="9.79796" height="5.65685" rx="3" transform="rotate(90 506.143 250.828)" fill="#131313"/>
<rect width="8" height="8" rx="3" transform="matrix(0.866025 0.5 -0.866025 0.5 530.392 264.828)" fill="#777777"/>
<rect x="554.64" y="278.828" width="9.79796" height="5.65685" rx="3" transform="rotate(90 554.64 278.828)" fill="#131313"/>
<rect x="578.889" y="292.828" width="9.79796" height="5.65685" rx="3" transform="rotate(90 578.889 292.828)" fill="#131313"/>
<rect width="8" height="8" rx="3" transform="matrix(0.866025 0.5 -0.866025 0.5 603.138 306.828)" fill="#777777"/>
<rect x="627.386" y="320.828" width="9.79796" height="5.65685" rx="3" transform="rotate(90 627.386 320.828)" fill="#131313"/>
<rect width="8" height="8" rx="3" transform="matrix(0.866025 0.5 -0.866025 0.5 651.635 334.828)" fill="#777777"/>
<rect width="8" height="8" rx="3" transform="matrix(0.866025 0.5 -0.866025 0.5 675.884 348.828)" fill="#777777"/>
<rect width="8" height="8" rx="3" transform="matrix(0.866025 0.5 -0.866025 0.5 700.133 362.828)" fill="#777777"/>
<rect width="8" height="8" rx="3" transform="matrix(0.866025 0.5 -0.866025 0.5 724.381 376.828)" fill="#777777"/>
<rect width="8" height="8" rx="3" transform="matrix(0.866025 0.5 -0.866025 0.5 748.63 390.828)" fill="#777777"/>
<rect width="8" height="8" rx="3" transform="matrix(0.866025 0.5 -0.866025 0.5 772.879 404.828)" fill="#777777"/>
<rect width="8" height="8" rx="3" transform="matrix(0.866025 0.5 -0.866025 0.5 797.127 418.828)" fill="#777777"/>
<rect x="821.376" y="432.828" width="9.79796" height="5.65685" rx="3" transform="rotate(90 821.376 432.828)" fill="#131313"/>
<rect x="845.625" y="446.828" width="9.79796" height="5.65685" rx="3" transform="rotate(90 845.625 446.828)" fill="#131313"/>
<rect x="869.874" y="460.828" width="9.79796" height="5.65685" rx="3" transform="rotate(90 869.874 460.828)" fill="#131313"/>
<rect width="8" height="8" rx="3" transform="matrix(0.866025 0.5 -0.866025 0.5 894.122 474.828)" fill="#777777"/>
<rect x="918.371" y="488.828" width="9.79796" height="5.65685" rx="3" transform="rotate(90 918.371 488.828)" fill="#131313"/>
<rect width="8" height="8" rx="3" transform="matrix(0.866025 0.5 -0.866025 0.5 942.62 502.828)" fill="#777777"/>
<rect width="8" height="8" rx="3" transform="matrix(0.866025 0.5 -0.866025 0.5 966.868 516.828)" fill="#777777"/>
<rect width="8" height="8" rx="3" transform="matrix(0.866025 0.5 -0.866025 0.5 991.117 530.828)" fill="#777777"/>
<rect x="1015.37" y="544.828" width="9.79796" height="5.65685" rx="3" transform="rotate(90 1015.37 544.828)" fill="#131313"/>
<rect x="1039.61" y="558.828" width="9.79796" height="5.65685" rx="3" transform="rotate(90 1039.61 558.828)" fill="#131313"/>
<rect width="8" height="8" rx="3" transform="matrix(0.866025 0.5 -0.866025 0.5 1063.86 572.828)" fill="#777777"/>
<rect width="8" height="8" rx="3" transform="matrix(0.866025 0.5 -0.866025 0.5 1088.11 586.828)" fill="#777777"/>
<rect x="384.899" y="208.828" width="9.79796" height="5.65685" rx="3" transform="rotate(90 384.899 208.828)" fill="#131313"/>
<rect x="409.148" y="222.828" width="9.79796" height="5.65685" rx="3" transform="rotate(90 409.148 222.828)" fill="#131313"/>
<rect width="8" height="8" rx="3" transform="matrix(0.866025 0.5 -0.866025 0.5 433.397 236.828)" fill="#777777"/>
<rect x="457.646" y="250.828" width="9.79796" height="5.65685" rx="3" transform="rotate(90 457.646 250.828)" fill="#131313"/>
<rect x="481.894" y="264.828" width="9.79796" height="5.65685" rx="3" transform="rotate(90 481.894 264.828)" fill="#131313"/>
<rect width="8" height="8" rx="3" transform="matrix(0.866025 0.5 -0.866025 0.5 506.143 278.828)" fill="#777777"/>
<rect width="8" height="8" rx="3" transform="matrix(0.866025 0.5 -0.866025 0.5 530.392 292.828)" fill="#777777"/>
<rect width="8" height="8" rx="3" transform="matrix(0.866025 0.5 -0.866025 0.5 554.64 306.828)" fill="#777777"/>
<rect width="8" height="8" rx="3" transform="matrix(0.866025 0.5 -0.866025 0.5 578.889 320.828)" fill="#777777"/>
<rect width="8" height="8" rx="3" transform="matrix(0.866025 0.5 -0.866025 0.5 603.138 334.828)" fill="#777777"/>
<rect x="627.386" y="348.828" width="9.79796" height="5.65685" rx="3" transform="rotate(90 627.386 348.828)" fill="#131313"/>
<rect x="651.635" y="362.828" width="9.79796" height="5.65685" rx="3" transform="rotate(90 651.635 362.828)" fill="#131313"/>
<rect x="675.884" y="376.828" width="9.79796" height="5.65685" rx="3" transform="rotate(90 675.884 376.828)" fill="#131313"/>
<rect x="700.133" y="390.828" width="9.79796" height="5.65685" rx="3" transform="rotate(90 700.133 390.828)" fill="#131313"/>
<rect x="724.381" y="404.828" width="9.79796" height="5.65685" rx="3" transform="rotate(90 724.381 404.828)" fill="#131313"/>
<rect width="8" height="8" rx="3" transform="matrix(0.866025 0.5 -0.866025 0.5 748.63 418.828)" fill="#777777"/>
<rect width="8" height="8" rx="3" transform="matrix(0.866025 0.5 -0.866025 0.5 772.879 432.828)" fill="#777777"/>
<rect width="8" height="8" rx="3" transform="matrix(0.866025 0.5 -0.866025 0.5 797.127 446.828)" fill="#777777"/>
<rect width="8" height="8" rx="3" transform="matrix(0.866025 0.5 -0.866025 0.5 821.376 460.828)" fill="#777777"/>
<rect x="845.625" y="474.828" width="9.79796" height="5.65685" rx="3" transform="rotate(90 845.625 474.828)" fill="#131313"/>
<rect width="8" height="8" rx="3" transform="matrix(0.866025 0.5 -0.866025 0.5 869.874 488.828)" fill="#777777"/>
<rect x="894.122" y="502.828" width="9.79796" height="5.65685" rx="3" transform="rotate(90 894.122 502.828)" fill="#131313"/>
<rect width="8" height="8" rx="3" transform="matrix(0.866025 0.5 -0.866025 0.5 918.371 516.828)" fill="#777777"/>
<rect x="942.62" y="530.828" width="9.79796" height="5.65685" rx="3" transform="rotate(90 942.62 530.828)" fill="#131313"/>
<rect x="966.868" y="544.828" width="9.79796" height="5.65685" rx="3" transform="rotate(90 966.868 544.828)" fill="#131313"/>
<rect width="8" height="8" rx="3" transform="matrix(0.866025 0.5 -0.866025 0.5 991.117 558.828)" fill="#777777"/>
<rect x="1015.37" y="572.828" width="9.79796" height="5.65685" rx="3" transform="rotate(90 1015.37 572.828)" fill="#131313"/>
<rect x="1039.61" y="586.828" width="9.79796" height="5.65685" rx="3" transform="rotate(90 1039.61 586.828)" fill="#131313"/>
<rect width="8" height="8" rx="3" transform="matrix(0.866025 0.5 -0.866025 0.5 360.651 222.828)" fill="#777777"/>
<rect width="8" height="8" rx="3" transform="matrix(0.866025 0.5 -0.866025 0.5 384.899 236.828)" fill="#777777"/>
<rect width="8" height="8" rx="3" transform="matrix(0.866025 0.5 -0.866025 0.5 409.148 250.828)" fill="#777777"/>
<rect x="433.397" y="264.828" width="9.79796" height="5.65685" rx="3" transform="rotate(90 433.397 264.828)" fill="#131313"/>
<rect x="457.646" y="278.828" width="9.79796" height="5.65685" rx="3" transform="rotate(90 457.646 278.828)" fill="#131313"/>
<rect width="8" height="8" rx="3" transform="matrix(0.866025 0.5 -0.866025 0.5 481.894 292.828)" fill="#777777"/>
<rect width="8" height="8" rx="3" transform="matrix(0.866025 0.5 -0.866025 0.5 506.143 306.828)" fill="#777777"/>
<rect width="8" height="8" rx="3" transform="matrix(0.866025 0.5 -0.866025 0.5 530.392 320.828)" fill="#777777"/>
<rect width="8" height="8" rx="3" transform="matrix(0.866025 0.5 -0.866025 0.5 554.64 334.828)" fill="#777777"/>
<rect x="578.889" y="348.828" width="9.79796" height="5.65685" rx="3" transform="rotate(90 578.889 348.828)" fill="#131313"/>
<rect x="603.138" y="362.828" width="9.79796" height="5.65685" rx="3" transform="rotate(90 603.138 362.828)" fill="#131313"/>
<rect x="627.386" y="376.828" width="9.79796" height="5.65685" rx="3" transform="rotate(90 627.386 376.828)" fill="#131313"/>
<rect width="8" height="8" rx="3" transform="matrix(0.866025 0.5 -0.866025 0.5 651.635 390.828)" fill="#777777"/>
<rect x="675.884" y="404.828" width="9.79796" height="5.65685" rx="3" transform="rotate(90 675.884 404.828)" fill="#131313"/>
<rect x="700.133" y="418.828" width="9.79796" height="5.65685" rx="3" transform="rotate(90 700.133 418.828)" fill="#131313"/>
<rect width="8" height="8" rx="3" transform="matrix(0.866025 0.5 -0.866025 0.5 724.381 432.828)" fill="#777777"/>
<rect x="748.63" y="446.828" width="9.79796" height="5.65685" rx="3" transform="rotate(90 748.63 446.828)" fill="#131313"/>
<rect x="772.879" y="460.828" width="9.79796" height="5.65685" rx="3" transform="rotate(90 772.879 460.828)" fill="#131313"/>
<rect x="797.127" y="474.828" width="9.79796" height="5.65685" rx="3" transform="rotate(90 797.127 474.828)" fill="#131313"/>
<rect width="8" height="8" rx="3" transform="matrix(0.866025 0.5 -0.866025 0.5 821.376 488.828)" fill="#777777"/>
<rect x="845.625" y="502.828" width="9.79796" height="5.65685" rx="3" transform="rotate(90 845.625 502.828)" fill="#131313"/>
<rect width="8" height="8" rx="3" transform="matrix(0.866025 0.5 -0.866025 0.5 869.874 516.828)" fill="#777777"/>
<rect width="8" height="8" rx="3" transform="matrix(0.866025 0.5 -0.866025 0.5 894.122 530.828)" fill="#777777"/>
<rect x="918.371" y="544.828" width="9.79796" height="5.65685" rx="3" transform="rotate(90 918.371 544.828)" fill="#131313"/>
<rect x="942.62" y="558.828" width="9.79796" height="5.65685" rx="3" transform="rotate(90 942.62 558.828)" fill="#131313"/>
<rect width="8" height="8" rx="3" transform="matrix(0.866025 0.5 -0.866025 0.5 966.868 572.828)" fill="#777777"/>
<rect x="991.117" y="586.828" width="9.79796" height="5.65685" rx="3" transform="rotate(90 991.117 586.828)" fill="#131313"/>
<rect width="8" height="8" rx="3" transform="matrix(0.866025 0.5 -0.866025 0.5 336.402 236.828)" fill="#777777"/>
<rect x="360.651" y="250.828" width="9.79796" height="5.65685" rx="3" transform="rotate(90 360.651 250.828)" fill="#131313"/>
<rect width="8" height="8" rx="3" transform="matrix(0.866025 0.5 -0.866025 0.5 384.899 264.828)" fill="#777777"/>
<rect width="8" height="8" rx="3" transform="matrix(0.866025 0.5 -0.866025 0.5 409.148 278.828)" fill="#777777"/>
<rect x="433.397" y="292.828" width="9.79796" height="5.65685" rx="3" transform="rotate(90 433.397 292.828)" fill="#131313"/>
<rect x="457.646" y="306.828" width="9.79796" height="5.65685" rx="3" transform="rotate(90 457.646 306.828)" fill="#131313"/>
<rect width="8" height="8" rx="3" transform="matrix(0.866025 0.5 -0.866025 0.5 481.894 320.828)" fill="#777777"/>
<rect width="8" height="8" rx="3" transform="matrix(0.866025 0.5 -0.866025 0.5 506.143 334.828)" fill="#777777"/>
<rect width="8" height="8" rx="3" transform="matrix(0.866025 0.5 -0.866025 0.5 530.392 348.828)" fill="#777777"/>
<rect width="8" height="8" rx="3" transform="matrix(0.866025 0.5 -0.866025 0.5 554.64 362.828)" fill="#777777"/>
<rect width="8" height="8" rx="3" transform="matrix(0.866025 0.5 -0.866025 0.5 578.889 376.828)" fill="#777777"/>
<rect width="8" height="8" rx="3" transform="matrix(0.866025 0.5 -0.866025 0.5 603.138 390.828)" fill="#777777"/>
<rect width="8" height="8" rx="3" transform="matrix(0.866025 0.5 -0.866025 0.5 627.386 404.828)" fill="#777777"/>
<rect x="651.635" y="418.828" width="9.79796" height="5.65685" rx="3" transform="rotate(90 651.635 418.828)" fill="#131313"/>
<rect width="8" height="8" rx="3" transform="matrix(0.866025 0.5 -0.866025 0.5 675.884 432.828)" fill="#777777"/>
<rect x="700.133" y="446.828" width="9.79796" height="5.65685" rx="3" transform="rotate(90 700.133 446.828)" fill="#131313"/>
<rect width="8" height="8" rx="3" transform="matrix(0.866025 0.5 -0.866025 0.5 724.381 460.828)" fill="#777777"/>
<rect width="8" height="8" rx="3" transform="matrix(0.866025 0.5 -0.866025 0.5 748.63 474.828)" fill="#777777"/>
<rect width="8" height="8" rx="3" transform="matrix(0.866025 0.5 -0.866025 0.5 772.879 488.828)" fill="#777777"/>
<rect width="8" height="8" rx="3" transform="matrix(0.866025 0.5 -0.866025 0.5 797.127 502.828)" fill="#777777"/>
<rect x="821.376" y="516.828" width="9.79796" height="5.65685" rx="3" transform="rotate(90 821.376 516.828)" fill="#131313"/>
<rect width="8" height="8" rx="3" transform="matrix(0.866025 0.5 -0.866025 0.5 845.625 530.828)" fill="#777777"/>
<rect x="869.874" y="544.828" width="9.79796" height="5.65685" rx="3" transform="rotate(90 869.874 544.828)" fill="#131313"/>
<rect x="894.122" y="558.828" width="9.79796" height="5.65685" rx="3" transform="rotate(90 894.122 558.828)" fill="#131313"/>
<rect x="918.371" y="572.828" width="9.79796" height="5.65685" rx="3" transform="rotate(90 918.371 572.828)" fill="#131313"/>
<rect width="8" height="8" rx="3" transform="matrix(0.866025 0.5 -0.866025 0.5 942.62 586.828)" fill="#777777"/>
<rect x="312.153" y="250.828" width="9.79796" height="5.65685" rx="3" transform="rotate(90 312.153 250.828)" fill="#131313"/>
<rect width="8" height="8" rx="3" transform="matrix(0.866025 0.5 -0.866025 0.5 336.402 264.828)" fill="#777777"/>
<rect width="8" height="8" rx="3" transform="matrix(0.866025 0.5 -0.866025 0.5 360.651 278.828)" fill="#777777"/>
<rect width="8" height="8" rx="3" transform="matrix(0.866025 0.5 -0.866025 0.5 384.899 292.828)" fill="#777777"/>
<rect width="8" height="8" rx="3" transform="matrix(0.866025 0.5 -0.866025 0.5 409.148 306.828)" fill="#777777"/>
<rect x="433.397" y="320.828" width="9.79796" height="5.65685" rx="3" transform="rotate(90 433.397 320.828)" fill="#131313"/>
<rect x="457.646" y="334.828" width="9.79796" height="5.65685" rx="3" transform="rotate(90 457.646 334.828)" fill="#131313"/>
<rect x="481.894" y="348.828" width="9.79796" height="5.65685" rx="3" transform="rotate(90 481.894 348.828)" fill="#131313"/>
<rect width="8" height="8" rx="3" transform="matrix(0.866025 0.5 -0.866025 0.5 506.143 362.828)" fill="#777777"/>
<rect x="530.392" y="376.828" width="9.79796" height="5.65685" rx="3" transform="rotate(90 530.392 376.828)" fill="#131313"/>
<rect x="554.64" y="390.828" width="9.79796" height="5.65685" rx="3" transform="rotate(90 554.64 390.828)" fill="#131313"/>
<rect width="8" height="8" rx="3" transform="matrix(0.866025 0.5 -0.866025 0.5 578.889 404.828)" fill="#777777"/>
<rect width="8" height="8" rx="3" transform="matrix(0.866025 0.5 -0.866025 0.5 603.138 418.828)" fill="#777777"/>
<rect width="8" height="8" rx="3" transform="matrix(0.866025 0.5 -0.866025 0.5 627.386 432.828)" fill="#777777"/>
<rect x="651.635" y="446.828" width="9.79796" height="5.65685" rx="3" transform="rotate(90 651.635 446.828)" fill="#131313"/>
<rect width="8" height="8" rx="3" transform="matrix(0.866025 0.5 -0.866025 0.5 675.884 460.828)" fill="#777777"/>
<rect width="8" height="8" rx="3" transform="matrix(0.866025 0.5 -0.866025 0.5 700.133 474.828)" fill="#777777"/>
<rect x="724.381" y="488.828" width="9.79796" height="5.65685" rx="3" transform="rotate(90 724.381 488.828)" fill="#131313"/>
<rect width="8" height="8" rx="3" transform="matrix(0.866025 0.5 -0.866025 0.5 748.63 502.828)" fill="#777777"/>
<rect x="772.879" y="516.828" width="9.79796" height="5.65685" rx="3" transform="rotate(90 772.879 516.828)" fill="#131313"/>
<rect x="797.127" y="530.828" width="9.79796" height="5.65685" rx="3" transform="rotate(90 797.127 530.828)" fill="#131313"/>
<rect x="821.376" y="544.828" width="9.79796" height="5.65685" rx="3" transform="rotate(90 821.376 544.828)" fill="#131313"/>
<rect x="845.625" y="558.828" width="9.79796" height="5.65685" rx="3" transform="rotate(90 845.625 558.828)" fill="#131313"/>
<rect x="869.874" y="572.828" width="9.79796" height="5.65685" rx="3" transform="rotate(90 869.874 572.828)" fill="#131313"/>
<rect x="894.122" y="586.828" width="9.79796" height="5.65685" rx="3" transform="rotate(90 894.122 586.828)" fill="#131313"/>
<rect width="8" height="8" rx="3" transform="matrix(0.866025 0.5 -0.866025 0.5 287.905 264.828)" fill="#777777"/>
<rect x="312.153" y="278.828" width="9.79796" height="5.65685" rx="3" transform="rotate(90 312.153 278.828)" fill="#131313"/>
<rect x="336.402" y="292.828" width="9.79796" height="5.65685" rx="3" transform="rotate(90 336.402 292.828)" fill="#131313"/>
<rect width="8" height="8" rx="3" transform="matrix(0.866025 0.5 -0.866025 0.5 360.651 306.828)" fill="#777777"/>
<rect width="8" height="8" rx="3" transform="matrix(0.866025 0.5 -0.866025 0.5 384.899 320.828)" fill="#777777"/>
<rect width="8" height="8" rx="3" transform="matrix(0.866025 0.5 -0.866025 0.5 409.148 334.828)" fill="#777777"/>
<rect width="8" height="8" rx="3" transform="matrix(0.866025 0.5 -0.866025 0.5 433.397 348.828)" fill="#777777"/>
<rect width="8" height="8" rx="3" transform="matrix(0.866025 0.5 -0.866025 0.5 457.646 362.828)" fill="#777777"/>
<rect width="8" height="8" rx="3" transform="matrix(0.866025 0.5 -0.866025 0.5 481.894 376.828)" fill="#777777"/>
<rect width="8" height="8" rx="3" transform="matrix(0.866025 0.5 -0.866025 0.5 506.143 390.828)" fill="#777777"/>
<rect width="8" height="8" rx="3" transform="matrix(0.866025 0.5 -0.866025 0.5 530.392 404.828)" fill="#777777"/>
<rect x="554.64" y="418.828" width="9.79796" height="5.65685" rx="3" transform="rotate(90 554.64 418.828)" fill="#131313"/>
<rect width="8" height="8" rx="3" transform="matrix(0.866025 0.5 -0.866025 0.5 578.889 432.828)" fill="#777777"/>
<rect width="8" height="8" rx="3" transform="matrix(0.866025 0.5 -0.866025 0.5 603.138 446.828)" fill="#777777"/>
<rect width="8" height="8" rx="3" transform="matrix(0.866025 0.5 -0.866025 0.5 627.386 460.828)" fill="#777777"/>
<rect width="8" height="8" rx="3" transform="matrix(0.866025 0.5 -0.866025 0.5 651.635 474.828)" fill="#777777"/>
<rect width="8" height="8" rx="3" transform="matrix(0.866025 0.5 -0.866025 0.5 675.884 488.828)" fill="#777777"/>
<rect width="8" height="8" rx="3" transform="matrix(0.866025 0.5 -0.866025 0.5 700.133 502.828)" fill="#777777"/>
<rect x="724.381" y="516.828" width="9.79796" height="5.65685" rx="3" transform="rotate(90 724.381 516.828)" fill="#131313"/>
<rect x="748.63" y="530.828" width="9.79796" height="5.65685" rx="3" transform="rotate(90 748.63 530.828)" fill="#131313"/>
<rect width="8" height="8" rx="3" transform="matrix(0.866025 0.5 -0.866025 0.5 772.879 544.828)" fill="#777777"/>
<rect width="8" height="8" rx="3" transform="matrix(0.866025 0.5 -0.866025 0.5 797.127 558.828)" fill="#777777"/>
<rect width="8" height="8" rx="3" transform="matrix(0.866025 0.5 -0.866025 0.5 821.376 572.828)" fill="#777777"/>
<rect width="8" height="8" rx="3" transform="matrix(0.866025 0.5 -0.866025 0.5 845.625 586.828)" fill="#777777"/>
<rect x="263.656" y="278.828" width="9.79796" height="5.65685" rx="3" transform="rotate(90 263.656 278.828)" fill="#131313"/>
<rect width="8" height="8" rx="3" transform="matrix(0.866025 0.5 -0.866025 0.5 287.905 292.828)" fill="#777777"/>
<rect width="8" height="8" rx="3" transform="matrix(0.866025 0.5 -0.866025 0.5 312.153 306.828)" fill="#777777"/>
<rect width="8" height="8" rx="3" transform="matrix(0.866025 0.5 -0.866025 0.5 336.402 320.828)" fill="#777777"/>
<rect width="8" height="8" rx="3" transform="matrix(0.866025 0.5 -0.866025 0.5 360.651 334.828)" fill="#777777"/>
<rect x="384.899" y="348.828" width="9.79796" height="5.65685" rx="3" transform="rotate(90 384.899 348.828)" fill="#131313"/>
<rect x="409.148" y="362.828" width="9.79796" height="5.65685" rx="3" transform="rotate(90 409.148 362.828)" fill="#131313"/>
<rect x="433.397" y="376.828" width="9.79796" height="5.65685" rx="3" transform="rotate(90 433.397 376.828)" fill="#131313"/>
<rect x="457.646" y="390.828" width="9.79796" height="5.65685" rx="3" transform="rotate(90 457.646 390.828)" fill="#131313"/>
<rect x="481.894" y="404.828" width="9.79796" height="5.65685" rx="3" transform="rotate(90 481.894 404.828)" fill="#131313"/>
<rect width="8" height="8" rx="3" transform="matrix(0.866025 0.5 -0.866025 0.5 506.143 418.828)" fill="#777777"/>
<rect width="8" height="8" rx="3" transform="matrix(0.866025 0.5 -0.866025 0.5 530.392 432.828)" fill="#777777"/>
<rect x="554.64" y="446.828" width="9.79796" height="5.65685" rx="3" transform="rotate(90 554.64 446.828)" fill="#131313"/>
<rect x="578.889" y="460.828" width="9.79796" height="5.65685" rx="3" transform="rotate(90 578.889 460.828)" fill="#131313"/>
<rect width="8" height="8" rx="3" transform="matrix(0.866025 0.5 -0.866025 0.5 603.138 474.828)" fill="#777777"/>
<rect x="627.386" y="488.828" width="9.79796" height="5.65685" rx="3" transform="rotate(90 627.386 488.828)" fill="#131313"/>
<rect x="651.635" y="502.828" width="9.79796" height="5.65685" rx="3" transform="rotate(90 651.635 502.828)" fill="#131313"/>
<rect x="675.884" y="516.828" width="9.79796" height="5.65685" rx="3" transform="rotate(90 675.884 516.828)" fill="#131313"/>
<rect width="8" height="8" rx="3" transform="matrix(0.866025 0.5 -0.866025 0.5 700.133 530.828)" fill="#777777"/>
<rect width="8" height="8" rx="3" transform="matrix(0.866025 0.5 -0.866025 0.5 724.381 544.828)" fill="#777777"/>
<rect x="748.63" y="558.828" width="9.79796" height="5.65685" rx="3" transform="rotate(90 748.63 558.828)" fill="#131313"/>
<rect width="8" height="8" rx="3" transform="matrix(0.866025 0.5 -0.866025 0.5 772.879 572.828)" fill="#777777"/>
<rect x="797.127" y="586.828" width="9.79796" height="5.65685" rx="3" transform="rotate(90 797.127 586.828)" fill="#131313"/>
<rect width="8" height="8" rx="3" transform="matrix(0.866025 0.5 -0.866025 0.5 239.407 292.828)" fill="#777777"/>
<rect x="263.656" y="306.828" width="9.79796" height="5.65685" rx="3" transform="rotate(90 263.656 306.828)" fill="#131313"/>
<rect width="8" height="8" rx="3" transform="matrix(0.866025 0.5 -0.866025 0.5 287.905 320.828)" fill="#777777"/>
<rect width="8" height="8" rx="3" transform="matrix(0.866025 0.5 -0.866025 0.5 312.153 334.828)" fill="#777777"/>
<rect x="336.402" y="348.828" width="9.79796" height="5.65685" rx="3" transform="rotate(90 336.402 348.828)" fill="#131313"/>
<rect x="360.651" y="362.828" width="9.79796" height="5.65685" rx="3" transform="rotate(90 360.651 362.828)" fill="#131313"/>
<rect x="384.899" y="376.828" width="9.79796" height="5.65685" rx="3" transform="rotate(90 384.899 376.828)" fill="#131313"/>
<rect width="8" height="8" rx="3" transform="matrix(0.866025 0.5 -0.866025 0.5 409.148 390.828)" fill="#777777"/>
<rect x="433.397" y="404.828" width="9.79796" height="5.65685" rx="3" transform="rotate(90 433.397 404.828)" fill="#131313"/>
<rect width="8" height="8" rx="3" transform="matrix(0.866025 0.5 -0.866025 0.5 457.646 418.828)" fill="#777777"/>
<rect width="8" height="8" rx="3" transform="matrix(0.866025 0.5 -0.866025 0.5 481.894 432.828)" fill="#777777"/>
<rect x="506.143" y="446.828" width="9.79796" height="5.65685" rx="3" transform="rotate(90 506.143 446.828)" fill="#131313"/>
<rect x="530.392" y="460.828" width="9.79796" height="5.65685" rx="3" transform="rotate(90 530.392 460.828)" fill="#131313"/>
<rect width="8" height="8" rx="3" transform="matrix(0.866025 0.5 -0.866025 0.5 554.64 474.828)" fill="#777777"/>
<rect width="8" height="8" rx="3" transform="matrix(0.866025 0.5 -0.866025 0.5 578.889 488.828)" fill="#777777"/>
<rect x="603.138" y="502.828" width="9.79796" height="5.65685" rx="3" transform="rotate(90 603.138 502.828)" fill="#131313"/>
<rect x="627.386" y="516.828" width="9.79796" height="5.65685" rx="3" transform="rotate(90 627.386 516.828)" fill="#131313"/>
<rect x="651.635" y="530.828" width="9.79796" height="5.65685" rx="3" transform="rotate(90 651.635 530.828)" fill="#131313"/>
<rect width="8" height="8" rx="3" transform="matrix(0.866025 0.5 -0.866025 0.5 675.884 544.828)" fill="#777777"/>
<rect width="8" height="8" rx="3" transform="matrix(0.866025 0.5 -0.866025 0.5 700.133 558.828)" fill="#777777"/>
<rect width="8" height="8" rx="3" transform="matrix(0.866025 0.5 -0.866025 0.5 724.381 572.828)" fill="#777777"/>
<rect width="8" height="8" rx="3" transform="matrix(0.866025 0.5 -0.866025 0.5 748.63 586.828)" fill="#777777"/>
<rect x="215.158" y="306.828" width="9.79796" height="5.65685" rx="3" transform="rotate(90 215.158 306.828)" fill="#131313"/>
<rect width="8" height="8" rx="3" transform="matrix(0.866025 0.5 -0.866025 0.5 239.407 320.828)" fill="#777777"/>
<rect width="8" height="8" rx="3" transform="matrix(0.866025 0.5 -0.866025 0.5 263.656 334.828)" fill="#777777"/>
<rect x="287.905" y="348.828" width="9.79796" height="5.65685" rx="3" transform="rotate(90 287.905 348.828)" fill="#131313"/>
<rect x="312.153" y="362.828" width="9.79796" height="5.65685" rx="3" transform="rotate(90 312.153 362.828)" fill="#131313"/>
<rect x="336.402" y="376.828" width="9.79796" height="5.65685" rx="3" transform="rotate(90 336.402 376.828)" fill="#131313"/>
<rect x="360.651" y="390.828" width="9.79796" height="5.65685" rx="3" transform="rotate(90 360.651 390.828)" fill="#131313"/>
<rect x="384.899" y="404.828" width="9.79796" height="5.65685" rx="3" transform="rotate(90 384.899 404.828)" fill="#131313"/>
<rect width="8" height="8" rx="3" transform="matrix(0.866025 0.5 -0.866025 0.5 409.148 418.828)" fill="#777777"/>
<rect x="433.397" y="432.828" width="9.79796" height="5.65685" rx="3" transform="rotate(90 433.397 432.828)" fill="#131313"/>
<rect x="457.646" y="446.828" width="9.79796" height="5.65685" rx="3" transform="rotate(90 457.646 446.828)" fill="#131313"/>
<rect width="8" height="8" rx="3" transform="matrix(0.866025 0.5 -0.866025 0.5 481.894 460.828)" fill="#777777"/>
<rect x="506.143" y="474.828" width="9.79796" height="5.65685" rx="3" transform="rotate(90 506.143 474.828)" fill="#131313"/>
<rect width="8" height="8" rx="3" transform="matrix(0.866025 0.5 -0.866025 0.5 530.392 488.828)" fill="#777777"/>
<rect width="8" height="8" rx="3" transform="matrix(0.866025 0.5 -0.866025 0.5 554.64 502.828)" fill="#777777"/>
<rect x="578.889" y="516.828" width="9.79796" height="5.65685" rx="3" transform="rotate(90 578.889 516.828)" fill="#131313"/>
<rect width="8" height="8" rx="3" transform="matrix(0.866025 0.5 -0.866025 0.5 603.138 530.828)" fill="#777777"/>
<rect x="627.386" y="544.828" width="9.79796" height="5.65685" rx="3" transform="rotate(90 627.386 544.828)" fill="#131313"/>
<rect width="8" height="8" rx="3" transform="matrix(0.866025 0.5 -0.866025 0.5 651.635 558.828)" fill="#777777"/>
<rect x="675.884" y="572.828" width="9.79796" height="5.65685" rx="3" transform="rotate(90 675.884 572.828)" fill="#131313"/>
<rect width="8" height="8" rx="3" transform="matrix(0.866025 0.5 -0.866025 0.5 700.133 586.828)" fill="#777777"/>
<rect x="190.91" y="320.828" width="9.79796" height="5.65685" rx="3" transform="rotate(90 190.91 320.828)" fill="#777777"/>
<rect width="8" height="8" rx="3" transform="matrix(0.866025 0.5 -0.866025 0.5 215.158 334.828)" fill="#777777"/>
<rect width="8" height="8" rx="3" transform="matrix(0.866025 0.5 -0.866025 0.5 239.407 348.828)" fill="#777777"/>
<rect width="8" height="8" rx="3" transform="matrix(0.866025 0.5 -0.866025 0.5 263.656 362.828)" fill="#777777"/>
<rect x="287.905" y="376.828" width="9.79796" height="5.65685" rx="3" transform="rotate(90 287.905 376.828)" fill="#131313"/>
<rect x="312.153" y="390.828" width="9.79796" height="5.65685" rx="3" transform="rotate(90 312.153 390.828)" fill="#131313"/>
<rect width="8" height="8" rx="3" transform="matrix(0.866025 0.5 -0.866025 0.5 336.402 404.828)" fill="#777777"/>
<rect width="8" height="8" rx="3" transform="matrix(0.866025 0.5 -0.866025 0.5 360.651 418.828)" fill="#777777"/>
<rect width="8" height="8" rx="3" transform="matrix(0.866025 0.5 -0.866025 0.5 384.899 432.828)" fill="#777777"/>
<rect x="409.148" y="446.828" width="9.79796" height="5.65685" rx="3" transform="rotate(90 409.148 446.828)" fill="#131313"/>
<rect x="433.397" y="460.828" width="9.79796" height="5.65685" rx="3" transform="rotate(90 433.397 460.828)" fill="#131313"/>
<rect x="457.646" y="474.828" width="9.79796" height="5.65685" rx="3" transform="rotate(90 457.646 474.828)" fill="#131313"/>
<rect x="481.894" y="488.828" width="9.79796" height="5.65685" rx="3" transform="rotate(90 481.894 488.828)" fill="#131313"/>
<rect width="8" height="8" rx="3" transform="matrix(0.866025 0.5 -0.866025 0.5 506.143 502.828)" fill="#777777"/>
<rect x="530.392" y="516.828" width="9.79796" height="5.65685" rx="3" transform="rotate(90 530.392 516.828)" fill="#131313"/>
<rect width="8" height="8" rx="3" transform="matrix(0.866025 0.5 -0.866025 0.5 554.64 530.828)" fill="#777777"/>
<rect width="8" height="8" rx="3" transform="matrix(0.866025 0.5 -0.866025 0.5 578.889 544.828)" fill="#777777"/>
<rect x="603.138" y="558.828" width="9.79796" height="5.65685" rx="3" transform="rotate(90 603.138 558.828)" fill="#131313"/>
<rect width="8" height="8" rx="3" transform="matrix(0.866025 0.5 -0.866025 0.5 627.386 572.828)" fill="#777777"/>
<rect x="651.635" y="586.828" width="9.79796" height="5.65685" rx="3" transform="rotate(90 651.635 586.828)" fill="#131313"/>
<rect x="166.661" y="334.828" width="9.79796" height="5.65685" rx="3" transform="rotate(90 166.661 334.828)" fill="#777777"/>
<rect x="190.91" y="348.828" width="9.79796" height="5.65685" rx="3" transform="rotate(90 190.91 348.828)" fill="#131313"/>
<rect x="215.158" y="362.828" width="9.79796" height="5.65685" rx="3" transform="rotate(90 215.158 362.828)" fill="#131313"/>
<rect width="8" height="8" rx="3" transform="matrix(0.866025 0.5 -0.866025 0.5 239.407 376.828)" fill="#777777"/>
<rect x="263.656" y="390.828" width="9.79796" height="5.65685" rx="3" transform="rotate(90 263.656 390.828)" fill="#131313"/>
<rect width="8" height="8" rx="3" transform="matrix(0.866025 0.5 -0.866025 0.5 287.905 404.828)" fill="#777777"/>
<rect x="312.153" y="418.828" width="9.79796" height="5.65685" rx="3" transform="rotate(90 312.153 418.828)" fill="#131313"/>
<rect width="8" height="8" rx="3" transform="matrix(0.866025 0.5 -0.866025 0.5 336.402 432.828)" fill="#777777"/>
<rect width="8" height="8" rx="3" transform="matrix(0.866025 0.5 -0.866025 0.5 360.651 446.828)" fill="#777777"/>
<rect x="384.899" y="460.828" width="9.79796" height="5.65685" rx="3" transform="rotate(90 384.899 460.828)" fill="#131313"/>
<rect x="409.148" y="474.828" width="9.79796" height="5.65685" rx="3" transform="rotate(90 409.148 474.828)" fill="#131313"/>
<rect x="433.397" y="488.828" width="9.79796" height="5.65685" rx="3" transform="rotate(90 433.397 488.828)" fill="#131313"/>
<rect x="457.646" y="502.828" width="9.79796" height="5.65685" rx="3" transform="rotate(90 457.646 502.828)" fill="#131313"/>
<rect width="8" height="8" rx="3" transform="matrix(0.866025 0.5 -0.866025 0.5 481.894 516.828)" fill="#777777"/>
<rect width="8" height="8" rx="3" transform="matrix(0.866025 0.5 -0.866025 0.5 506.143 530.828)" fill="#777777"/>
<rect width="8" height="8" rx="3" transform="matrix(0.866025 0.5 -0.866025 0.5 530.392 544.828)" fill="#777777"/>
<rect x="554.64" y="558.828" width="9.79796" height="5.65685" rx="3" transform="rotate(90 554.64 558.828)" fill="#131313"/>
<rect width="8" height="8" rx="3" transform="matrix(0.866025 0.5 -0.866025 0.5 578.889 572.828)" fill="#777777"/>
<rect x="603.138" y="586.828" width="9.79796" height="5.65685" rx="3" transform="rotate(90 603.138 586.828)" fill="#131313"/>
<rect x="142.412" y="348.828" width="9.79796" height="5.65685" rx="3" transform="rotate(90 142.412 348.828)" fill="#131313"/>
<rect x="166.661" y="362.828" width="9.79796" height="5.65685" rx="3" transform="rotate(90 166.661 362.828)" fill="#131313"/>
<rect x="190.91" y="376.828" width="9.79796" height="5.65685" rx="3" transform="rotate(90 190.91 376.828)" fill="#131313"/>
<rect x="215.158" y="390.828" width="9.79796" height="5.65685" rx="3" transform="rotate(90 215.158 390.828)" fill="#131313"/>
<rect x="239.407" y="404.828" width="9.79796" height="5.65685" rx="3" transform="rotate(90 239.407 404.828)" fill="#131313"/>
<rect width="8" height="8" rx="3" transform="matrix(0.866025 0.5 -0.866025 0.5 263.656 418.828)" fill="#777777"/>
<rect width="8" height="8" rx="3" transform="matrix(0.866025 0.5 -0.866025 0.5 287.905 432.828)" fill="#777777"/>
<rect width="8" height="8" rx="3" transform="matrix(0.866025 0.5 -0.866025 0.5 312.153 446.828)" fill="#777777"/>
<rect width="8" height="8" rx="3" transform="matrix(0.866025 0.5 -0.866025 0.5 336.402 460.828)" fill="#777777"/>
<rect x="360.651" y="474.828" width="9.79796" height="5.65685" rx="3" transform="rotate(90 360.651 474.828)" fill="#131313"/>
<rect width="8" height="8" rx="3" transform="matrix(0.866025 0.5 -0.866025 0.5 384.899 488.828)" fill="#777777"/>
<rect x="409.148" y="502.828" width="9.79796" height="5.65685" rx="3" transform="rotate(90 409.148 502.828)" fill="#131313"/>
<rect width="8" height="8" rx="3" transform="matrix(0.866025 0.5 -0.866025 0.5 433.397 516.828)" fill="#777777"/>
<rect x="457.646" y="530.828" width="9.79796" height="5.65685" rx="3" transform="rotate(90 457.646 530.828)" fill="#131313"/>
<rect x="481.894" y="544.828" width="9.79796" height="5.65685" rx="3" transform="rotate(90 481.894 544.828)" fill="#131313"/>
<rect width="8" height="8" rx="3" transform="matrix(0.866025 0.5 -0.866025 0.5 506.143 558.828)" fill="#777777"/>
<rect x="530.392" y="572.828" width="9.79796" height="5.65685" rx="3" transform="rotate(90 530.392 572.828)" fill="#131313"/>
<rect x="554.64" y="586.828" width="9.79796" height="5.65685" rx="3" transform="rotate(90 554.64 586.828)" fill="#131313"/>
<rect width="8" height="8" rx="3" transform="matrix(0.866025 0.5 -0.866025 0.5 118.164 362.828)" fill="#777777"/>
<rect width="8" height="8" rx="3" transform="matrix(0.866025 0.5 -0.866025 0.5 142.412 376.828)" fill="#777777"/>
<rect width="8" height="8" rx="3" transform="matrix(0.866025 0.5 -0.866025 0.5 166.661 390.828)" fill="#777777"/>
<rect x="190.91" y="404.828" width="9.79796" height="5.65685" rx="3" transform="rotate(90 190.91 404.828)" fill="#131313"/>
<rect x="215.158" y="418.828" width="9.79796" height="5.65685" rx="3" transform="rotate(90 215.158 418.828)" fill="#131313"/>
<rect width="8" height="8" rx="3" transform="matrix(0.866025 0.5 -0.866025 0.5 239.407 432.828)" fill="#777777"/>
<rect x="263.656" y="446.828" width="9.79796" height="5.65685" rx="3" transform="rotate(90 263.656 446.828)" fill="#131313"/>
<rect width="8" height="8" rx="3" transform="matrix(0.866025 0.5 -0.866025 0.5 287.905 460.828)" fill="#777777"/>
<rect width="8" height="8" rx="3" transform="matrix(0.866025 0.5 -0.866025 0.5 312.153 474.828)" fill="#777777"/>
<rect x="336.402" y="488.828" width="9.79796" height="5.65685" rx="3" transform="rotate(90 336.402 488.828)" fill="#131313"/>
<rect x="360.651" y="502.828" width="9.79796" height="5.65685" rx="3" transform="rotate(90 360.651 502.828)" fill="#131313"/>
<rect width="8" height="8" rx="3" transform="matrix(0.866025 0.5 -0.866025 0.5 384.899 516.828)" fill="#777777"/>
<rect width="8" height="8" rx="3" transform="matrix(0.866025 0.5 -0.866025 0.5 409.148 530.828)" fill="#777777"/>
<rect x="433.397" y="544.828" width="9.79796" height="5.65685" rx="3" transform="rotate(90 433.397 544.828)" fill="#131313"/>
<rect x="457.646" y="558.828" width="9.79796" height="5.65685" rx="3" transform="rotate(90 457.646 558.828)" fill="#131313"/>
<rect x="481.894" y="572.828" width="9.79796" height="5.65685" rx="3" transform="rotate(90 481.894 572.828)" fill="#131313"/>
<rect x="506.143" y="586.828" width="9.79796" height="5.65685" rx="3" transform="rotate(90 506.143 586.828)" fill="#131313"/>
<rect width="8" height="8" rx="3" transform="matrix(0.866025 0.5 -0.866025 0.5 93.9148 376.828)" fill="#777777"/>
<rect width="8" height="8" rx="3" transform="matrix(0.866025 0.5 -0.866025 0.5 118.163 390.828)" fill="#777777"/>
<rect x="142.412" y="404.828" width="9.79796" height="5.65685" rx="3" transform="rotate(90 142.412 404.828)" fill="#131313"/>
<rect width="8" height="8" rx="3" transform="matrix(0.866025 0.5 -0.866025 0.5 166.661 418.828)" fill="#777777"/>
<rect x="190.91" y="432.828" width="9.79796" height="5.65685" rx="3" transform="rotate(90 190.91 432.828)" fill="#131313"/>
<rect width="8" height="8" rx="3" transform="matrix(0.866025 0.5 -0.866025 0.5 215.158 446.828)" fill="#777777"/>
<rect x="239.407" y="460.828" width="9.79796" height="5.65685" rx="3" transform="rotate(90 239.407 460.828)" fill="#131313"/>
<rect width="8" height="8" rx="3" transform="matrix(0.866025 0.5 -0.866025 0.5 263.656 474.828)" fill="#777777"/>
<rect width="8" height="8" rx="3" transform="matrix(0.866025 0.5 -0.866025 0.5 287.905 488.828)" fill="#777777"/>
<rect width="8" height="8" rx="3" transform="matrix(0.866025 0.5 -0.866025 0.5 312.153 502.828)" fill="#777777"/>
<rect x="336.402" y="516.828" width="9.79796" height="5.65685" rx="3" transform="rotate(90 336.402 516.828)" fill="#131313"/>
<rect x="360.651" y="530.828" width="9.79796" height="5.65685" rx="3" transform="rotate(90 360.651 530.828)" fill="#131313"/>
<rect width="8" height="8" rx="3" transform="matrix(0.866025 0.5 -0.866025 0.5 384.899 544.828)" fill="#777777"/>
<rect width="8" height="8" rx="3" transform="matrix(0.866025 0.5 -0.866025 0.5 409.148 558.828)" fill="#777777"/>
<rect width="8" height="8" rx="3" transform="matrix(0.866025 0.5 -0.866025 0.5 433.397 572.828)" fill="#777777"/>
<rect width="8" height="8" rx="3" transform="matrix(0.866025 0.5 -0.866025 0.5 457.646 586.828)" fill="#777777"/>
<rect width="8" height="8" rx="3" transform="matrix(0.866025 0.5 -0.866025 0.5 69.666 390.828)" fill="#777777"/>
<rect width="8" height="8" rx="3" transform="matrix(0.866025 0.5 -0.866025 0.5 93.9148 404.828)" fill="#777777"/>
<rect x="118.163" y="418.828" width="9.79796" height="5.65685" rx="3" transform="rotate(90 118.163 418.828)" fill="#131313"/>
<rect width="8" height="8" rx="3" transform="matrix(0.866025 0.5 -0.866025 0.5 142.412 432.828)" fill="#777777"/>
<rect x="166.661" y="446.828" width="9.79796" height="5.65685" rx="3" transform="rotate(90 166.661 446.828)" fill="#131313"/>
<rect width="8" height="8" rx="3" transform="matrix(0.866025 0.5 -0.866025 0.5 190.91 460.828)" fill="#777777"/>
<rect width="8" height="8" rx="3" transform="matrix(0.866025 0.5 -0.866025 0.5 215.158 474.828)" fill="#777777"/>
<rect x="239.407" y="488.828" width="9.79796" height="5.65685" rx="3" transform="rotate(90 239.407 488.828)" fill="#131313"/>
<rect width="8" height="8" rx="3" transform="matrix(0.866025 0.5 -0.866025 0.5 263.656 502.828)" fill="#777777"/>
<rect x="287.905" y="516.828" width="9.79796" height="5.65685" rx="3" transform="rotate(90 287.905 516.828)" fill="#131313"/>
<rect width="8" height="8" rx="3" transform="matrix(0.866025 0.5 -0.866025 0.5 312.153 530.828)" fill="#777777"/>
<rect width="8" height="8" rx="3" transform="matrix(0.866025 0.5 -0.866025 0.5 336.402 544.828)" fill="#777777"/>
<rect width="8" height="8" rx="3" transform="matrix(0.866025 0.5 -0.866025 0.5 360.651 558.828)" fill="#777777"/>
<rect width="8" height="8" rx="3" transform="matrix(0.866025 0.5 -0.866025 0.5 384.899 572.828)" fill="#777777"/>
<rect width="8" height="8" rx="3" transform="matrix(0.866025 0.5 -0.866025 0.5 409.148 586.828)" fill="#777777"/>
<rect width="8" height="8" rx="3" transform="matrix(0.866025 0.5 -0.866025 0.5 45.4172 404.828)" fill="#777777"/>
<rect x="69.666" y="418.828" width="9.79796" height="5.65685" rx="3" transform="rotate(90 69.666 418.828)" fill="#131313"/>
<rect width="8" height="8" rx="3" transform="matrix(0.866025 0.5 -0.866025 0.5 93.9148 432.828)" fill="#777777"/>
<rect width="8" height="8" rx="3" transform="matrix(0.866025 0.5 -0.866025 0.5 118.163 446.828)" fill="#777777"/>
<rect width="8" height="8" rx="3" transform="matrix(0.866025 0.5 -0.866025 0.5 142.412 460.828)" fill="#777777"/>
<rect x="166.661" y="474.828" width="9.79796" height="5.65685" rx="3" transform="rotate(90 166.661 474.828)" fill="#131313"/>
<rect x="190.91" y="488.828" width="9.79796" height="5.65685" rx="3" transform="rotate(90 190.91 488.828)" fill="#131313"/>
<rect width="8" height="8" rx="3" transform="matrix(0.866025 0.5 -0.866025 0.5 215.158 502.828)" fill="#777777"/>
<rect width="8" height="8" rx="3" transform="matrix(0.866025 0.5 -0.866025 0.5 239.407 516.828)" fill="#777777"/>
<rect x="263.656" y="530.828" width="9.79796" height="5.65685" rx="3" transform="rotate(90 263.656 530.828)" fill="#131313"/>
<rect x="287.905" y="544.828" width="9.79796" height="5.65685" rx="3" transform="rotate(90 287.905 544.828)" fill="#131313"/>
<rect x="312.153" y="558.828" width="9.79796" height="5.65685" rx="3" transform="rotate(90 312.153 558.828)" fill="#131313"/>
<rect width="8" height="8" rx="3" transform="matrix(0.866025 0.5 -0.866025 0.5 336.402 572.828)" fill="#777777"/>
<rect width="8" height="8" rx="3" transform="matrix(0.866025 0.5 -0.866025 0.5 360.651 586.828)" fill="#777777"/>
<rect x="21.1687" y="418.828" width="9.79796" height="5.65685" rx="3" transform="rotate(90 21.1687 418.828)" fill="#131313"/>
<rect width="8" height="8" rx="3" transform="matrix(0.866025 0.5 -0.866025 0.5 45.4172 432.828)" fill="#777777"/>
<rect x="69.666" y="446.828" width="9.79796" height="5.65685" rx="3" transform="rotate(90 69.666 446.828)" fill="#131313"/>
<rect x="93.9148" y="460.828" width="9.79796" height="5.65685" rx="3" transform="rotate(90 93.9148 460.828)" fill="#131313"/>
<rect width="8" height="8" rx="3" transform="matrix(0.866025 0.5 -0.866025 0.5 118.163 474.828)" fill="#777777"/>
<rect x="142.412" y="488.828" width="9.79796" height="5.65685" rx="3" transform="rotate(90 142.412 488.828)" fill="#131313"/>
<rect width="8" height="8" rx="3" transform="matrix(0.866025 0.5 -0.866025 0.5 166.661 502.828)" fill="#777777"/>
<rect width="8" height="8" rx="3" transform="matrix(0.866025 0.5 -0.866025 0.5 190.91 516.828)" fill="#777777"/>
<rect x="215.158" y="530.828" width="9.79796" height="5.65685" rx="3" transform="rotate(90 215.158 530.828)" fill="#131313"/>
<rect x="239.407" y="544.828" width="9.79796" height="5.65685" rx="3" transform="rotate(90 239.407 544.828)" fill="#131313"/>
<rect width="8" height="8" rx="3" transform="matrix(0.866025 0.5 -0.866025 0.5 263.656 558.828)" fill="#777777"/>
<rect width="8" height="8" rx="3" transform="matrix(0.866025 0.5 -0.866025 0.5 287.905 572.828)" fill="#777777"/>
<rect width="8" height="8" rx="3" transform="matrix(0.866025 0.5 -0.866025 0.5 312.153 586.828)" fill="#777777"/>
<rect x="21.1687" y="446.828" width="9.79796" height="5.65685" rx="3" transform="rotate(90 21.1687 446.828)" fill="#131313"/>
<rect width="8" height="8" rx="3" transform="matrix(0.866025 0.5 -0.866025 0.5 45.4172 460.828)" fill="#777777"/>
<rect x="69.666" y="474.828" width="9.79796" height="5.65685" rx="3" transform="rotate(90 69.666 474.828)" fill="#131313"/>
<rect width="8" height="8" rx="3" transform="matrix(0.866025 0.5 -0.866025 0.5 93.9148 488.828)" fill="#777777"/>
<rect x="118.163" y="502.828" width="9.79796" height="5.65685" rx="3" transform="rotate(90 118.163 502.828)" fill="#131313"/>
<rect width="8" height="8" rx="3" transform="matrix(0.866025 0.5 -0.866025 0.5 142.412 516.828)" fill="#777777"/>
<rect x="166.661" y="530.828" width="9.79796" height="5.65685" rx="3" transform="rotate(90 166.661 530.828)" fill="#131313"/>
<rect width="8" height="8" rx="3" transform="matrix(0.866025 0.5 -0.866025 0.5 190.91 544.828)" fill="#777777"/>
<rect width="8" height="8" rx="3" transform="matrix(0.866025 0.5 -0.866025 0.5 215.158 558.828)" fill="#777777"/>
<rect width="8" height="8" rx="3" transform="matrix(0.866025 0.5 -0.866025 0.5 239.407 572.828)" fill="#777777"/>
<rect width="8" height="8" rx="3" transform="matrix(0.866025 0.5 -0.866025 0.5 263.656 586.828)" fill="#777777"/>
<rect width="8" height="8" rx="3" transform="matrix(0.866025 0.5 -0.866025 0.5 21.1687 474.828)" fill="#777777"/>
<rect x="45.4172" y="488.828" width="9.79796" height="5.65685" rx="3" transform="rotate(90 45.4172 488.828)" fill="#131313"/>
<rect x="69.666" y="502.828" width="9.79796" height="5.65685" rx="3" transform="rotate(90 69.666 502.828)" fill="#131313"/>
<rect width="8" height="8" rx="3" transform="matrix(0.866025 0.5 -0.866025 0.5 93.9148 516.828)" fill="#777777"/>
<rect x="118.163" y="530.828" width="9.79796" height="5.65685" rx="3" transform="rotate(90 118.163 530.828)" fill="#131313"/>
<rect x="142.412" y="544.828" width="9.79796" height="5.65685" rx="3" transform="rotate(90 142.412 544.828)" fill="#131313"/>
<rect width="8" height="8" rx="3" transform="matrix(0.866025 0.5 -0.866025 0.5 166.661 558.828)" fill="#777777"/>
<rect width="8" height="8" rx="3" transform="matrix(0.866025 0.5 -0.866025 0.5 190.91 572.828)" fill="#777777"/>
<rect x="215.158" y="586.828" width="9.79796" height="5.65685" rx="3" transform="rotate(90 215.158 586.828)" fill="#131313"/>
<rect width="8" height="8" rx="3" transform="matrix(0.866025 0.5 -0.866025 0.5 21.1687 502.828)" fill="#777777"/>
<rect width="8" height="8" rx="3" transform="matrix(0.866025 0.5 -0.866025 0.5 45.4172 516.828)" fill="#777777"/>
<rect x="69.666" y="530.828" width="9.79796" height="5.65685" rx="3" transform="rotate(90 69.666 530.828)" fill="#131313"/>
<rect x="93.9148" y="544.828" width="9.79796" height="5.65685" rx="3" transform="rotate(90 93.9148 544.828)" fill="#131313"/>
<rect width="8" height="8" rx="3" transform="matrix(0.866025 0.5 -0.866025 0.5 118.163 558.828)" fill="#777777"/>
<rect x="142.412" y="572.828" width="9.79796" height="5.65685" rx="3" transform="rotate(90 142.412 572.828)" fill="#131313"/>
<rect width="8" height="8" rx="3" transform="matrix(0.866025 0.5 -0.866025 0.5 166.661 586.828)" fill="#777777"/>
<rect width="8" height="8" rx="3" transform="matrix(0.866025 0.5 -0.866025 0.5 21.1687 530.828)" fill="#777777"/>
<rect width="8" height="8" rx="3" transform="matrix(0.866025 0.5 -0.866025 0.5 45.4172 544.828)" fill="#777777"/>
<rect x="69.666" y="558.828" width="9.79796" height="5.65685" rx="3" transform="rotate(90 69.666 558.828)" fill="#131313"/>
<rect width="8" height="8" rx="3" transform="matrix(0.866025 0.5 -0.866025 0.5 93.9148 572.828)" fill="#777777"/>
<rect width="8" height="8" rx="3" transform="matrix(0.866025 0.5 -0.866025 0.5 118.163 586.828)" fill="#777777"/>
<rect width="8" height="8" rx="3" transform="matrix(0.866025 0.5 -0.866025 0.5 -3.08008 544.828)" fill="#777777"/>
<rect width="8" height="8" rx="3" transform="matrix(0.866025 0.5 -0.866025 0.5 21.1687 558.828)" fill="#777777"/>
<rect width="8" height="8" rx="3" transform="matrix(0.866025 0.5 -0.866025 0.5 45.4172 572.828)" fill="#777777"/>
<rect x="69.666" y="586.828" width="9.79796" height="5.65685" rx="3" transform="rotate(90 69.666 586.828)" fill="#131313"/>
<rect x="21.1687" y="586.828" width="9.79796" height="5.65685" rx="3" transform="rotate(90 21.1687 586.828)" fill="#131313"/>
</g>
</g>
</g>
<defs>
<linearGradient id="paint0_linear" x1="600" y1="0" x2="600" y2="600" gradientUnits="userSpaceOnUse">
<stop stop-color="#FBD303"/>
<stop offset="1" stop-color="#FB4D03"/>
</linearGradient>
</defs>
</svg>
