<svg width="134" height="133" viewBox="0 0 134 133" fill="none" xmlns="http://www.w3.org/2000/svg">
<g opacity="0.7">
<path d="M15.2567 63.1031L4.47517 66.5122L4.61462 64.6131L13.3693 62.0025L5.09142 58.1193L5.22658 56.2786L15.3902 61.2843L15.2567 63.1031Z" fill="white"/>
<path d="M16.9968 52.6744L6.92454 49.6975L7.42691 47.9978L17.4991 50.9746L16.9968 52.6744Z" fill="white"/>
<path d="M12.3141 39.9157L14.8174 41.2607L17.2439 36.7443L18.644 37.4965L16.2175 42.0129L18.766 43.3822L21.5635 38.1754L22.9635 38.9276L19.3272 45.6958L10.0751 40.7249L13.6247 34.1181L15.0248 34.8703L12.3141 39.9157Z" fill="white"/>
<path d="M33.0822 27.3457L25.6208 23.1528L29.4634 30.8101L28.1407 32.0763L18.3646 26.8953L19.7402 25.5785L27.487 29.9848L23.4273 22.069L24.6711 20.858L32.4179 25.2643L28.3428 17.343L29.6655 16.0768L34.3943 26.0896L33.0822 27.3457Z" fill="white"/>
<path d="M56.0995 16.0611L53.9477 8.51773L52.5937 15.9122L51.4803 16.2276L46.4567 10.6395L48.5944 18.1868L46.9877 18.6419L44.1254 8.5365L46.1479 7.96365L51.3833 13.7353L52.8003 6.07943L54.8087 5.51057L57.671 15.616L56.0995 16.0611Z" fill="white"/>
<path d="M69.1942 4.71542C70.2234 4.76311 71.1514 5.04075 71.9784 5.54833C72.8105 6.05125 73.4517 6.71885 73.9019 7.55114C74.3524 8.37854 74.5549 9.28244 74.5095 10.2628C74.4636 11.253 74.178 12.1416 73.6527 12.9287C73.1275 13.7157 72.4272 14.3236 71.5519 14.7523C70.6815 15.1812 69.7317 15.3718 68.7026 15.3242C67.6734 15.2765 66.7453 14.9988 65.9183 14.4912C65.0913 13.9837 64.4527 13.3137 64.0025 12.4815C63.5522 11.6492 63.35 10.738 63.3959 9.74782C63.4418 8.75767 63.7272 7.87393 64.252 7.09661C64.7771 6.31442 65.4747 5.7113 66.3448 5.28726C67.2152 4.85834 68.165 4.66773 69.1942 4.71542ZM69.1352 6.30375C68.4573 6.27233 67.8204 6.40901 67.2246 6.71379C66.6336 7.01879 66.1544 7.44628 65.7867 7.99626C65.4193 8.54136 65.2199 9.1529 65.1884 9.83088C65.157 10.5089 65.3012 11.1412 65.6211 11.7279C65.941 12.3147 66.3784 12.7895 66.9335 13.1525C67.4937 13.5109 68.1128 13.7058 68.7908 13.7372C69.4688 13.7686 70.1007 13.6341 70.6865 13.3338C71.2725 13.0286 71.7447 12.5958 72.1031 12.0357C72.4663 11.4757 72.6636 10.8567 72.695 10.1787C72.7265 9.50076 72.5869 8.87351 72.2763 8.297C71.9709 7.71583 71.5405 7.24618 70.9852 6.88806C70.4348 6.53016 69.8181 6.3354 69.1352 6.30375Z" fill="white"/>
<path d="M84.7185 15.2117C84.6232 15.1884 84.4696 15.1392 84.2579 15.0642L81.9104 14.2334L80.8547 17.2161L79.1838 16.6247L82.6882 6.72366L86.7066 8.14595C87.9678 8.59235 88.844 9.23396 89.3351 10.0708C89.8262 10.9076 89.8812 11.8646 89.4999 12.9417C89.2197 13.7334 88.8054 14.3404 88.2571 14.7627C87.7105 15.1804 87.0624 15.4017 86.3129 15.4264L87.3587 19.5182L85.4669 18.8486L84.7185 15.2117ZM84.7882 13.566C85.5615 13.8397 86.2148 13.8818 86.748 13.6924C87.2812 13.5031 87.6642 13.0792 87.8972 12.421C88.1237 11.7812 88.0868 11.2269 87.7866 10.758C87.4863 10.2892 86.9496 9.91793 86.1763 9.64422L83.8287 8.81333L82.4407 12.7351L84.7882 13.566Z" fill="white"/>
<path d="M98.7147 15.7134L97.0938 18.0476L101.305 20.9719L100.399 22.2774L96.1873 19.3531L94.5372 21.7294L99.3921 25.1007L98.4856 26.4061L92.1748 22.0239L98.1654 13.397L104.326 17.6748L103.419 18.9802L98.7147 15.7134Z" fill="white"/>
</g>
<g opacity="0.7">
<path d="M117.627 72.5589L128.587 69.7773L128.339 71.6653L119.448 73.7666L127.488 78.1207L127.247 79.9506L117.389 74.367L117.627 72.5589Z" fill="white"/>
<path d="M115.296 82.819L125.184 86.3606L124.586 88.0293L114.698 84.4877L115.296 82.819Z" fill="white"/>
<path d="M119.12 96.0271L116.7 94.537L114.012 98.9025L112.659 98.0691L115.347 93.7035L112.884 92.1865L109.784 97.2194L108.431 96.386L112.46 89.8439L121.403 95.3513L117.47 101.737L116.117 100.904L119.12 96.0271Z" fill="white"/>
<path d="M97.6969 107.266L104.902 111.886L101.511 104.018L102.905 102.831L112.363 108.572L110.914 109.806L103.436 104.957L107.029 113.096L105.717 114.232L98.2391 109.383L101.847 117.528L100.453 118.715L96.314 108.444L97.6969 107.266Z" fill="white"/>
<path d="M74.0674 117.162L75.7859 124.816L77.559 117.51L78.6886 117.259L83.3856 123.124L81.6813 115.467L83.3114 115.104L85.5933 125.356L83.5414 125.813L78.6433 119.752L76.7925 127.315L74.755 127.769L72.4731 117.517L74.0674 117.162Z" fill="white"/>
<path d="M60.3052 127.71C59.2805 127.603 58.37 127.272 57.5737 126.718C56.772 126.168 56.1705 125.464 55.7691 124.607C55.3671 123.755 55.2172 122.841 55.3191 121.865C55.4221 120.879 55.7586 120.008 56.3284 119.253C56.8983 118.498 57.6325 117.931 58.5311 117.554C59.4248 117.176 60.384 117.04 61.4087 117.147C62.4334 117.254 63.3439 117.585 64.1402 118.14C64.9365 118.694 65.5354 119.4 65.9368 120.257C66.3382 121.114 66.4874 122.035 66.3844 123.021C66.2814 124.007 65.9455 124.873 65.3767 125.618C64.8073 126.369 64.076 126.931 63.1828 127.304C62.2891 127.682 61.3299 127.817 60.3052 127.71ZM60.4558 126.128C61.1308 126.198 61.7745 126.099 62.3869 125.829C62.9945 125.558 63.4977 125.159 63.8965 124.631C64.2948 124.109 64.5292 123.509 64.5997 122.834C64.6702 122.159 64.5628 121.52 64.2773 120.916C63.9919 120.311 63.5826 119.812 63.0494 119.418C62.5108 119.027 61.904 118.797 61.229 118.727C60.5539 118.656 59.9153 118.754 59.3131 119.02C58.7104 119.291 58.214 119.695 57.8239 120.234C57.429 120.772 57.1962 121.379 57.1257 122.054C57.0552 122.729 57.1583 123.363 57.4351 123.956C57.7064 124.554 58.109 125.048 58.6427 125.438C59.1715 125.827 59.7759 126.057 60.4558 126.128Z" fill="white"/>
<path d="M45.4115 116.298C45.5053 116.327 45.6559 116.384 45.863 116.471L48.1602 117.433L49.3818 114.514L51.0169 115.198L46.9616 124.887L43.0294 123.241C41.7953 122.724 40.9566 122.035 40.5133 121.171C40.0699 120.308 40.0689 119.35 40.51 118.296C40.8343 117.521 41.282 116.938 41.8532 116.548C42.4225 116.161 43.082 115.977 43.8316 115.994L43.0175 111.85L44.8687 112.625L45.4115 116.298ZM45.2494 117.937C44.4927 117.621 43.8428 117.542 43.2998 117.701C42.7568 117.86 42.3505 118.262 42.0809 118.906C41.8189 119.532 41.8245 120.087 42.098 120.572C42.3714 121.057 42.8864 121.458 43.6431 121.775L45.9402 122.736L47.5465 118.899L45.2494 117.937Z" fill="white"/>
<path d="M31.4321 114.923L33.1865 112.687L29.1532 109.522L30.1344 108.272L34.1677 111.437L35.9537 109.161L31.3039 105.512L32.2851 104.261L38.3293 109.005L31.8453 117.267L25.9451 112.637L26.9263 111.387L31.4321 114.923Z" fill="white"/>
</g>
</svg>
