<?xml version="1.0" encoding="utf-8"?>
<!-- Generator: Adobe Illustrator 24.3.0, SVG Export Plug-In . SVG Version: 6.00 Build 0)  -->
<svg version="1.1" id="Layer_1" xmlns="http://www.w3.org/2000/svg" xmlns:xlink="http://www.w3.org/1999/xlink" x="0px" y="0px"
	 viewBox="0 0 274.6 101.1" style="enable-background:new 0 0 274.6 101.1;" xml:space="preserve">
<style type="text/css">
	.st0{fill:#010101;}
</style>
<path class="st0" d="M86.3,14.8C76.7,5.3,64,0,50.5,0C22.7,0,0,22.7,0,50.5c0,27.9,22.7,50.5,50.5,50.5c13.5,0,26.2-5.3,35.7-14.8
	c9.6-9.6,14.8-22.2,14.8-35.7C101.1,37,95.8,24.4,86.3,14.8z M50.5,98.5C24.1,98.5,2.6,77,2.6,50.5c0-26.4,21.5-47.9,47.9-47.9
	c26.4,0,47.9,21.5,47.9,47.9C98.5,77,77,98.5,50.5,98.5z"/>
<path class="st0" d="M55.7,45.2c-7.8-3.6-14.6-6.6-14.1-14.1c0.2-2.9,2.3-4.7,4-5.6c2.2-1.2,5-1.8,7.5-1.6c6.7,0.4,11.9,3.3,17,9.1
	l2-1.7c-5.5-6.3-11.5-9.5-18.8-10c-0.6,0-1.1,0-1.7,0c-0.1,0-0.2,0-0.3,0c-4.8,0-10,1.6-14,4.2c-4.7,3.1-7.4,7.4-7.4,12.1
	C29.6,48.9,39,52.8,47.3,56.2c7.7,3.2,14.3,5.9,14.2,13.4c-0.1,5.1-7,7.8-11.9,7.8c-0.1,0-0.1,0-0.2,0v0h0c-7.2-0.1-13.7-3.1-19.1-9
	l-1.9,1.8c5.9,6.3,13.1,9.7,21,9.8c0.1,0,0.2,0,0.4,0c5.1,0,10.6-1.3,14.8-3.7c5.2-2.8,8.2-6.9,8.5-11.5
	C73.7,53.4,64.1,49.1,55.7,45.2z M70.4,64.6c-0.3,4.7-4,7.7-7.1,9.4c-0.3,0.2-0.6,0.3-0.9,0.4c1.1-1.4,1.7-3,1.8-4.9
	c0.1-9.3-7.9-12.6-15.8-15.8c-8.3-3.4-16.1-6.6-16-16.3c0-3.8,2.3-7.3,6.3-9.9c0.6-0.4,1.2-0.8,1.9-1.1c-0.9,1.3-1.5,2.8-1.6,4.4
	c-0.6,9.3,7.6,13,15.6,16.6C63,51.4,71,55.1,70.4,64.6z"/>
<path class="st0" d="M131.6,47.3c-1.7,0-3.4-0.3-5.1-0.8c-1.7-0.5-3.1-1.3-4.3-2.4l2-3.3c1.3,0.9,2.5,1.6,3.7,2
	c1.2,0.4,2.4,0.7,3.6,0.7c1,0,1.9-0.2,2.5-0.6c0.6-0.4,0.9-0.9,0.9-1.7c0-0.7-0.4-1.3-1.1-1.6c-0.7-0.3-1.9-0.7-3.5-1.2
	c-1.3-0.4-2.5-0.7-3.4-1.1c-0.9-0.3-1.7-0.7-2.3-1.2c-0.6-0.4-1-0.9-1.3-1.5c-0.3-0.6-0.4-1.2-0.4-2c0-1,0.2-2,0.6-2.8
	c0.4-0.8,1-1.6,1.7-2.2c0.7-0.6,1.6-1,2.6-1.3c1-0.3,2.1-0.5,3.2-0.5c1.5,0,3,0.2,4.4,0.7c1.3,0.4,2.6,1.2,3.7,2.2l-2.1,3.2
	c-1-0.8-2.1-1.4-3.1-1.7c-1-0.4-2-0.5-2.9-0.5c-0.9,0-1.6,0.2-2.2,0.5c-0.6,0.4-0.9,1-0.9,1.8c0,0.4,0.1,0.7,0.2,0.9
	c0.1,0.2,0.4,0.4,0.7,0.6c0.3,0.2,0.7,0.4,1.2,0.5c0.5,0.2,1.2,0.4,1.9,0.5c1.4,0.4,2.6,0.7,3.6,1.1c1,0.4,1.8,0.8,2.5,1.3
	c0.6,0.5,1.1,1,1.4,1.6c0.3,0.6,0.4,1.3,0.4,2.2c0,2-0.8,3.6-2.2,4.8C136.2,46.7,134.2,47.3,131.6,47.3z"/>
<path class="st0" d="M165.4,37.9H149c0.3,1.5,1,2.8,2.3,3.7c1.2,0.9,2.7,1.3,4.5,1.3c2.3,0,4.2-0.8,5.7-2.3l2.6,3
	c-0.9,1.1-2.1,2-3.6,2.6c-1.4,0.6-3.1,0.9-4.9,0.9c-2.3,0-4.4-0.4-6.1-1.4s-3.1-2.2-4.1-3.8c-1-1.6-1.4-3.5-1.4-5.6
	c0-2.1,0.5-3.9,1.4-5.5c0.9-1.6,2.2-2.9,3.9-3.8c1.7-0.9,3.5-1.4,5.6-1.4c2.1,0,3.9,0.4,5.5,1.3c1.6,0.9,2.9,2.2,3.8,3.8
	c0.9,1.6,1.3,3.5,1.3,5.7C165.5,36.8,165.5,37.3,165.4,37.9z M150.9,31c-1.1,0.9-1.8,2.2-2,3.7h11.9c-0.2-1.5-0.9-2.7-1.9-3.7
	c-1.1-0.9-2.4-1.4-4-1.4C153.3,29.5,152,30,150.9,31z"/>
<path class="st0" d="M175.6,45.8c-1.7-0.9-3.1-2.2-4-3.8c-1-1.6-1.5-3.5-1.5-5.6c0-2.1,0.5-3.9,1.5-5.6c1-1.6,2.3-2.9,4-3.8
	c1.7-0.9,3.7-1.4,5.9-1.4c2.1,0,3.9,0.4,5.4,1.3c1.6,0.9,2.7,2.1,3.5,3.6l-3.8,2.2c-0.6-1-1.3-1.7-2.3-2.2c-0.9-0.5-1.9-0.7-3-0.7
	c-1.8,0-3.4,0.6-4.6,1.8c-1.2,1.2-1.8,2.8-1.8,4.8c0,2,0.6,3.6,1.8,4.8c1.2,1.2,2.7,1.8,4.6,1.8c1.1,0,2.1-0.2,3-0.7
	c0.9-0.5,1.7-1.2,2.3-2.2l3.8,2.2c-0.8,1.6-2,2.8-3.6,3.6c-1.6,0.9-3.4,1.3-5.4,1.3C179.2,47.1,177.3,46.7,175.6,45.8z"/>
<path class="st0" d="M208.3,25.6v4.7c-0.4-0.1-0.8-0.1-1.1-0.1c-1.9,0-3.4,0.6-4.5,1.7c-1.1,1.1-1.6,2.7-1.6,4.8v10.2h-4.9v-21h4.7
	v3.1C202.3,26.7,204.8,25.6,208.3,25.6z"/>
<path class="st0" d="M233.2,37.9h-16.5c0.3,1.5,1,2.8,2.3,3.7c1.2,0.9,2.7,1.3,4.5,1.3c2.3,0,4.2-0.8,5.7-2.3l2.6,3
	c-0.9,1.1-2.1,2-3.6,2.6c-1.4,0.6-3.1,0.9-4.9,0.9c-2.3,0-4.4-0.4-6.1-1.4s-3.1-2.2-4.1-3.8c-1-1.6-1.4-3.5-1.4-5.6
	c0-2.1,0.5-3.9,1.4-5.5c0.9-1.6,2.2-2.9,3.9-3.8c1.7-0.9,3.5-1.4,5.6-1.4c2.1,0,3.9,0.4,5.5,1.3c1.6,0.9,2.9,2.2,3.8,3.8
	c0.9,1.6,1.3,3.5,1.3,5.7C233.3,36.8,233.3,37.3,233.2,37.9z M218.7,31c-1.1,0.9-1.8,2.2-2,3.7h11.9c-0.2-1.5-0.9-2.7-1.9-3.7
	c-1.1-0.9-2.4-1.4-4-1.4C221.1,29.5,219.8,30,218.7,31z"/>
<path class="st0" d="M252.2,45.7c-0.6,0.5-1.3,0.8-2.1,1.1c-0.8,0.2-1.7,0.4-2.6,0.4c-2.3,0-4.1-0.6-5.3-1.8c-1.3-1.2-1.9-3-1.9-5.3
	V29.9h-3.5V26h3.5v-4.8h4.9V26h5.6v3.9h-5.6v10c0,1,0.3,1.8,0.8,2.3c0.5,0.5,1.2,0.8,2.2,0.8c1.1,0,2-0.3,2.7-0.9L252.2,45.7z"/>
<path class="st0" d="M139.6,61c1.5,1.5,2.3,3.7,2.3,6.6v12h-2.8V67.9c0-2.2-0.5-3.8-1.6-4.9c-1.1-1.1-2.6-1.7-4.6-1.7
	c-2.2,0-4,0.7-5.3,2c-1.3,1.3-1.9,3.1-1.9,5.5v10.9h-2.8V58.9h2.7v3.8c0.8-1.3,1.8-2.2,3.2-2.9c1.3-0.7,2.9-1,4.7-1
	C136,58.7,138.1,59.5,139.6,61z"/>
<path class="st0" d="M167.3,70.1H150c0.2,2.2,1,3.9,2.5,5.2c1.5,1.3,3.4,2,5.7,2c1.3,0,2.5-0.2,3.5-0.7c1.1-0.4,2-1.1,2.8-2l1.6,1.8
	c-0.9,1.1-2.1,1.9-3.5,2.5c-1.4,0.6-2.9,0.9-4.5,0.9c-2.1,0-4-0.4-5.7-1.3c-1.6-0.9-2.9-2.2-3.8-3.8c-0.9-1.6-1.4-3.4-1.4-5.4
	c0-2,0.4-3.8,1.3-5.4c0.9-1.6,2.1-2.8,3.6-3.7c1.5-0.9,3.3-1.3,5.2-1.3s3.6,0.4,5.2,1.3c1.5,0.9,2.7,2.1,3.6,3.7
	c0.9,1.6,1.3,3.4,1.3,5.4L167.3,70.1z M152.3,63c-1.3,1.3-2.1,2.9-2.3,5h14.7c-0.2-2.1-0.9-3.7-2.3-5c-1.3-1.3-3-1.9-5.1-1.9
	C155.3,61.1,153.7,61.8,152.3,63z"/>
<path class="st0" d="M183.1,78.3c-0.5,0.5-1.2,0.8-1.9,1.1c-0.8,0.3-1.6,0.4-2.4,0.4c-1.9,0-3.4-0.5-4.5-1.6c-1-1-1.6-2.5-1.6-4.4
	V61.3h-3.7v-2.4h3.7v-4.5h2.8v4.5h6.3v2.4h-6.3v12.4c0,1.2,0.3,2.2,0.9,2.8c0.6,0.6,1.5,1,2.6,1c0.6,0,1.1-0.1,1.7-0.3
	c0.5-0.2,1-0.4,1.4-0.8L183.1,78.3z"/>
<path class="st0" d="M212.1,59.1h3.3l-8.7,20.6h-2.9l-4.1-10l-4.1,10h-2.9l-8.7-20.6h3.3l7.1,17.1l3.5-8.5l-3.5-8.5h2.9l2.5,6.6
	l2.5-6.6h2.9l-3.5,8.5l3.5,8.5L212.1,59.1z"/>
<path class="st0" d="M226.7,80c-1.5,0-2.9-0.3-4.1-0.9c-1.2-0.6-2.3-1.3-3.2-2.3c-0.9-1-1.6-2.1-2.1-3.4c-0.5-1.3-0.8-2.6-0.8-4
	c0-1.4,0.3-2.8,0.8-4.1c0.5-1.3,1.2-2.4,2.1-3.4c0.9-1,2-1.8,3.2-2.3c1.2-0.6,2.6-0.9,4-0.9c1.5,0,2.8,0.3,4.1,0.9
	c1.3,0.6,2.3,1.3,3.2,2.3c0.9,1,1.6,2.1,2.1,3.4c0.5,1.3,0.8,2.6,0.8,4.1c0,1.4-0.3,2.8-0.8,4c-0.5,1.3-1.2,2.4-2.1,3.4
	c-0.9,1-2,1.8-3.2,2.3C229.6,79.7,228.2,80,226.7,80z M219.2,69.4c0,1.2,0.2,2.2,0.6,3.2c0.4,1,0.9,1.8,1.6,2.6
	c0.7,0.8,1.5,1.3,2.4,1.8c0.9,0.4,1.9,0.6,2.9,0.6s2-0.2,2.9-0.6c0.9-0.4,1.7-1,2.4-1.8c0.7-0.8,1.2-1.6,1.6-2.6
	c0.4-1,0.6-2.1,0.6-3.2c0-1.1-0.2-2.2-0.6-3.2c-0.4-1-0.9-1.9-1.6-2.6c-0.7-0.8-1.5-1.3-2.4-1.8c-0.9-0.4-1.9-0.6-2.9-0.6
	s-2,0.2-2.9,0.6c-0.9,0.4-1.7,1-2.4,1.8c-0.7,0.8-1.2,1.7-1.6,2.6C219.5,67.2,219.2,68.3,219.2,69.4z"/>
<path class="st0" d="M251.6,61.4c-1.8,0-3.4,0.5-4.7,1.5c-1.3,0.9-2.3,2.2-2.8,3.9v12.7h-2.7V59.1h2.5V64c0.8-1.6,1.8-2.8,3.1-3.7
	c1.3-0.9,2.7-1.3,4.1-1.3c0.2,0,0.4,0,0.5,0L251.6,61.4L251.6,61.4z"/>
<path class="st0" d="M271.7,79.6l-7.6-10.5l-4.4,4.1v6.4H257V50.9h2.7v19.5l11.5-11.3h3l-8.4,8.4l8.7,12.1H271.7z"/>
</svg>
