<svg id="Capa_1" enable-background="new 0 0 511.999 511.999" height="512" viewBox="0 0 511.999 511.999" width="512" xmlns="http://www.w3.org/2000/svg"><g><path d="m68.509 185.814c3.685 2.126 7.937 2.551 11.792 1.502 3.855-1.021 7.313-3.515 9.439-7.171 11.452-19.843 23.357-42.775 35.632-61.739 1.956-3.6 2.324-7.71 1.332-11.452-1.275-4.705-3.685-7.087-7.597-9.666-16.979-9.808-33.959-19.616-50.967-29.423l-50.967 88.3c17.122 9.891 34.214 19.756 51.336 29.649zm168.152.85c2.268 1.304 4.904 1.616 7.455.936 3.232-.851 4.479-2.41 6.236-4.989 1.134-2.24 1.304-4.734.708-7.03-.623-2.324-2.097-4.422-4.224-5.783l-53.404-30.841c-9.128-5.272-16.271-4.195-23.84-3.062-9.864 1.502-20.297 3.062-35.32-3.883l-28.403 49.21c19.843 12.501 27.298 23.102 34.696 33.619 7.087 10.063 14.117 20.041 34.754 31.975 20.636 11.905 42.803 23.414 63.043 26.759 19.019 3.147 39.855-2.976 50.031-20.58 2.125-3.685 2.381-8.079 1.247-12.189-1.645-5.925-4.904-9.184-9.808-12.444-27.639-15.959-55.305-31.919-82.942-47.877-3.486-2.013-4.677-6.463-2.664-9.921 2.013-3.487 6.463-4.677 9.949-2.665zm-183.289 7.143c-.964 4.904-1.729 9.893-2.353 14.939-.992 8.135-1.475 16.441-1.475 24.917 0 16.072 1.814 31.691 5.244 46.63 3.572 15.449 8.844 30.189 15.619 44.051 1.785 3.6.283 7.937-3.316 9.695-3.601 1.757-7.938.283-9.695-3.317-7.312-14.91-12.982-30.7-16.78-47.197-3.686-16.044-5.67-32.768-5.67-49.861 0-8.986.567-17.858 1.616-26.617.85-7.002 2.041-13.976 3.543-20.892l-36.453-21.035c-3.486-2.013-4.678-6.435-2.693-9.921l58.252-100.857c1.984-3.487 6.435-4.677 9.893-2.693l35.83 20.693c19.475-18.227 42.236-32.995 67.324-43.285 25.88-10.601 54.142-16.441 83.735-16.441 29.594 0 57.884 5.84 83.735 16.441 25.088 10.29 47.878 25.058 67.324 43.285l35.433-20.438c3.487-2.324 8.221-1.219 10.318 2.41l20.607 35.688c2.013 3.487.822 7.938-2.636 9.95-3.486 2.013-7.938.823-9.949-2.665l-16.981-29.423c-17.121 9.893-34.242 19.757-51.335 29.65-3.684 2.126-6.18 5.584-7.2 9.439-1.049 3.855-.623 8.079 1.502 11.764 11.85 20.438 23.613 40.932 35.434 61.398 2.126 3.685 5.612 6.179 9.439 7.2 3.855 1.02 8.108.624 11.764-1.502 17.121-9.921 34.271-19.758 51.393-29.65l-17.008-29.424c-1.984-3.487-.794-7.909 2.664-9.921 3.486-1.984 7.938-.794 9.922 2.664l20.607 35.717c2.013 3.486.793 7.908-2.665 9.921l-36.481 21.033c1.53 6.917 2.721 13.89 3.571 20.892 1.049 8.759 1.588 17.631 1.588 26.617 0 50.003-16.611 96.124-44.618 133.172-27.553 36.453-66.188 64.12-110.892 77.982v47.282c0 4.025-3.26 7.285-7.285 7.285h-116.475c-4.025 0-7.285-3.26-7.285-7.285v-47.282c-22.479-6.973-43.399-17.433-62.193-30.756-20.551-14.542-38.494-32.542-53.008-53.121-2.324-3.288-1.53-7.823 1.758-10.12 3.288-2.324 7.824-1.531 10.148 1.757 13.549 19.247 30.33 36.057 49.521 49.663 16.327 11.566 34.413 20.807 53.773 27.298v-3.997c0-8.277 3.373-15.818 8.815-21.26 3.714-3.713 8.42-6.463 13.635-7.852-1.304-12.104-6.32-18.425-11.111-24.406-6.406-8.05-12.444-15.619-12.444-31.266v-61.229c0-2.579.709-5.272 1.616-7.653-7.796-3.912-15.477-8.164-22.961-12.473-23.415-13.521-31.353-24.803-39.346-36.17-6.605-9.354-13.21-18.766-30.869-29.906-3.827 3.94-8.618 6.689-13.748 8.05-7.427 1.984-15.619 1.162-22.791-2.977zm64.743-113.84c2.891 1.644 5.782 3.316 8.674 4.96 7.144 4.139 11.962 10.829 13.975 18.256 1.361 5.074 1.389 10.516-.057 15.732 11.112 4.932 19.135 3.713 26.732 2.58 10.148-1.531 19.701-2.948 33.279 4.876l53.064 30.643c1.445.851 2.807 1.814 4.025 2.891 2.522-1.615 5.131-3.288 7.71-4.875 4.422-2.75 9.156-5.613 13.522-8.107 23.414-13.521 37.134-14.769 50.995-16.016 11.367-1.02 22.818-2.041 41.302-11.764-1.502-5.301-1.475-10.8-.085-15.959 1.984-7.427 6.803-14.089 13.975-18.228l8.646-4.989c-17.461-15.676-37.616-28.432-59.67-37.474-24.066-9.865-50.485-15.307-78.208-15.307s-54.142 5.442-78.208 15.307c-22.055 9.043-42.182 21.799-59.671 37.474zm147.147 92.438c2.324 9.581-1.389 19.644-9.326 25.427l31.152 17.972c5.585 2.778 10.857 8.674 13.72 14.06l32.089-18.51c3.486-2.013 7.936-.822 9.949 2.636 2.013 3.486.822 7.937-2.664 9.95l-32.457 18.737c-.936.539-1.956.85-2.948.935.227 3.855-.227 7.71-1.474 11.424 1.587 2.92 3.685 4.479 6.774 5.67 2.495.652 5.244.34 7.483-.936l53.037-30.643c8.447-4.904 11.169-10.431 14.599-19.105 3.629-9.298 7.512-19.106 21.033-28.659l-28.432-49.21c-20.751 10.914-33.677 12.076-46.489 13.21-12.246 1.105-24.378 2.211-45.043 14.145-3.543 2.013-8.163 4.819-13.039 7.852-2.804 1.729-5.498 3.458-7.964 5.045zm29.821 95.755c-15.874 18.482-35.66 23.103-56.863 20.098v28.773c0 4.025-3.288 7.285-7.313 7.285-4.024 0-7.284-3.26-7.284-7.285v-31.947c-6.436-1.842-12.898-4.224-19.39-7.002-.17.567-.255 1.077-.255 1.445v61.229c0 10.602 4.479 16.243 9.24 22.224 6.209 7.795 12.785 16.044 14.287 32.485h56.807c.793-19.843 4.478-31.068 12.586-48.586 1.672-3.628 6.009-5.216 9.666-3.544 3.628 1.672 5.216 6.009 3.543 9.638-7.257 15.704-10.545 25.654-11.254 43.398 5.33 1.361 10.064 4.139 13.834 7.909 5.442 5.442 8.844 12.983 8.844 21.26v3.997c39.912-13.352 74.41-38.58 99.299-71.49 26.136-34.583 41.641-77.67 41.641-124.385 0-8.476-.511-16.781-1.503-24.917-.595-5.046-1.389-10.035-2.324-14.939-2.636 1.531-5.271 3.062-7.908 4.592-7.172 4.139-15.363 4.96-22.791 2.977-5.102-1.361-9.836-4.054-13.635-7.909-9.808 7.172-12.756 14.712-15.561 21.827-3.714 9.468-7.229 18.369-20.439 26.164l-53.49 30.87c-1.53.879-3.09 1.559-4.677 2.098.566 9.326.822 18.765.822 28.12 0 5.188-.256 10.46-.795 15.591-.396 3.997-3.968 6.916-7.965 6.491-3.997-.397-6.889-3.969-6.491-7.966.511-4.706.681-9.383.681-14.117 0-9.326-.199-18.68-.822-28.006-3.914-1.162-7.542-3.345-10.49-6.378zm-90.029 157.381v59.272h101.906v-59.272c0-4.252-1.758-8.136-4.564-10.941-2.807-2.835-6.69-4.564-10.942-4.564h-70.895c-4.252 0-8.135 1.729-10.941 4.564-2.834 2.805-4.564 6.689-4.564 10.941z"/></g></svg>