<svg width="40" height="40" viewBox="0 0 40 40" fill="none" xmlns="http://www.w3.org/2000/svg">
<g clip-path="url(#clip0)">
<path d="M30.2977 1.5354C27.5604 0.54533 23.9029 0 20 0C16.0971 0 12.4396 0.545653 9.70223 1.53615C7.31154 2.40148 5.88428 3.53073 5.88428 4.55811C5.88428 5.58548 7.31154 6.71452 9.70234 7.57941C12.4396 8.57002 16.0968 9.11567 20 9.11567C23.9032 9.11567 27.5604 8.57002 30.2977 7.57941C32.6884 6.71409 34.1157 5.58483 34.1157 4.55735C34.1157 3.52987 32.6884 2.40105 30.2977 1.5354Z" fill="url(#paint0_linear)"/>
<path d="M20.0003 31.3827C14.4678 31.3827 8.67966 30.2396 5.87646 28.0745V35.4417C5.87646 36.4694 7.30858 37.5993 9.69895 38.4643C12.4355 39.4545 16.0979 39.9998 20.0023 39.9998C22.2993 40.0083 24.5921 39.803 26.8511 39.3868C31.131 38.5655 34.1241 36.9433 34.1241 35.4417V28.0745C31.3209 30.2396 25.5327 31.3827 20.0003 31.3827ZM22.48 36.3877H17.5205C17.0442 36.3877 16.658 36.0015 16.658 35.5251C16.658 35.0488 17.0442 34.6626 17.5205 34.6626H22.48C22.9563 34.6626 23.3425 35.0488 23.3425 35.5251C23.3425 36.0015 22.9563 36.3877 22.48 36.3877Z" fill="url(#paint1_linear)"/>
<path d="M20.0003 21.1118C14.4678 21.1118 8.67966 19.9688 5.87646 17.8037V25.0994C5.87646 26.1271 7.30858 27.257 9.69895 28.122C12.4355 29.1123 16.0979 29.6576 20.0023 29.6576C23.9067 29.6576 27.566 29.1123 30.3026 28.122C32.6929 27.2572 34.1241 26.1272 34.1241 25.0994V17.8036C31.3209 19.9687 25.5327 21.1118 20.0003 21.1118ZM22.48 25.9296H17.5205C17.0442 25.9296 16.658 25.5434 16.658 25.0671C16.658 24.5908 17.0442 24.2046 17.5205 24.2046H22.48C22.9563 24.2046 23.3425 24.5908 23.3425 25.0671C23.3425 25.5434 22.9563 25.9296 22.48 25.9296Z" fill="url(#paint2_linear)"/>
<path d="M20.0003 10.8413C14.4678 10.8413 8.67966 9.6981 5.87646 7.53296V14.8288C5.87646 15.8565 7.30858 16.9865 9.69895 17.8514C12.4355 18.8417 16.0979 19.3869 20.0023 19.3869C23.9067 19.3869 27.566 18.8417 30.3026 17.8514C32.6929 16.9865 34.1241 15.8565 34.1241 14.8288V7.53296C31.3209 9.6981 25.5327 10.8413 20.0003 10.8413ZM22.48 15.7951H17.5205C17.0442 15.7951 16.658 15.4089 16.658 14.9325C16.658 14.4562 17.0442 14.07 17.5205 14.07H22.48C22.9563 14.07 23.3425 14.4562 23.3425 14.9325C23.3425 15.4089 22.9563 15.7951 22.48 15.7951Z" fill="url(#paint3_linear)"/>
</g>
<defs>
<linearGradient id="paint0_linear" x1="5.88474" y1="4.52015" x2="20.2068" y2="14.1169" gradientUnits="userSpaceOnUse">
<stop stop-color="#FBD303"/>
<stop offset="1" stop-color="#FB9803"/>
</linearGradient>
<linearGradient id="paint1_linear" x1="5.87693" y1="33.988" x2="22.3222" y2="42.4158" gradientUnits="userSpaceOnUse">
<stop stop-color="#FBD303"/>
<stop offset="1" stop-color="#FB9803"/>
</linearGradient>
<linearGradient id="paint2_linear" x1="5.87693" y1="23.6816" x2="22.2809" y2="32.139" gradientUnits="userSpaceOnUse">
<stop stop-color="#FBD303"/>
<stop offset="1" stop-color="#FB9803"/>
</linearGradient>
<linearGradient id="paint3_linear" x1="5.87693" y1="13.4109" x2="22.2809" y2="21.8684" gradientUnits="userSpaceOnUse">
<stop stop-color="#FBD303"/>
<stop offset="1" stop-color="#FB9803"/>
</linearGradient>
<clipPath id="clip0">
<rect width="40" height="40" fill="white"/>
</clipPath>
</defs>
</svg>
