<svg width="30" height="30" viewBox="0 0 30 30" fill="none" xmlns="http://www.w3.org/2000/svg">
<path fill-rule="evenodd" clip-rule="evenodd" d="M10.75 16.4167C10.75 13.2871 13.2871 10.75 16.4167 10.75H23.5C26.6296 10.75 29.1667 13.2871 29.1667 16.4167V23.5C29.1667 26.6296 26.6296 29.1667 23.5 29.1667H16.4167C13.2871 29.1667 10.75 26.6296 10.75 23.5V16.4167ZM16.4167 13.5833C14.8519 13.5833 13.5833 14.8519 13.5833 16.4167V23.5C13.5833 25.0648 14.8519 26.3333 16.4167 26.3333H23.5C25.0648 26.3333 26.3333 25.0648 26.3333 23.5V16.4167C26.3333 14.8519 25.0648 13.5833 23.5 13.5833H16.4167Z" fill="#131313"/>
<path fill-rule="evenodd" clip-rule="evenodd" d="M0.833496 6.49998C0.833496 3.37037 3.37055 0.833313 6.50016 0.833313H13.5835C16.7131 0.833313 19.2502 3.37037 19.2502 6.49998V6.79512C19.2502 7.57752 18.6159 8.21179 17.8335 8.21179C17.0511 8.21179 16.4168 7.57752 16.4168 6.79512V6.49998C16.4168 4.93517 15.1483 3.66665 13.5835 3.66665H6.50016C4.93536 3.66665 3.66683 4.93517 3.66683 6.49998V13.5833C3.66683 15.1481 4.93536 16.4166 6.50016 16.4166H6.7953C7.57771 16.4166 8.21197 17.0509 8.21197 17.8333C8.21197 18.6157 7.57771 19.25 6.7953 19.25H6.50016C3.37055 19.25 0.833496 16.7129 0.833496 13.5833V6.49998Z" fill="#131313"/>
</svg>
