<svg width="40" height="40" viewBox="0 0 40 40" fill="none" xmlns="http://www.w3.org/2000/svg">
<path d="M37.1147 0H2.88434C1.29102 0 -0.000488281 1.2915 -0.000488281 2.88483V37.1152C-0.000488281 38.7085 1.29102 40 2.88434 40H37.1147C38.708 40 39.9995 38.7085 39.9995 37.1152V2.88483C39.9995 1.2915 38.708 0 37.1147 0V0ZM14.1877 30.2344H9.31683V15.5801H14.1877V30.2344ZM11.7524 13.5791H11.7207C10.0862 13.5791 9.02905 12.4539 9.02905 11.0477C9.02905 9.60968 10.1185 8.51562 11.7848 8.51562C13.451 8.51562 14.4764 9.60968 14.5082 11.0477C14.5082 12.4539 13.451 13.5791 11.7524 13.5791ZM31.7512 30.2344H26.8809V22.3947C26.8809 20.4245 26.1757 19.0808 24.4133 19.0808C23.0677 19.0808 22.2664 19.9872 21.9142 20.8621C21.7854 21.1752 21.754 21.6129 21.754 22.0508V30.2344H16.8834C16.8834 30.2344 16.9471 16.955 16.8834 15.5801H21.754V17.655C22.4012 16.6565 23.5594 15.2362 26.1436 15.2362C29.3483 15.2362 31.7512 17.3306 31.7512 21.8317V30.2344Z" fill="white"/>
</svg>
