<svg width="98" height="68" viewBox="0 0 98 68" fill="none" xmlns="http://www.w3.org/2000/svg">
<path d="M95.491 10.6007C94.3674 6.45549 91.0742 3.18788 86.8978 2.07171C79.2681 0 48.7488 0 48.7488 0C48.7488 0 18.2307 0 10.601 1.99316C6.50496 3.10816 3.13138 6.45608 2.00784 10.6007C0 18.1718 0 33.8732 0 33.8732C0 33.8732 0 49.6537 2.00784 57.1457C3.13257 61.2903 6.42462 64.5579 10.6016 65.674C18.311 67.7463 48.75 67.7463 48.75 67.7463C48.75 67.7463 79.2681 67.7463 86.8978 65.7532C91.0748 64.6376 94.3674 61.37 95.4922 57.2254C97.4994 49.6537 97.4994 33.9529 97.4994 33.9529C97.4994 33.9529 97.5797 18.1718 95.491 10.6007ZM39.0321 48.3787V19.3677L64.4105 33.8732L39.0321 48.3787Z" fill="#FBD303"/>
</svg>
