<?xml version="1.0" encoding="utf-8"?>
<!-- Generator: Adobe Illustrator 25.1.0, SVG Export Plug-In . SVG Version: 6.00 Build 0)  -->
<svg version="1.1" id="레이어_1" xmlns="http://www.w3.org/2000/svg" xmlns:xlink="http://www.w3.org/1999/xlink" x="0px"
	 y="0px" viewBox="0 0 432 432" style="enable-background:new 0 0 432 432;" xml:space="preserve">
<style type="text/css">
	.st0{fill:#FFFFFF;}
</style>
<g>
	<g>
		<path class="st0" d="M69.9,187.6c-5.4-8.4-18.5-17.3-30.7-17.3c-1.6,0-3.2,0.2-4.8,0.5c-2.9,0.6-5.2,2.5-7.1,5.7
			c-4.2,7.2-4.5,18.4-2.4,25c3.6,11.3,15,18.7,24.5,23.8c4.5,2.4,12.7,6.9,19.9,8.2c0-0.4,0-0.8,0-1.1c0-15.5,0.5-29.7,1.5-42.9
			C70.7,188.8,70.3,188.2,69.9,187.6z"/>
		<path class="st0" d="M402.3,150.9c-4.1-4.8-9.7-7.3-15.8-7.3c-0.3,0-0.5,0-0.8,0c-11,0.4-23.8,10.8-31.5,17l-1.2,0.9
			c0.1,0.4,0.1,0.8,0.2,1.2c2.4,17.9,5.5,41.3,8.2,62.4c0,0.4,0.1,0.7,0.1,1.1c19.2-12.7,42.5-34.2,46.3-54.6
			C409.2,164.2,407.2,156.5,402.3,150.9z"/>
		<path class="st0" d="M351.5,246.1c-0.3-2.1-0.5-4.3-0.8-6.5c-0.3-2.1-0.5-4.2-0.8-6.4c0-0.3-0.1-0.7-0.1-1
			c-2.5-19.8-5.5-42.2-7.9-60.5c0,0,0-0.1,0-0.1c-0.4-2.7-0.7-5.3-1.1-7.8c-0.4-2.6-0.7-5.1-1-7.5c-1.2-8.6-2.1-15.3-2.7-18.8
			C323.5,54.5,285.6,12.6,224.3,12.6c-1.5,0-2.9,0-4.4,0.1c-78,2.5-119.3,75.4-131.9,142.8c-1.9,10.1-3.3,20.7-4.3,32
			c-0.3,3.9-0.6,7.9-0.9,12c-0.2,3.4-0.4,7-0.5,10.6c-0.3,7.6-0.4,15.5-0.4,23.8c0,0.8,0,1.6,0,2.4c0,1.7,0,3.4,0.1,5.1l0,3.2
			l0.2,13.2c0.4,33.5,0.8,68.1,6.7,101.6c3.2,18,10.6,60,34.5,60c26.9,0,38.4-21.5,46.1-35.7c4-7.5,6.5-12.1,11.3-13
			c7.3-1.5,12.1,5.2,17.6,12.8c6.4,8.9,14.4,20,26.2,20c13.7,0,18.7-8.2,24.1-19.7c3.1-6.5,6.2-13.2,13.2-13.8
			c4.7-0.4,9.1,2.9,15.6,8c9.5,7.5,22.5,17.7,38.4,17.7c25.2,0,34.2-24.5,37.4-39.1c7-32.2,5.5-49,1.3-83.8
			C354.1,266.4,352.9,257,351.5,246.1z M257.4,169.5c-7.7-2-13.2-8.4-15.8-15.5c-5.8-15.9-0.1-37.9,18.9-41.9
			c7.5-1.6,13.8,2.4,17.4,8.5c2.9,4.9,4.2,11.1,4.3,17.4c0.1,7.7-2.3,19-8.1,26C270.1,168.7,264.7,171.4,257.4,169.5z M157.5,169.5
			c-7.7-2-13.2-8.4-15.8-15.5c-5.8-15.9-0.1-37.9,18.9-41.9c7.5-1.6,13.8,2.4,17.4,8.5c2.9,4.9,4.2,11.1,4.3,17.4
			C182.5,151,175.6,174.1,157.5,169.5z M180.9,182.7c3-1.8,6.8-0.9,8.6,2.1c4.3,7.1,12.5,11.5,21.3,11.5s17-4.4,21.3-11.5
			c1.8-3,5.7-3.9,8.6-2.1c3,1.8,3.9,5.7,2.1,8.6c-6.6,10.8-18.9,17.5-32,17.5c-13.2,0-25.4-6.7-32-17.5
			C177,188.4,177.9,184.5,180.9,182.7z"/>
	</g>
	<g>
		<path d="M411.8,142.6c-6.8-7.9-16.3-12-26.6-11.7c-12.8,0.5-25,8.8-34.2,16c-0.7-5.1-1.3-9.1-1.7-11.6
			C330.8,20.7,268.5-1.4,219.5,0.1C134,2.8,89.2,80.9,75.7,153.1c-1.1,6-2.1,12.2-2.9,18.6c-10.6-9.7-26.5-16.2-40.9-13.2
			c-6.4,1.3-11.7,5.4-15.4,11.6C10.2,180.9,10,196,13,205.4c5,15.6,19,24.8,30.6,31c6,3.2,16,8.6,26,9.8l0.2,11.8
			c0.4,34,0.8,69.2,6.9,103.7c3.7,21.1,12.4,70.4,46.9,70.4c34.4,0,49.2-27.6,57.2-42.4c0.9-1.7,2-3.7,2.9-5.2
			c1.5,1.7,3.3,4.3,4.8,6.4c7.2,10.1,18.1,25.3,36.4,25.3c22.8,0,30.7-16.8,35.5-26.9c1-2.1,2.2-4.7,3.2-6.1c1.7,1,4.3,3.1,6.5,4.8
			c10.3,8.1,25.9,20.3,46.2,20.3c24.8,0,42.9-17.9,49.7-49c7.4-34.1,5.7-52.6,1.5-87.9c-0.9-7.3-2.3-18.5-3.9-31.4
			c23.3-13.8,52-39.9,56.9-66C422.3,162.8,419.2,151.1,411.8,142.6z M407.9,171.6c-3.8,20.3-27.1,41.8-46.3,54.6
			c0-0.4-0.1-0.7-0.1-1.1c-2.7-21.2-5.8-44.5-8.2-62.4c-0.1-0.4-0.1-0.8-0.2-1.2l1.2-0.9c7.7-6.2,20.5-16.6,31.5-17
			c0.3,0,0.5,0,0.8,0c6.1,0,11.6,2.6,15.8,7.3C407.2,156.5,409.2,164.2,407.9,171.6z M354.8,272.8c4.1,34.8,5.7,51.6-1.3,83.8
			c-3.2,14.6-12.2,39.1-37.4,39.1c-15.9,0-28.9-10.2-38.4-17.7c-6.5-5.1-10.9-8.5-15.6-8c-7,0.6-10.2,7.3-13.2,13.8
			c-5.4,11.5-10.3,19.7-24.1,19.7c-11.8,0-19.8-11.1-26.2-20c-5.5-7.7-10.3-14.3-17.6-12.8c-4.9,1-7.3,5.5-11.3,13
			c-7.6,14.2-19.2,35.7-46.1,35.7c-23.9,0-31.4-42-34.5-60c-5.9-33.5-6.3-68.1-6.7-101.6l-0.2-13.2l0-3.2c0-1.7,0-3.4-0.1-5.1
			c0-0.8,0-1.6,0-2.4c0-8.3,0.1-16.2,0.4-23.8c0.1-3.6,0.3-7.1,0.5-10.6c0.2-4.1,0.5-8.1,0.9-12c1-11.3,2.4-21.9,4.3-32
			C100.7,88,141.9,15.1,219.9,12.6c1.5,0,2.9-0.1,4.4-0.1c61.3,0,99.2,42,112.6,124.8c0.6,3.5,1.5,10.2,2.7,18.8
			c0.3,2.4,0.7,4.9,1,7.5c0.3,2.5,0.7,5.1,1.1,7.8c0,0,0,0.1,0,0.1c2.5,18.3,5.4,40.7,7.9,60.5c0,0.3,0.1,0.7,0.1,1
			c0.3,2.2,0.6,4.3,0.8,6.4c0.3,2.2,0.6,4.4,0.8,6.5C352.9,257,354.1,266.4,354.8,272.8z M49.5,225.3c-9.5-5.1-20.9-12.4-24.5-23.8
			c-2.1-6.7-1.8-17.8,2.4-25c1.9-3.2,4.2-5.1,7.1-5.7c1.6-0.3,3.2-0.5,4.8-0.5c12.3,0,25.3,8.8,30.7,17.3c0.4,0.6,0.7,1.2,1,1.8
			c-1.1,13.2-1.6,27.4-1.5,42.9c0,0.4,0,0.8,0,1.1C62.3,232.2,54.1,227.8,49.5,225.3z"/>
		<path d="M177.9,120.7c-3.6-6.2-9.9-10.1-17.4-8.5c-19,4-24.7,26-18.9,41.9c2.6,7.1,8.1,13.5,15.8,15.5c18.1,4.6,25-18.5,24.8-31.4
			C182.1,131.8,180.8,125.6,177.9,120.7z"/>
		<path d="M260.4,112.1c-19,4-24.7,26-18.9,41.9c2.6,7.1,8.1,13.5,15.8,15.5c7.3,1.9,12.8-0.8,16.7-5.5c5.8-6.9,8.2-18.3,8.1-26
			c-0.1-6.3-1.5-12.5-4.3-17.4C274.2,114.5,267.9,110.6,260.4,112.1z"/>
		<path d="M240.8,182.7c-3-1.8-6.8-0.9-8.6,2.1c-4.3,7.1-12.5,11.5-21.3,11.5s-17-4.4-21.3-11.5c-1.8-3-5.7-3.9-8.6-2.1
			c-3,1.8-3.9,5.7-2.1,8.6c6.6,10.8,18.9,17.5,32,17.5c13.1,0,25.4-6.7,32-17.5C244.6,188.4,243.7,184.5,240.8,182.7z"/>
	</g>
</g>
</svg>
