<svg width="25" height="25" viewBox="0 0 25 25" fill="none" xmlns="http://www.w3.org/2000/svg">
<path d="M20.5612 5.15421C19.0855 4.46377 17.5076 3.96199 15.858 3.67627C15.6554 4.04255 15.4187 4.53521 15.2555 4.92711C13.5019 4.66339 11.7645 4.66339 10.0431 4.92711C9.87997 4.53521 9.63791 4.04255 9.4335 3.67627C7.78209 3.96199 6.20241 4.46561 4.72672 5.15786C1.75024 9.65571 0.94337 14.0418 1.34681 18.3657C3.32096 19.8399 5.23416 20.7355 7.11506 21.3215C7.57947 20.6824 7.99366 20.0029 8.35047 19.2869C7.67091 19.0286 7.02003 18.71 6.40503 18.3401C6.56819 18.2192 6.72778 18.0928 6.88197 17.9628C10.633 19.7172 14.7087 19.7172 18.4149 17.9628C18.5709 18.0928 18.7305 18.2192 18.8918 18.3401C18.275 18.7118 17.6224 19.0305 16.9428 19.2887C17.2996 20.0029 17.712 20.6842 18.1782 21.3233C20.0609 20.7373 21.9759 19.8418 23.9501 18.3657C24.4234 13.3532 23.1414 9.00739 20.5612 5.15421ZM8.8615 15.7066C7.73547 15.7066 6.81203 14.6553 6.81203 13.3752C6.81203 12.0951 7.71575 11.0421 8.8615 11.0421C10.0073 11.0421 10.9307 12.0932 10.911 13.3752C10.9128 14.6553 10.0073 15.7066 8.8615 15.7066ZM16.4354 15.7066C15.3093 15.7066 14.3859 14.6553 14.3859 13.3752C14.3859 12.0951 15.2896 11.0421 16.4354 11.0421C17.5811 11.0421 18.5046 12.0932 18.4848 13.3752C18.4848 14.6553 17.5811 15.7066 16.4354 15.7066Z" fill="white"/>
</svg>
