<svg width="38" height="38" viewBox="0 0 38 38" fill="none" xmlns="http://www.w3.org/2000/svg">
<g clip-path="url(#clip0)">
<path d="M4.28447 22.0114C3.18564 22.6447 2.40031 23.6691 2.07256 24.8946C1.74481 26.1201 1.91264 27.401 2.54597 28.4999C3.42472 30.0215 5.02389 30.8733 6.66739 30.8733C7.33239 30.8733 7.99581 30.696 8.63073 30.4046L14.2927 33.6742C14.5112 36.092 16.5252 37.9999 19 37.9999C21.4747 37.9999 23.4887 36.092 23.7072 33.6742L29.3692 30.4046C30.0041 30.696 30.6676 30.8733 31.3326 30.8733C32.9745 30.8733 34.5752 30.0215 35.454 28.4999C36.0873 27.401 36.2567 26.1217 35.929 24.8962C35.6012 23.6707 34.8159 22.6463 33.7171 22.013C33.3149 21.7818 32.8906 21.6377 32.4599 21.5332V16.4792C32.8906 16.3747 33.3133 16.2195 33.7171 15.9884C34.8159 15.355 35.6012 14.3306 35.929 13.1051C36.2567 11.8796 36.0889 10.5987 35.454 9.50146C34.2174 7.36079 31.5542 6.56913 29.3534 7.5888L23.7088 4.32871C23.4903 1.90938 21.4747 -0.00012207 19 -0.00012207C16.5252 -0.00012207 14.5096 1.90938 14.2927 4.32871L8.64656 7.58721C6.44414 6.56754 3.78414 7.35921 2.54597 9.49988C1.91264 10.5987 1.74322 11.878 2.07097 13.1035C2.39872 14.329 3.18406 15.3535 4.28289 15.9868C4.68664 16.2195 5.10939 16.3747 5.54006 16.4776V21.5332C5.11097 21.6361 4.68664 21.7802 4.28447 22.0114ZM23.2591 6.81138L27.4249 9.21646C26.6554 10.3549 26.4052 11.7862 26.7789 13.1368L20.1859 16.9431V9.33046C21.5444 8.97896 22.6575 8.04796 23.2591 6.81138ZM20.1875 28.6693V21.0566L26.7805 24.863C26.4068 26.2151 26.657 27.6465 27.4281 28.7849L23.2607 31.19C22.6591 29.9518 21.5444 29.0208 20.1875 28.6693ZM14.7392 31.19L10.5735 28.7849C11.3446 27.6449 11.5931 26.2135 11.2211 24.863L17.8141 21.0566V28.6693C16.4556 29.0208 15.3409 29.9518 14.7392 31.19ZM27.968 22.8062L21.375 18.9999L27.9616 15.1983C28.557 15.8031 29.2901 16.2275 30.0833 16.446V21.5522C29.2901 21.7691 28.5617 22.203 27.968 22.8062ZM17.8125 16.9431L11.2195 13.1384C11.5916 11.7878 11.343 10.3565 10.5735 9.21805L14.7408 6.81138C15.3425 8.04796 16.4571 8.97896 17.8125 9.33046V16.9431ZM10.0383 15.1983L16.625 18.9999L10.032 22.8062C9.43823 22.203 8.70989 21.7691 7.91664 21.5506V16.446C8.71148 16.2275 9.44456 15.8031 10.0383 15.1983Z" fill="url(#paint0_linear)"/>
</g>
<defs>
<linearGradient id="paint0_linear" x1="1.90827" y1="18.8428" x2="26.1199" y2="23.5552" gradientUnits="userSpaceOnUse">
<stop stop-color="#FBD303"/>
<stop offset="1" stop-color="#FB9803"/>
</linearGradient>
<clipPath id="clip0">
<rect width="38" height="38" fill="white" transform="translate(0 -0.00012207)"/>
</clipPath>
</defs>
</svg>
