<svg width="40" height="40" viewBox="0 0 40 40" fill="none" xmlns="http://www.w3.org/2000/svg">
<path d="M33.4241 12.854H27.8778V7.14539C27.8778 3.20526 24.3408 0 19.9933 0C15.6461 0 12.1091 3.20526 12.1091 7.14539V12.854H6.5625C5.91522 12.854 5.39062 13.3789 5.39062 14.0259V29.0128C5.39062 35.0711 10.3195 40 16.3779 40H23.609C29.6674 40 34.5963 35.0711 34.5963 29.0128V14.0259C34.5959 13.3789 34.0714 12.854 33.4241 12.854ZM21.1652 28.8544C21.1652 29.5013 20.6406 30.0262 19.9933 30.0262C19.3463 30.0262 18.8214 29.5013 18.8214 28.8544V23.9999C18.8214 23.3527 19.3463 22.8281 19.9933 22.8281C20.6406 22.8281 21.1652 23.3527 21.1652 23.9999V28.8544ZM14.4528 12.854V7.14539C14.4528 4.49768 16.9382 2.34375 19.9933 2.34375C23.0484 2.34375 25.5341 4.49768 25.5341 7.14539V12.854H14.4528Z" fill="url(#paint0_linear)"/>
<defs>
<linearGradient id="paint0_linear" x1="5.3911" y1="19.8346" x2="26.337" y2="23.1435" gradientUnits="userSpaceOnUse">
<stop stop-color="#FBD303"/>
<stop offset="1" stop-color="#FB9803"/>
</linearGradient>
</defs>
</svg>
