<svg width="40" height="40" viewBox="0 0 40 40" fill="none" xmlns="http://www.w3.org/2000/svg">
<g clip-path="url(#clip0)">
<path d="M36.7897 10.296C36.7419 9.24365 36.7419 8.23916 36.7419 7.23468C36.7419 6.42153 36.1201 5.7997 35.3069 5.7997C29.3278 5.7997 24.7837 4.07773 21.005 0.394619C20.431 -0.13154 19.57 -0.13154 18.996 0.394619C15.2172 4.07773 10.6731 5.7997 4.69406 5.7997C3.8809 5.7997 3.25908 6.42153 3.25908 7.23468C3.25908 8.23916 3.25908 9.24365 3.21125 10.296C3.01991 20.3408 2.73292 34.1166 19.5222 39.9043C19.8379 39.9675 20.1631 39.9675 20.4788 39.9043C37.2202 34.1166 36.9811 20.3886 36.7897 10.296ZM18.8525 24.2152C18.5655 24.4544 18.2307 24.5979 17.848 24.5979H17.8002C17.4175 24.5979 17.0349 24.4066 16.7957 24.1196L13.3193 20.2694C12.7837 19.6762 12.834 18.7602 13.4314 18.2292C14.0226 17.7036 14.9271 17.7537 15.4567 18.3413L17.4527 20.5561C17.7479 20.8837 18.2552 20.9033 18.5749 20.5994L24.6903 14.786C25.2685 14.2363 26.1842 14.264 26.7281 14.8478C27.2665 15.4255 27.2366 16.3296 26.6614 16.8706L18.8525 24.2152Z" fill="url(#paint0_linear)"/>
</g>
<defs>
<linearGradient id="paint0_linear" x1="3.16748" y1="-2.7523" x2="42.9386" y2="2.84455" gradientUnits="userSpaceOnUse">
<stop stop-color="#FBD303"/>
<stop offset="1" stop-color="#FB9803"/>
</linearGradient>
<clipPath id="clip0">
<rect width="40" height="40" fill="white"/>
</clipPath>
</defs>
</svg>
