<svg width="109" height="175" viewBox="0 0 109 175" fill="none" xmlns="http://www.w3.org/2000/svg">
<rect x="1.81152" width="16" height="7" rx="3.5" transform="rotate(15 1.81152 0)" fill="#FFF4C9"/>
<rect x="1.81152" y="36.6318" width="16" height="7" rx="3.5" transform="rotate(15 1.81152 36.6318)" fill="#FFF4C9"/>
<rect x="1.81152" y="73.2637" width="16" height="7" rx="3.5" transform="rotate(15 1.81152 73.2637)" fill="#FFF4C9"/>
<rect x="1.81152" y="109.896" width="16" height="7" rx="3.5" transform="rotate(15 1.81152 109.896)" fill="#FFCA00"/>
<rect x="1.81152" y="146.527" width="16" height="7" rx="3.5" transform="rotate(15 1.81152 146.527)" fill="#FFF4C9"/>
<rect x="49.4551" y="18.4204" width="16" height="7" rx="3.5" transform="rotate(30 49.4551 18.4204)" fill="#FFF4C9"/>
<rect x="49.4551" y="55.0522" width="16" height="7" rx="3.5" transform="rotate(30 49.4551 55.0522)" fill="#FFF4C9"/>
<rect x="49.4551" y="91.6841" width="16" height="7" rx="3.5" transform="rotate(30 49.4551 91.6841)" fill="#FFF4C9"/>
<rect x="49.4551" y="128.316" width="16" height="7" rx="3.5" transform="rotate(30 49.4551 128.316)" fill="#FFF4C9"/>
<rect x="49.4551" y="164.948" width="16" height="7" rx="3.5" transform="rotate(30 49.4551 164.948)" fill="#FFF4C9"/>
<rect x="97.4512" y="47.3193" width="16" height="7" rx="3.5" transform="rotate(45 97.4512 47.3193)" fill="#FFF4C9"/>
<rect x="97.4512" y="83.9512" width="16" height="7" rx="3.5" transform="rotate(45 97.4512 83.9512)" fill="#FFCA00"/>
<rect x="97.4512" y="120.583" width="16" height="7" rx="3.5" transform="rotate(45 97.4512 120.583)" fill="#FFF4C9"/>
<rect x="97.4512" y="157.215" width="16" height="7" rx="3.5" transform="rotate(45 97.4512 157.215)" fill="#FFF4C9"/>
</svg>
