<svg width="103" height="102" viewBox="0 0 103 102" fill="none" xmlns="http://www.w3.org/2000/svg">
<path d="M96.8207 57.9792L96.6474 58.9482L90.2122 60.5828L95.6941 64.2777L95.5208 65.2467L89.421 61.0128L89.6191 59.9053L95.9035 58.3152L90.56 54.6451L90.7581 53.5376L97.9969 51.4039L97.8235 52.3729L91.3512 54.2152L96.8207 57.9792Z" fill="white"/>
<path d="M90.8481 74.5862L90.4515 75.331L84.4936 72.1583L84.8902 71.4136L87.6209 72.8677L90.5291 67.4063L87.7984 65.9522L88.195 65.2074L94.1529 68.3801L93.7563 69.1248L91.1498 67.7368L88.2415 73.1982L90.8481 74.5862Z" fill="white"/>
<path d="M88.4096 78.1616L87.8936 78.8292L82.5532 74.7008L83.0692 74.0333L88.4096 78.1616Z" fill="white"/>
<path d="M80.6727 82.4191C80.336 82.7367 80.0342 82.9953 79.7673 83.1948C79.5003 83.3943 79.2587 83.5437 79.0423 83.6431C78.8259 83.7467 78.6304 83.8042 78.456 83.8157C78.2816 83.8272 78.1185 83.8059 77.9667 83.7518C77.8169 83.6997 77.6742 83.6168 77.5387 83.5031C77.401 83.3913 77.2618 83.2608 77.1211 83.1116C76.9803 82.9625 76.8615 82.8088 76.7645 82.6505C76.6675 82.4964 76.6018 82.3328 76.5674 82.1598C76.5331 81.9868 76.5343 81.8024 76.5711 81.6066C76.6078 81.4108 76.6887 81.1976 76.8135 80.967C76.9383 80.7365 77.1145 80.4856 77.3421 80.2145C77.5655 79.9433 77.8477 79.6469 78.1886 79.3252L79.0069 78.5531C79.3138 78.2636 79.5933 78.022 79.8456 77.8283C80.0979 77.6346 80.3292 77.4828 80.5396 77.3729C80.7521 77.2651 80.9468 77.1961 81.1239 77.166C81.3029 77.1381 81.4717 77.142 81.6303 77.1776C81.7887 77.2175 81.94 77.2882 82.0842 77.3898C82.2304 77.4935 82.3759 77.6221 82.5206 77.7755L81.9069 78.3546C81.726 78.1628 81.5565 78.0387 81.3986 77.9823C81.2406 77.9259 81.0716 77.9303 80.8915 77.9955C80.7134 78.0629 80.5139 78.1866 80.2931 78.3667C80.0722 78.551 79.8084 78.7878 79.5015 79.0774L78.6832 79.8494C78.3252 80.1872 78.0441 80.4847 77.8397 80.7419C77.6353 80.9992 77.498 81.2315 77.4277 81.4387C77.3575 81.646 77.3499 81.8365 77.4049 82.0101C77.462 82.1858 77.5719 82.36 77.7348 82.5326C77.8976 82.7052 78.0536 82.83 78.2026 82.9068C78.3496 82.9857 78.5138 83.004 78.6953 82.9616C78.8747 82.9212 79.083 82.8153 79.3201 82.644C79.5592 82.4748 79.8492 82.2293 80.1902 81.9077L81.034 81.1115C81.4091 80.7576 81.7439 80.4679 82.0386 80.2423C82.3311 80.0187 82.592 79.847 82.8214 79.7272C83.0528 79.6096 83.259 79.5379 83.4401 79.5121C83.6231 79.4884 83.7907 79.4995 83.9427 79.5453C84.0926 79.5932 84.2334 79.6698 84.365 79.7752C84.4987 79.8827 84.6329 80.0079 84.7676 80.1506C84.9083 80.2998 85.0262 80.4504 85.1213 80.6024C85.2142 80.7564 85.2727 80.9187 85.2967 81.0893C85.3228 81.2621 85.3112 81.4483 85.2618 81.6479C85.2125 81.8475 85.115 82.0664 84.9692 82.3046C84.8233 82.547 84.6249 82.8127 84.374 83.1018C84.1231 83.3909 83.8101 83.7123 83.4351 84.0662L82.8214 84.6452C82.5145 84.9347 82.235 85.1763 81.9827 85.37C81.7325 85.5659 81.5011 85.7177 81.2887 85.8255C81.0782 85.9354 80.8845 86.0054 80.7074 86.0355C80.5303 86.0698 80.3625 86.0669 80.2041 86.0271C80.0455 85.9914 79.8942 85.9228 79.75 85.8212C79.6058 85.7196 79.4613 85.5921 79.3166 85.4386L79.9303 84.8596C80.1112 85.0514 80.2807 85.1755 80.4386 85.2319C80.5965 85.2883 80.7646 85.2828 80.9427 85.2154C81.1228 85.1502 81.3233 85.0255 81.5442 84.8412C81.7671 84.6591 82.032 84.4233 82.3389 84.1338L82.9526 83.5548C83.3617 83.1687 83.6843 82.8362 83.9204 82.557C84.1585 82.28 84.3221 82.035 84.4112 81.8221C84.5003 81.6092 84.5204 81.417 84.4715 81.2456C84.4226 81.0743 84.3167 80.9023 84.1539 80.7297C84.0533 80.6231 83.9564 80.5353 83.8631 80.4663C83.7697 80.3973 83.6705 80.3519 83.5655 80.3302C83.4603 80.3126 83.346 80.3217 83.2227 80.3575C83.0994 80.3933 82.9565 80.4617 82.794 80.5627C82.6315 80.6637 82.4462 80.8002 82.238 80.9724C82.0298 81.1487 81.7893 81.3656 81.5166 81.6229L80.6727 82.4191Z" fill="white"/>
<path d="M77.9334 88.6793L73.5576 91.2425C73.1961 91.4543 72.8819 91.6163 72.6149 91.7286C72.3468 91.8448 72.1134 91.9187 71.9146 91.9503C71.7158 91.9819 71.546 91.9761 71.4053 91.9329C71.262 91.8912 71.1332 91.819 71.0187 91.7163C70.9042 91.6136 70.7985 91.4854 70.7016 91.3316C70.6022 91.1793 70.497 91.0084 70.386 90.8188C70.2705 90.6216 70.1689 90.4366 70.0813 90.2639C69.9911 90.0926 69.9313 89.9239 69.9019 89.7577C69.8715 89.5956 69.8803 89.4309 69.9282 89.2636C69.9752 89.1003 70.0785 88.926 70.2382 88.7408C70.3954 88.557 70.6166 88.3579 70.9017 88.1433C71.1844 87.9302 71.5481 87.6933 71.993 87.4327L75.1441 85.5869L73.7936 83.2814L74.5216 82.855L77.9334 88.6793ZM75.4994 86.1936L72.3484 88.0394C72.0249 88.229 71.7561 88.3932 71.5421 88.5321C71.327 88.6751 71.1563 88.8039 71.03 88.9187C70.9037 89.0334 70.8176 89.1416 70.7718 89.2431C70.7261 89.3446 70.7121 89.4512 70.73 89.563C70.7454 89.6762 70.7876 89.7975 70.8566 89.9268C70.9245 90.0602 71.0103 90.2153 71.114 90.3923C71.2102 90.5566 71.297 90.6959 71.3741 90.8103C71.4488 90.9262 71.5288 91.0134 71.6141 91.0721C71.6969 91.1323 71.7915 91.1634 71.898 91.1655C72.0045 91.1677 72.1372 91.1392 72.2961 91.08C72.4565 91.0234 72.6501 90.9338 72.877 90.811C73.1014 90.6898 73.3753 90.5344 73.6989 90.3449L76.8499 88.499L75.4994 86.1936Z" fill="white"/>
<path d="M66.6368 87.2968L68.6962 93.725L62.268 95.7844L62.0535 95.1148L67.6781 93.3128L66.9917 91.1701L61.6349 92.8862L61.4203 92.2166L66.7772 90.5005L66.0478 88.2238L60.4231 90.0258L60.2086 89.3562L66.6368 87.2968Z" fill="white"/>
<path d="M51.2896 90.4091L52.1303 90.3376L52.2375 91.5987C52.2549 91.803 52.2742 91.9778 52.2954 92.123C52.3139 92.2714 52.3495 92.3963 52.4022 92.4976C52.452 92.5993 52.5249 92.6783 52.6208 92.7348C52.7168 92.7914 52.8495 92.8301 53.0188 92.8509C53.1882 92.8718 53.4018 92.8772 53.6597 92.867C53.9149 92.86 54.2293 92.8406 54.603 92.8088L58.3818 92.4874L58.1554 89.8252L58.9961 89.7537L59.5682 96.4794L54.8085 96.8842C54.2947 96.9279 53.8611 96.9457 53.5075 96.9375C53.1513 96.9325 52.8563 96.9032 52.6224 96.8496C52.3856 96.7963 52.2013 96.7208 52.0695 96.6232C51.9348 96.5259 51.8335 96.4066 51.7656 96.2653C51.6948 96.1243 51.6473 95.9637 51.6232 95.7835C51.5961 95.6035 51.5733 95.404 51.5546 95.1851C51.5308 94.9049 51.5303 94.6564 51.553 94.4399C51.5731 94.2265 51.6235 94.0414 51.7042 93.8845C51.785 93.7277 51.8989 93.5975 52.0459 93.4938C52.1931 93.3931 52.3821 93.3153 52.6126 93.2604C52.3761 93.2452 52.1841 93.1998 52.0365 93.1241C51.8889 93.0485 51.7712 92.9438 51.6834 92.8102C51.5956 92.6765 51.5318 92.5143 51.4921 92.3237C51.4494 92.1332 51.4177 91.9154 51.3968 91.6702L51.2896 90.4091ZM58.4414 93.188L54.5225 93.5213C54.1488 93.5531 53.8355 93.5857 53.5825 93.6189C53.3269 93.6554 53.1174 93.6982 52.9539 93.7474C52.7905 93.7966 52.6663 93.8571 52.5813 93.929C52.4962 94.0009 52.4378 94.0912 52.4058 94.1997C52.371 94.3086 52.3568 94.4362 52.3634 94.5826C52.3673 94.7323 52.378 94.9092 52.3953 95.1136C52.4115 95.3033 52.4298 95.4664 52.4502 95.6029C52.4677 95.7396 52.5023 95.8528 52.5541 95.9425C52.6029 96.0324 52.6749 96.1013 52.7701 96.149C52.8653 96.1968 52.9973 96.2282 53.1662 96.2432C53.3353 96.2612 53.5487 96.2636 53.8063 96.2505C54.0611 96.2377 54.3752 96.2154 54.7489 96.1836L58.6678 95.8503L58.4414 93.188Z" fill="white"/>
<path d="M48.164 90.4016L48.994 90.5534L47.78 97.1933L46.3232 96.927L41.2988 90.0042L40.2366 95.8142L39.4066 95.6625L40.6205 89.0225L41.7272 89.2248L47.0765 96.3499L48.164 90.4016Z" fill="white"/>
<path d="M30.5506 92.3784C30.0852 92.1565 29.7077 91.9408 29.418 91.7314C29.1245 91.5233 28.9024 91.3119 28.7516 91.0972C28.5995 90.8852 28.5095 90.6654 28.4817 90.4379C28.4538 90.2104 28.4708 89.967 28.5328 89.7077C28.5921 89.4471 28.6884 89.1668 28.8217 88.8669C28.9523 88.5656 29.1033 88.2352 29.2748 87.8755C29.4462 87.5159 29.6078 87.1905 29.7596 86.8993C29.9087 86.6069 30.0658 86.3556 30.2309 86.1455C30.3934 85.9341 30.5718 85.7676 30.766 85.646C30.9603 85.5244 31.1883 85.4546 31.4501 85.4365C31.7106 85.4211 32.014 85.462 32.3605 85.559C32.7056 85.6521 33.1108 85.8096 33.5763 86.0314L35.8691 87.1245C36.3346 87.3463 36.7134 87.5627 37.0057 87.7734C37.2965 87.9802 37.518 88.1896 37.6701 88.4017C37.8209 88.6164 37.9115 88.8381 37.9421 89.0668C37.9699 89.2943 37.9542 89.5384 37.8949 89.799C37.8329 90.0583 37.7353 90.3379 37.6021 90.6379C37.4688 90.9379 37.3164 91.2677 37.145 91.6273C36.9735 91.987 36.8132 92.313 36.6641 92.6055C36.515 92.8979 36.3592 93.1498 36.1967 93.3612C36.0316 93.5713 35.852 93.7372 35.6577 93.8588C35.4608 93.9791 35.2321 94.047 34.9716 94.0624C34.7098 94.0804 34.407 94.0415 34.0632 93.9458C33.7155 93.8514 33.3089 93.6933 32.8435 93.4714L30.5506 92.3784ZM33.2737 86.6661C32.9379 86.506 32.6505 86.3804 32.4116 86.2892C32.1688 86.1994 31.9575 86.149 31.7778 86.138C31.598 86.127 31.4401 86.1588 31.3039 86.2334C31.1677 86.308 31.0363 86.4304 30.9098 86.6005C30.7833 86.7706 30.6524 86.9906 30.5173 87.2605C30.3782 87.5318 30.2179 87.8578 30.0364 88.2386C29.8549 88.6194 29.7031 88.9479 29.5812 89.2241C29.4554 89.5016 29.3662 89.7431 29.3137 89.9485C29.2613 90.154 29.2489 90.3331 29.2767 90.4859C29.3044 90.6387 29.3792 90.7814 29.501 90.9141C29.6201 91.0455 29.7916 91.1759 30.0154 91.3054C30.2354 91.4362 30.5147 91.5823 30.8532 91.7437L33.146 92.8367C33.4845 92.9981 33.7752 93.1237 34.018 93.2135C34.2569 93.3046 34.4662 93.3557 34.646 93.3668C34.8257 93.3778 34.9837 93.346 35.1198 93.2714C35.256 93.1967 35.3874 93.0744 35.5139 92.9042C35.6405 92.7341 35.7719 92.5128 35.9083 92.2403C36.0435 91.9704 36.2018 91.6451 36.3834 91.2643C36.5649 90.8834 36.7186 90.5543 36.8444 90.2767C36.9663 90.0005 37.0535 89.7597 37.106 89.5543C37.1585 89.3489 37.1722 89.1704 37.147 89.0189C37.1193 88.8661 37.0445 88.7234 36.9228 88.5907C36.801 88.458 36.6302 88.3262 36.4102 88.1954C36.1863 88.0659 35.9051 87.9205 35.5666 87.7592L33.2737 86.6661Z" fill="white"/>
<path d="M25.0895 81.424C24.8036 81.1859 24.5551 80.9922 24.3439 80.843C24.1326 80.6937 23.9432 80.5893 23.7755 80.5297C23.6059 80.4723 23.4478 80.4607 23.3012 80.4949C23.1545 80.5291 23.0026 80.6084 22.8455 80.733C22.6842 80.858 22.5094 81.0289 22.3212 81.2457C22.1288 81.4629 21.9042 81.7258 21.6473 82.0342C21.3904 82.3426 21.1735 82.6099 20.9965 82.8361C20.8153 83.0627 20.6788 83.2655 20.587 83.4444C20.491 83.6238 20.4395 83.7886 20.4324 83.939C20.4253 84.0895 20.4662 84.2417 20.5551 84.3959C20.6422 84.5523 20.7782 84.7209 20.9632 84.9016C21.1459 85.0805 21.3813 85.29 21.6695 85.53L24.9076 88.2272L28.3277 84.1213L25.0895 81.424ZM29.426 84.121L25.1059 89.3075L21.2194 86.0702C20.8233 85.7402 20.5098 85.4391 20.279 85.1668C20.0442 84.8949 19.8783 84.6386 19.7815 84.3978C19.6824 84.1551 19.6446 83.9235 19.6682 83.7029C19.6895 83.4805 19.7595 83.2546 19.8779 83.0254C19.9923 82.7966 20.1473 82.5578 20.3431 82.309C20.5347 82.0607 20.7533 81.789 20.999 81.4941C21.2446 81.1993 21.4732 80.934 21.6847 80.6984C21.8921 80.4632 22.0989 80.2675 22.3052 80.1114C22.5073 79.9557 22.7158 79.8472 22.9308 79.786C23.1434 79.723 23.3781 79.7182 23.6347 79.7718C23.889 79.8235 24.172 79.9392 24.4838 80.1188C24.7914 80.2988 25.1433 80.5538 25.5395 80.8838L29.426 84.121Z" fill="white"/>
<path d="M21.8723 77.5782L16.502 81.6674L12.4127 76.2971L12.9721 75.8711L16.5502 80.5702L18.3404 79.2071L14.9326 74.7318L15.492 74.3059L18.8998 78.7811L20.8018 77.3329L17.2237 72.6338L17.7831 72.2078L21.8723 77.5782Z" fill="white"/>
<path d="M5.43257 43.4484L5.60961 42.4801L12.051 40.8701L6.58328 37.1543L6.76031 36.1859L12.8439 40.4432L12.6415 41.5498L6.35108 43.116L11.6805 46.8065L11.4782 47.9131L4.23129 50.0192L4.40832 49.0508L10.8877 47.2333L5.43257 43.4484Z" fill="white"/>
<path d="M11.3624 27.0158L11.759 26.2711L17.7169 29.4437L17.3203 30.1885L14.5896 28.7343L11.6813 34.1958L14.412 35.6499L14.0154 36.3946L8.05753 33.222L8.45411 32.4772L11.0607 33.8653L13.969 28.4039L11.3624 27.0158Z" fill="white"/>
<path d="M13.8953 23.2978L14.4138 22.6322L19.7391 26.7799L19.2206 27.4456L13.8953 23.2978Z" fill="white"/>
<path d="M21.5499 19.1495C21.8878 18.833 22.1905 18.5755 22.4582 18.377C22.7258 18.1785 22.968 18.0299 23.1847 17.9313C23.4016 17.8286 23.5972 17.7718 23.7717 17.7609C23.9461 17.75 24.1092 17.7719 24.2608 17.8266C24.4104 17.8792 24.5527 17.9626 24.6878 18.0769C24.8251 18.1892 24.9639 18.3201 25.104 18.4698C25.2442 18.6195 25.3625 18.7736 25.4589 18.9322C25.5554 19.0867 25.6205 19.2505 25.6542 19.4236C25.688 19.5968 25.6861 19.7812 25.6486 19.9769C25.6111 20.1725 25.5295 20.3854 25.4038 20.6155C25.2782 20.8456 25.101 21.0958 24.8725 21.3661C24.6481 21.6365 24.3648 21.9319 24.0227 22.2524L23.2016 23.0214C22.8937 23.3098 22.6133 23.5504 22.3603 23.7432C22.1074 23.936 21.8755 24.0869 21.6646 24.1961C21.4518 24.3031 21.2568 24.3714 21.0797 24.4008C20.9005 24.4281 20.7317 24.4236 20.5733 24.3874C20.415 24.347 20.264 24.2757 20.1202 24.1736C19.9743 24.0693 19.8293 23.9402 19.6851 23.7863L20.3009 23.2095C20.4812 23.4019 20.6502 23.5266 20.8079 23.5836C20.9657 23.6406 21.1347 23.6368 21.3151 23.5722C21.4934 23.5055 21.6933 23.3825 21.9148 23.2032C22.1363 23.0197 22.401 22.7838 22.709 22.4954L23.53 21.7264C23.8893 21.3899 24.1715 21.0934 24.3768 20.8369C24.5821 20.5804 24.7203 20.3486 24.7913 20.1416C24.8623 19.9346 24.8706 19.7441 24.8162 19.5703C24.7598 19.3944 24.6505 19.2198 24.4882 19.0466C24.326 18.8734 24.1705 18.7481 24.0217 18.6707C23.8751 18.5913 23.7109 18.5724 23.5292 18.6142C23.3497 18.6539 23.1411 18.759 22.9033 18.9295C22.6636 19.0978 22.3727 19.3422 22.0306 19.6626L21.1838 20.4557C20.8075 20.8082 20.4716 21.0967 20.1762 21.3213C19.8829 21.5438 19.6213 21.7146 19.3915 21.8335C19.1597 21.9503 18.9532 22.0212 18.772 22.0464C18.5889 22.0694 18.4214 22.0577 18.2695 22.0113C18.1198 21.9629 17.9793 21.8857 17.848 21.7799C17.7148 21.6719 17.581 21.5463 17.4468 21.403C17.3067 21.2533 17.1893 21.1023 17.0948 20.95C17.0024 20.7957 16.9445 20.6331 16.9211 20.4624C16.8957 20.2895 16.908 20.1034 16.958 19.904C17.0081 19.7046 17.1064 19.486 17.2531 19.2483C17.3998 19.0064 17.5992 18.7414 17.8511 18.4533C18.1031 18.1651 18.4172 17.8448 18.7935 17.4923L19.4093 16.9155C19.7172 16.6271 19.9977 16.3865 20.2506 16.1938C20.5016 15.9988 20.7335 15.8479 20.9463 15.7408C21.1572 15.6317 21.3512 15.5623 21.5283 15.5329C21.7056 15.4993 21.8734 15.5027 22.0316 15.5432C22.1901 15.5794 22.3412 15.6486 22.485 15.7507C22.6288 15.8529 22.7728 15.9809 22.917 16.1349L22.3012 16.7117C22.121 16.5192 21.952 16.3945 21.7942 16.3375C21.6365 16.2805 21.4685 16.2854 21.2901 16.3521C21.1097 16.4167 20.9088 16.5407 20.6872 16.7241C20.4636 16.9054 20.1979 17.1403 19.89 17.4287L19.2742 18.0055C18.8637 18.39 18.5398 18.7214 18.3027 18.9997C18.0636 19.2758 17.8991 19.5202 17.8093 19.7328C17.7194 19.9455 17.6986 20.1375 17.7469 20.3091C17.7952 20.4806 17.9004 20.653 18.0627 20.8262C18.1628 20.9331 18.2594 21.0213 18.3525 21.0906C18.4455 21.16 18.5446 21.2057 18.6496 21.2278C18.7547 21.2458 18.869 21.2371 18.9924 21.2017C19.1159 21.1664 19.259 21.0985 19.4219 20.9981C19.5848 20.8978 19.7706 20.7619 19.9793 20.5904C20.1882 20.4149 20.4295 20.1989 20.7032 19.9425L21.5499 19.1495Z" fill="white"/>
<path d="M24.2578 12.8854L28.643 10.3382C29.0053 10.1278 29.3201 9.96697 29.5875 9.8557C29.856 9.74042 30.0896 9.66736 30.2886 9.63652C30.4875 9.60568 30.6572 9.61211 30.7978 9.65581C30.9409 9.69804 31.0695 9.77072 31.1836 9.87384C31.2977 9.97697 31.403 10.1056 31.4993 10.2597C31.5981 10.4124 31.7027 10.5837 31.813 10.7737C31.9278 10.9713 32.0287 11.1566 32.1157 11.3297C32.2052 11.5013 32.2644 11.6703 32.2932 11.8365C32.323 11.9987 32.3136 12.1634 32.265 12.3305C32.2175 12.4937 32.1135 12.6676 31.9531 12.8522C31.7952 13.0354 31.5733 13.2337 31.2874 13.4473C31.004 13.6593 30.6394 13.8948 30.1935 14.1538L27.0357 15.988L28.3777 18.2984L27.6481 18.7222L24.2578 12.8854ZM26.6826 15.38L29.8404 13.5458C30.1646 13.3574 30.434 13.1942 30.6485 13.056C30.8641 12.9139 31.0353 12.7857 31.162 12.6714C31.2887 12.5571 31.3752 12.4493 31.4214 12.348C31.4675 12.2466 31.4818 12.14 31.4643 12.0282C31.4494 11.915 31.4076 11.7935 31.3391 11.6639C31.2717 11.5303 31.1864 11.3748 31.0834 11.1975C30.9878 11.0328 30.9016 10.8932 30.8248 10.7785C30.7506 10.6624 30.6709 10.5748 30.5859 10.5158C30.5033 10.4554 30.4088 10.4239 30.3023 10.4214C30.1958 10.4188 30.063 10.4468 29.9039 10.5054C29.7433 10.5614 29.5493 10.6503 29.322 10.7722C29.0972 10.8927 28.8226 11.047 28.4984 11.2354L25.3406 13.0696L26.6826 15.38Z" fill="white"/>
<path d="M35.4545 14.3065L33.3951 7.87831L39.8233 5.81889L40.0378 6.48849L34.4132 8.29049L35.0996 10.4332L40.4564 8.71702L40.671 9.38662L35.3142 11.1028L36.0435 13.3794L41.6682 11.5775L41.8827 12.2471L35.4545 14.3065Z" fill="white"/>
<path d="M50.855 11.1678L50.0141 11.2361L49.9117 9.97462C49.8951 9.77022 49.8765 9.59537 49.8559 9.45008C49.8379 9.30163 49.8028 9.17662 49.7505 9.07505C49.701 8.97325 49.6285 8.8939 49.5327 8.837C49.437 8.78011 49.3045 8.7409 49.1352 8.71937C48.9659 8.69784 48.7523 8.69166 48.4944 8.70084C48.2392 8.70686 47.9246 8.72505 47.5509 8.75539L43.7708 9.06223L43.987 11.7254L43.146 11.7936L42.5999 5.06575L47.3611 4.67925C47.875 4.63754 48.3087 4.62143 48.6622 4.63095C49.0184 4.63731 49.3133 4.66775 49.547 4.72226C49.7836 4.77653 49.9676 4.85272 50.0991 4.9508C50.2334 5.04865 50.3342 5.16833 50.4016 5.30983C50.4718 5.45109 50.5187 5.61189 50.5421 5.79223C50.5685 5.97232 50.5906 6.17187 50.6084 6.39088C50.6311 6.67121 50.6307 6.91961 50.6071 7.1361C50.5862 7.34943 50.5351 7.53434 50.4538 7.69085C50.3724 7.84736 50.258 7.97716 50.1106 8.08025C49.9629 8.18041 49.7737 8.2575 49.543 8.3115C49.7794 8.32758 49.9713 8.37373 50.1186 8.44995C50.2658 8.52618 50.3831 8.63129 50.4704 8.76529C50.5577 8.89929 50.6209 9.06171 50.6599 9.25254C50.7018 9.44313 50.7327 9.66107 50.7526 9.90636L50.855 11.1678ZM43.7139 8.36142L47.6342 8.04319C48.0079 8.01285 48.3214 7.98153 48.5745 7.94922C48.8302 7.91376 49.0399 7.87176 49.2035 7.8232C49.3671 7.77465 49.4916 7.71458 49.5769 7.64299C49.6622 7.5714 49.721 7.48139 49.7534 7.37294C49.7886 7.26427 49.8033 7.13669 49.7973 6.99021C49.7939 6.84057 49.784 6.66355 49.7674 6.45915C49.752 6.26934 49.7343 6.10617 49.7144 5.96964C49.6974 5.83287 49.6632 5.71954 49.6119 5.62965C49.5634 5.53953 49.4917 5.4704 49.3966 5.42227C49.3016 5.37414 49.1697 5.34222 49.0009 5.32653C48.8318 5.30792 48.6184 5.30467 48.3608 5.31677C48.106 5.32863 47.7917 5.34973 47.418 5.38007L43.4978 5.6983L43.7139 8.36142Z" fill="white"/>
<path d="M53.8946 11.1241L53.0646 10.9724L54.2786 4.33245L55.7354 4.59879L60.7598 11.5215L61.822 5.71156L62.652 5.8633L61.438 12.5032L60.3314 12.3009L54.9821 5.17585L53.8946 11.1241Z" fill="white"/>
<path d="M71.5993 9.13942C72.0647 9.3613 72.4422 9.57697 72.7319 9.78644C73.0254 9.99452 73.2475 10.2059 73.3983 10.4206C73.5504 10.6326 73.6404 10.8524 73.6682 11.0799C73.6961 11.3074 73.6791 11.5508 73.6171 11.8101C73.5578 12.0707 73.4615 12.351 73.3283 12.651C73.1976 12.9522 73.0466 13.2826 72.8751 13.6423C72.7037 14.002 72.5421 14.3274 72.3903 14.6185C72.2412 14.9109 72.0841 15.1622 71.919 15.3724C71.7565 15.5838 71.5781 15.7503 71.3839 15.8719C71.1896 15.9935 70.9616 16.0633 70.6998 16.0813C70.4393 16.0967 70.1359 16.0559 69.7894 15.9589C69.4443 15.8657 69.0391 15.7083 68.5736 15.4864L66.2808 14.3934C65.8153 14.1715 65.4365 13.9552 65.1442 13.7444C64.8534 13.5376 64.6319 13.3282 64.4798 13.1161C64.329 12.9014 64.2384 12.6797 64.2078 12.451C64.18 12.2235 64.1957 11.9794 64.255 11.7189C64.317 11.4595 64.4146 11.1799 64.5478 10.8799C64.6811 10.58 64.8335 10.2501 65.0049 9.89048C65.1764 9.53082 65.3367 9.20478 65.4858 8.91237C65.6349 8.61996 65.7907 8.36805 65.9532 8.15664C66.1183 7.94649 66.2979 7.78061 66.4922 7.65902C66.6891 7.53869 66.9178 7.47083 67.1783 7.45545C67.4401 7.43742 67.7429 7.47628 68.0867 7.57203C68.4344 7.66639 68.841 7.82452 69.3064 8.0464L71.5993 9.13942ZM68.8762 14.8517C69.212 15.0118 69.4994 15.1374 69.7383 15.2286C69.9811 15.3184 70.1924 15.3688 70.3721 15.3798C70.5519 15.3909 70.7098 15.3591 70.846 15.2844C70.9822 15.2098 71.1136 15.0874 71.2401 14.9173C71.3667 14.7472 71.4975 14.5272 71.6326 14.2573C71.7717 13.9861 71.932 13.66 72.1135 13.2792C72.295 12.8984 72.4468 12.5699 72.5687 12.2937C72.6945 12.0162 72.7837 11.7747 72.8362 11.5693C72.8886 11.3639 72.901 11.1848 72.8732 11.032C72.8455 10.8792 72.7707 10.7364 72.649 10.6037C72.5299 10.4723 72.3584 10.3419 72.1345 10.2124C71.9145 10.0816 71.6352 9.93548 71.2967 9.77411L69.0039 8.68109C68.6654 8.51973 68.3747 8.39415 68.1319 8.30437C67.893 8.2132 67.6837 8.1621 67.5039 8.15106C67.3242 8.14003 67.1662 8.17183 67.0301 8.24646C66.8939 8.3211 66.7625 8.44347 66.636 8.61359C66.5094 8.7837 66.378 9.00501 66.2416 9.27753C66.1064 9.5474 65.9481 9.87274 65.7665 10.2536C65.585 10.6344 65.4313 10.9636 65.3055 11.2411C65.1836 11.5173 65.0964 11.7581 65.0439 11.9635C64.9914 12.1689 64.9777 12.3474 65.0029 12.4989C65.0306 12.6517 65.1054 12.7945 65.2271 12.9271C65.3489 13.0598 65.5198 13.1916 65.7397 13.3224C65.9636 13.4519 66.2448 13.5973 66.5833 13.7587L68.8762 14.8517Z" fill="white"/>
<path d="M77.0755 20.077C77.3614 20.3151 77.61 20.5088 77.8212 20.658C78.0324 20.8073 78.2219 20.9117 78.3895 20.9713C78.5591 21.0286 78.7172 21.0402 78.8639 21.0061C79.0105 20.9719 79.1624 20.8925 79.3196 20.768C79.4808 20.643 79.6556 20.4721 79.8439 20.2553C80.0362 20.038 80.2609 19.7752 80.5178 19.4668C80.7746 19.1584 80.9916 18.8911 81.1686 18.6649C81.3497 18.4383 81.4862 18.2355 81.5781 18.0565C81.674 17.8772 81.7256 17.7124 81.7327 17.5619C81.7398 17.4115 81.6988 17.2592 81.6099 17.1051C81.5229 16.9487 81.3868 16.7801 81.2019 16.5993C81.0192 16.4205 80.7837 16.211 80.4956 15.971L77.2574 13.2738L73.8374 17.3797L77.0755 20.077ZM72.739 17.38L77.0591 12.1935L80.9456 15.4307C81.3418 15.7608 81.6553 16.0619 81.886 16.3342C82.1209 16.6061 82.2867 16.8624 82.3836 17.1032C82.4827 17.3459 82.5204 17.5775 82.4968 17.7981C82.4755 18.0205 82.4056 18.2464 82.2871 18.4756C82.1727 18.7044 82.0177 18.9432 81.8219 19.1919C81.6303 19.4403 81.4117 19.7119 81.1661 20.0068C80.9204 20.3017 80.6919 20.567 80.4804 20.8026C80.273 21.0378 80.0661 21.2335 79.8599 21.3896C79.6577 21.5453 79.4492 21.6538 79.2343 21.7149C79.0216 21.778 78.787 21.7828 78.5304 21.7292C78.276 21.6775 77.993 21.5618 77.6812 21.3822C77.3736 21.2022 77.0217 20.9472 76.6255 20.6172L72.739 17.38Z" fill="white"/>
<path d="M80.3025 23.9028L85.6728 19.8135L89.7621 25.1838L89.2027 25.6098L85.6246 20.9108L83.8344 22.2739L87.2422 26.7491L86.6828 27.1751L83.275 22.6998L81.373 24.1481L84.9511 28.8471L84.3917 29.2731L80.3025 23.9028Z" fill="white"/>
</svg>
