<svg id="passage_logo_hero" xmlns="http://www.w3.org/2000/svg" xmlns:xlink="http://www.w3.org/1999/xlink" width="587" height="384.253" viewBox="0 0 587 384.253">
  <defs>
    <clipPath id="clip-path">
      <rect id="Rectangle_263" data-name="Rectangle 263" width="587" height="384.253" fill="none"/>
    </clipPath>
  </defs>
  <g id="Group_264" data-name="Group 264" clip-path="url(#clip-path)">
    <path id="Path_238" data-name="Path 238" d="M94.942,322.368c2.648,1.109,4.331,3.079,4.331,6.084,0,4.975-3.079,7.408-9.342,7.408H82.594V310.807h6.693c5.8,0,8.625,2.254,8.625,6.585a6.041,6.041,0,0,1-2.97,4.9Zm-5.549-1.145c3.116,0,4.654-1.146,4.654-3.507s-1.539-3.508-4.654-3.508h-3v7.015Zm.645,11.238c3.615,0,5.368-1.324,5.368-4.009s-1.752-4.008-5.368-4.008h-3.65v8.017Z" transform="translate(12.746 47.963)" fill="#fff"/>
    <path id="Path_239" data-name="Path 239" d="M108.354,310.807h14.03v3.472H112.147v6.942h9.091v3.436h-9.091v7.695h10.594v3.508H108.354Z" transform="translate(16.721 47.963)" fill="#fff"/>
    <path id="Path_240" data-name="Path 240" d="M134.112,310.807l2.9,5.4a75.5,75.5,0,0,1,3.435,7.373h.073a72.7,72.7,0,0,1,3.4-7.408l2.864-5.369h4.081L142.309,326.7v9.162h-3.831v-9.235l-8.518-15.819Z" transform="translate(20.055 47.963)" fill="#fff"/>
    <path id="Path_241" data-name="Path 241" d="M155.35,323.391c0-7.767,5.084-12.957,12.741-12.957,7.624,0,12.706,5.19,12.706,12.957s-5.081,12.956-12.706,12.956c-7.658,0-12.741-5.19-12.741-12.956m21.511,0c0-5.762-3.365-9.378-8.769-9.378s-8.8,3.615-8.8,9.378c0,5.8,3.4,9.377,8.8,9.377s8.769-3.58,8.769-9.377" transform="translate(23.973 47.906)" fill="#fff"/>
    <path id="Path_242" data-name="Path 242" d="M188.551,310.807h4.474l9.663,12.634a97.992,97.992,0,0,1,5.942,8.41l.07-.036s-.286-3.4-.286-10.2V310.807h3.758V335.86h-4.51L198,323.226a97.746,97.746,0,0,1-5.941-8.41l-.072.036s.286,3.4.286,10.2V335.86h-3.723Z" transform="translate(29.097 47.963)" fill="#fff"/>
    <path id="Path_243" data-name="Path 243" d="M221.411,310.807h8.947c7.982,0,12.671,4.652,12.671,12.491,0,7.909-4.689,12.562-12.671,12.562h-8.947Zm8.947,21.545c5.549,0,8.805-3.364,8.805-9.054,0-5.655-3.256-9.019-8.805-9.019H225.24v18.073Z" transform="translate(34.168 47.963)" fill="#fff"/>
    <path id="Path_244" data-name="Path 244" d="M276.973,335.86h-3.937l-9.806-25.053H267.2l4.617,11.883c1.968,5.011,3.15,9.3,3.15,9.3h.07s1.254-4.294,3.222-9.3l4.652-11.883h3.866Z" transform="translate(40.621 47.963)" fill="#fff"/>
    <rect id="Rectangle_258" data-name="Rectangle 258" width="3.866" height="25.053" transform="translate(339.026 358.77)" fill="#fff"/>
    <path id="Path_245" data-name="Path 245" d="M309.45,310.807h6.979c5.476,0,8.877,2.97,8.877,8.017a7.286,7.286,0,0,1-5.154,7.052l2.22,3.221a10.869,10.869,0,0,0,5.368,4.259l-1.325,2.9a10.7,10.7,0,0,1-6.37-4.474l-3.543-5.154-3.259.037v9.2H309.45ZM316,323.369c3.4,0,5.583-1.682,5.583-4.546s-2.147-4.545-5.44-4.545h-2.9v9.09Z" transform="translate(47.754 47.963)" fill="#fff"/>
    <path id="Path_246" data-name="Path 246" d="M332.266,310.807h19.972v3.4h-8.054V335.86h-3.865V314.206h-8.054Z" transform="translate(51.275 47.963)" fill="#fff"/>
    <path id="Path_247" data-name="Path 247" d="M359.639,310.807H363.5v13.242c0,5.585,2.363,8.662,6.621,8.662s6.621-3.077,6.621-8.662V310.807h3.866v13.959c0,7.408-3.758,11.524-10.487,11.524s-10.487-4.115-10.487-11.524Z" transform="translate(55.499 47.963)" fill="#fff"/>
    <path id="Path_248" data-name="Path 248" d="M396.291,310.807h4.081l9.806,25.053h-3.936l-2.434-6.263H392.676l-2.469,6.263h-3.722Zm-1.36,13.171-.859,2.184h8.482l-.859-2.184a87.978,87.978,0,0,1-3.365-10.378h-.07a89.222,89.222,0,0,1-3.329,10.378" transform="translate(59.642 47.963)" fill="#fff"/>
    <path id="Path_249" data-name="Path 249" d="M417.081,310.807h3.866v21.545h9.162v3.508H417.081Z" transform="translate(64.363 47.963)" fill="#fff"/>
    <path id="Path_250" data-name="Path 250" d="M231.978,187.461c-4.6-17.214-27.971-9.871-40.558-14.4-1.973-.732-2.4-1.882-2.856-3.663.074-2.9,2.889-5.366,5.776-7.257,10.492-6.657,24.495-3.558,32.822,5.769a1.749,1.749,0,0,0,2.976-1.7c-7.445-20.771-39.876-23.224-50.687-3.566-5.588,10.347,3.658,21.684,14.524,21.87,7.323.826,14.264,1.2,21.219,1.936,2.177.336,4.661.443,5.82,1.781,2.636,3.966-1.024,7.715-4.747,10.188a23.237,23.237,0,0,1-16.726,3.363,27.127,27.127,0,0,1-16.285-8.988,1.613,1.613,0,0,0-2.748,1.574c5.744,15.661,27.11,21.577,41.078,12.682,6.214-3.554,12.874-11.332,10.393-19.586" transform="translate(27.433 23.021)" fill="#fff"/>
    <path id="Path_251" data-name="Path 251" d="M191.73,209.709c-4.286-2.34-10.943-7.281-13.63-13.764a28.853,28.853,0,0,1-.1-10.621l-.051.073a31.825,31.825,0,1,0-7.829,16.224c7.018,7.023,14.31,8.237,20.442,10.283a1.244,1.244,0,0,0,1.172-2.194m-45.076-8.219a21.156,21.156,0,1,1,21.156-21.155,21.18,21.18,0,0,1-21.156,21.155" transform="translate(17.734 22.932)" fill="#fff"/>
    <path id="Path_252" data-name="Path 252" d="M90.305,148.8a31.757,31.757,0,0,0-35.348,31.723l-.006-.008c0,34.79,10.731,46.255,20.116,53.514a1.244,1.244,0,0,0,1.831-1.685c-5.426-6.374-10.053-16.636-6.82-25.02C115.2,231.695,141.056,157.8,90.305,148.8m-1.559,52.588c-29.187,2.041-31.025-41.572-2.063-42.213,26.339-.037,28.287,39.607,2.063,42.213" transform="translate(8.48 22.932)" fill="#fff"/>
    <path id="Path_253" data-name="Path 253" d="M360.981,209.71c-4.286-2.341-10.943-7.281-13.63-13.764a28.88,28.88,0,0,1-.105-10.621l-.05.073a31.823,31.823,0,1,0-7.829,16.224c7.018,7.023,14.31,8.237,20.442,10.283a1.244,1.244,0,0,0,1.172-2.194m-45.075-8.22a21.156,21.156,0,1,1,21.155-21.155,21.179,21.179,0,0,1-21.155,21.155" transform="translate(43.853 22.932)" fill="#fff"/>
    <path id="Path_254" data-name="Path 254" d="M285.435,187.461c-4.6-17.214-27.971-9.871-40.558-14.4-1.973-.732-2.4-1.882-2.856-3.663.074-2.9,2.889-5.366,5.776-7.257,10.492-6.657,24.495-3.558,32.822,5.769a1.749,1.749,0,0,0,2.976-1.7c-7.445-20.771-39.876-23.224-50.687-3.566-5.588,10.347,3.658,21.684,14.524,21.87,7.323.826,14.264,1.2,21.219,1.936,2.177.336,4.661.443,5.82,1.781,2.636,3.966-1.024,7.715-4.747,10.188A23.237,23.237,0,0,1,253,201.778a27.127,27.127,0,0,1-16.285-8.988,1.613,1.613,0,0,0-2.748,1.574c5.744,15.661,27.11,21.577,41.078,12.682,6.214-3.554,12.874-11.332,10.393-19.586" transform="translate(35.683 23.021)" fill="#fff"/>
    <path id="Path_255" data-name="Path 255" d="M394.673,207.328c3.233,8.383-1.394,18.646-6.82,25.02a1.244,1.244,0,0,0,1.831,1.685c9.385-7.26,20.115-18.724,20.115-53.515l0,.009A31.758,31.758,0,0,0,374.447,148.8c-50.751,9-24.894,82.892,20.226,58.524m-16.6-48.149c28.962.642,27.124,44.253-2.063,42.213-26.225-2.608-24.276-42.25,2.063-42.213" transform="translate(53.49 22.932)" fill="#fff"/>
    <path id="Path_256" data-name="Path 256" d="M463.346,194.035c-12.422,11.416-39.988,11.36-44.621-9.425,7.74-.322,36.455,5.6,45.768-8.633,10.426-21.926-34.67-41.786-51.837-11.357-21.022,34.942,33.7,65.351,53.269,31.257a1.614,1.614,0,0,0-2.579-1.841M453.27,173.889c-7.438,5.453-27.626,3.585-34.014,2.791,1.95-15.98,24.143-22.823,34.619-12.177a6.259,6.259,0,0,1-.6,9.386" transform="translate(62.951 23.002)" fill="#fff"/>
    <path id="Path_257" data-name="Path 257" d="M262.979,5.189a55.772,55.772,0,1,1-55.772,55.772A55.772,55.772,0,0,1,262.979,5.189m0-5.189a60.976,60.976,0,0,0-23.73,117.129A60.975,60.975,0,0,0,286.709,4.793,60.585,60.585,0,0,0,262.979,0" transform="translate(31.175)" fill="#fff"/>
    <path id="Path_258" data-name="Path 258" d="M261.383,10.346A49.018,49.018,0,1,0,310.4,59.363a49.018,49.018,0,0,0-49.017-49.017m-14.1,43.115-7.526,7.526h7.526v8.144a10.556,10.556,0,0,1-21.112,0V49.588a10.556,10.556,0,1,1,21.112,0Zm49.311,7.526v8.144a10.556,10.556,0,0,1-21.113,0V49.588a10.556,10.556,0,0,1,21.113,0v3.873l-7.526,7.526Z" transform="translate(32.772 1.597)" fill="#fff"/>
    <rect id="Rectangle_259" data-name="Rectangle 259" width="147.493" height="6.565" transform="translate(0 304.091)" fill="#e82218"/>
    <rect id="Rectangle_260" data-name="Rectangle 260" width="147.493" height="6.565" transform="translate(145.685 304.091)" fill="#f5740f"/>
    <rect id="Rectangle_261" data-name="Rectangle 261" width="147.493" height="6.565" transform="translate(293.179 304.091)" fill="#ffcd8d"/>
    <rect id="Rectangle_262" data-name="Rectangle 262" width="146.328" height="6.565" transform="translate(440.672 304.091)" fill="#4bb1d1"/>
  </g>
</svg>
